<?xml version="1.0" encoding="UTF-8" standalone="no"?>
<!-- Created with Inkscape (http://www.inkscape.org/) -->

<svg
   version="1.1"
   id="svg2"
   xml:space="preserve"
   width="1066.6667"
   height="666.66669"
   viewBox="0 0 1066.6667 666.66669"
   sodipodi:docname="326883710944.eps"
   xmlns:inkscape="http://www.inkscape.org/namespaces/inkscape"
   xmlns:sodipodi="http://sodipodi.sourceforge.net/DTD/sodipodi-0.dtd"
   xmlns="http://www.w3.org/2000/svg"
   xmlns:svg="http://www.w3.org/2000/svg"><defs
     id="defs6"><linearGradient
       x1="0"
       y1="0"
       x2="1"
       y2="0"
       gradientUnits="userSpaceOnUse"
       gradientTransform="matrix(-6500,-6500,-6500,6500,7250,5750)"
       spreadMethod="pad"
       id="linearGradient16"><stop
         style="stop-opacity:1;stop-color:#dadad9"
         offset="0"
         id="stop12" /><stop
         style="stop-opacity:1;stop-color:#ffffff"
         offset="1"
         id="stop14" /></linearGradient></defs><sodipodi:namedview
     id="namedview4"
     pagecolor="#ffffff"
     bordercolor="#666666"
     borderopacity="1.0"
     inkscape:pageshadow="2"
     inkscape:pageopacity="0.0"
     inkscape:pagecheckerboard="0" /><g
     id="g8"
     inkscape:groupmode="layer"
     inkscape:label="ink_ext_XXXXXX"
     transform="matrix(1.3333333,0,0,-1.3333333,0,666.66667)"><g
       id="g10"
       transform="scale(0.1)"><path
         d="M 0.00390625,5000 H 8000 V 0 H 0.00390625 v 5000"
         style="fill:url(#linearGradient16);fill-opacity:1;fill-rule:nonzero;stroke:none"
         id="path18" /><path
         d="m 3705.49,1550.76 c -266.34,-0.01 -593.57,133.59 -976.83,399.32 -408.75,283.41 -783.16,651.19 -963.1,827.94 -57.59,56.57 -104.53,102.67 -120.32,113.96 13.33,-27.02 99.1,-143.67 232.27,-324.02 182.38,-247 178.56,-250.2 172.78,-255.02 -7.39,-6.15 -27.88,13.91 -199.05,195.44 -272.43,288.89 -779.52,826.63 -1302.896,1255.74 -641.012,525.54 -1103.223,720.39 -1373.797,579.11 -333.257,-174.01 -376.767,-861.56 -129.317,-2043.55 l -7.343,-1.55 c -248.217,1185.69 -203.407,1875.99 133.191,2051.75 273.465,142.78 738.4493,-52.32 1382.02,-579.96 523.752,-429.41 1031.052,-967.38 1303.602,-1256.4 93.79,-99.46 164.31,-174.24 185.47,-190.81 -14.4,27.91 -93.37,136.07 -170.7,240.8 -225.17,304.95 -241.77,330.55 -233.88,337.4 6.48,5.67 18.97,-5.3 133.22,-117.54 363.47,-357.04 1469.63,-1443.61 2165.33,-1185.8 329.63,122.1 526.36,531.91 584.71,1218.06 46.58,547.58 203.8,879.93 480.62,1016.04 554.31,272.49 1469.18,-316.51 2276.35,-836.22 632.15,-407 1178.07,-758.48 1404.86,-599 132.94,93.48 146.58,359.73 41.67,813.96 l 7.31,1.68 c 105.66,-457.53 91.05,-726.34 -44.66,-821.78 -39.39,-27.69 -88.05,-40.4 -144.72,-40.41 -275.66,-0.05 -742.3,300.44 -1268.51,639.25 -805.5,518.63 -1718.47,1106.45 -2269,835.78 C 4730.51,3690.09 4574.66,3359.74 4528.33,2815 4469.7,2125.7 4271.34,1713.73 3938.74,1590.53 c -71.59,-26.52 -149.43,-39.76 -233.25,-39.77"
         style="fill:#6684cb;fill-opacity:1;fill-rule:nonzero;stroke:none"
         id="path20" /><path
         d="m 3701.3,1516.49 c -705.54,-0.11 -1640.59,882.85 -1972.38,1196.11 -58.77,55.49 -106.63,100.68 -122.51,111.46 13.45,-26.39 100.49,-140.45 235.71,-316.89 184.92,-241.31 181.14,-244.59 175.44,-249.54 -7.34,-6.34 -28.09,13.24 -202.2,190.8 C 1536.92,2732.41 1018.64,3261 483.844,3680.78 -171.301,4195.03 -642.633,4381 -917.035,4233.48 -1249.76,4054.63 -1293.82,3381.69 -1047.98,2233.37 l -7.33,-1.56 c -246.63,1151.96 -201.3,1827.65 134.724,2008.28 277.293,149.03 751.356,-37.16 1409.066,-553.41 535.17,-420.08 1053.68,-948.9 1332.24,-1233 95.57,-97.47 167.37,-170.7 188.65,-186.56 -14.53,27.24 -94.72,133.06 -173.21,235.49 -228.38,298.02 -245.26,323.1 -237.47,330.12 6.44,5.87 19.12,-4.91 135.38,-114.68 371.89,-351.12 1503.61,-1419.64 2213.9,-1151.41 331.05,125.02 530.08,526.49 591.58,1193.28 48.91,530.3 206.94,855.1 483.1,992.98 565.11,282.14 1502.58,-296.1 2329.66,-806.28 647.43,-399.36 1206.59,-744.33 1435.69,-578.91 131.58,94.97 144.94,355.02 40.83,795.02 l 7.3,1.73 c 104.88,-443.28 90.58,-705.9 -43.74,-802.84 -233.15,-168.31 -794.28,177.83 -1444.01,578.62 -825.41,509.14 -1760.99,1086.27 -2322.38,805.95 -273.64,-136.62 -430.32,-459.46 -478.99,-986.97 -61.78,-669.87 -262.43,-1073.48 -596.39,-1199.59 -78.51,-29.65 -162.24,-43.12 -249.32,-43.14"
         style="fill:#495bb2;fill-opacity:1;fill-rule:nonzero;stroke:none"
         id="path22" /><path
         d="m 3695.28,1482.58 c -719.08,-0.08 -1666.45,859.47 -2003.94,1165.64 -60,54.43 -108.83,98.73 -124.81,109.03 13.6,-25.79 101.92,-137.29 239.21,-309.88 187.55,-235.73 183.82,-239.09 178.19,-244.17 -7.29,-6.45 -28.34,12.61 -205.42,186.25 -284.69,279.18 -814.627,798.83 -1361.237,1209.4 -669.796,503.11 -1150.445,680.18 -1428.593,526.25 -331.78,-183.6 -376.17,-842.04 -131.93,-1957.06 l -7.32,-1.6 c -245.04,1118.63 -199.41,1779.83 135.62,1965.22 280.977,155.46 764.352,-21.77 1436.723,-526.81 547.008,-410.87 1077.167,-930.74 1361.987,-1210.04 97.4,-95.5 170.52,-167.21 191.91,-182.39 -14.7,26.61 -96.11,130.13 -175.79,230.29 -231.67,291.21 -248.83,315.77 -241.15,322.97 6.38,5.96 19.27,-4.52 137.65,-111.91 380.65,-345.33 1539.09,-1396.2 2264.09,-1117.18 332.22,127.83 533.41,521.06 597.98,1168.75 51.2,513.33 209.89,830.65 485.17,970.11 576.09,291.87 1536.87,-275.72 2384.52,-776.48 663.28,-391.84 1236.13,-730.22 1467.33,-558.92 130.05,96.34 143.06,350.25 39.75,776.23 l 7.29,1.77 c 104.1,-429.24 90.17,-685.7 -42.58,-784.03 -43.48,-32.2 -98.61,-46.86 -163.71,-46.86 -287.15,-0.05 -769.34,284.84 -1311.9,605.35 -846,499.78 -1804.86,1066.24 -2377.31,776.24 -272.81,-138.2 -430.18,-453.58 -481.09,-964.16 -64.88,-650.73 -267.67,-1046.06 -602.76,-1175 -84.14,-32.37 -174.11,-47 -267.88,-47.01"
         style="fill:#b5b9dc;fill-opacity:1;fill-rule:nonzero;stroke:none"
         id="path24" /><path
         d="m 3688.77,1449.33 c -732.88,-0.1 -1692.75,836.53 -2036.09,1135.75 -61.16,53.3 -110.92,96.66 -127.01,106.52 13.81,-25.26 103.44,-134.21 242.82,-302.92 190.2,-230.24 186.54,-233.68 180.98,-238.89 -7.17,-6.74 -28.67,12.06 -208.88,181.89 -291.23,274.48 -833.309,785.38 -1392.137,1186.81 -684.91,492.01 -1175.062,660.12 -1456.863,499.59 -330.42,-188.21 -374.93,-832.32 -132.31,-1914.45 l -7.31,-1.64 c -243.43,1085.72 -197.7,1732.58 135.91,1922.61 284.546,162.08 777.44,-6.14 1464.948,-500.02 559.235,-401.72 1101.552,-912.85 1392.902,-1187.44 99.35,-93.62 173.88,-163.88 195.4,-178.4 -14.85,26.01 -97.53,127.25 -178.42,225.16 -235.04,284.5 -252.49,308.55 -244.93,315.91 6.16,6.07 20.55,-5.13 139.82,-109.07 389.76,-339.68 1575.84,-1373.31 2316.03,-1083.27 333.14,130.54 536.34,515.59 603.91,1144.42 53.38,496.67 212.62,806.58 486.82,947.42 587.21,301.63 1572.02,-255.36 2440.91,-746.75 550.25,-311.19 1039.8,-588.03 1330.03,-588.06 68.23,0 125.41,15.29 169.82,49.04 128.39,97.59 140.99,345.42 38.48,757.66 l 7.29,1.8 c 103.3,-415.45 89.81,-665.82 -41.23,-765.42 -45.57,-34.64 -104.16,-50.33 -173.87,-50.33 -293.11,-0.02 -783.3,277.21 -1334.21,588.78 C 6634.32,3336.5 5651.3,3892.4 5067.79,3592.64 4796,3453.04 4638.08,3145.06 4585,2651.09 c -67.9,-631.84 -272.68,-1018.96 -608.64,-1150.6 -90.05,-35.29 -186.74,-51.15 -287.59,-51.16"
         style="fill:#8fd3ee;fill-opacity:1;fill-rule:nonzero;stroke:none"
         id="path26" /><path
         d="m 3681.76,1416.62 c -746.81,-0.06 -1719.32,813.9 -2068.65,1106.26 -62.44,52.25 -113.21,94.74 -129.42,104.15 14.01,-24.73 104.98,-131.2 246.52,-296.13 192.94,-224.85 189.32,-228.36 183.85,-233.68 -7.07,-6.85 -28.85,11.37 -212.28,177.49 -297.99,269.87 -852.667,772.19 -1424.171,1164.65 -700.644,481.12 -1200.582,640.24 -1485.899,472.96 -328.63,-192.67 -373.07,-822.58 -132.08,-1872.23 l -7.31,-1.68 c -241.81,1053.21 -196.18,1685.86 135.6,1880.38 288.06,168.88 790.689,9.66 1493.939,-473.25 571.918,-392.74 1126.831,-895.29 1424.951,-1165.28 101.24,-91.68 177.16,-160.44 198.83,-174.33 -15.08,25.44 -99.02,124.4 -181.13,220.09 -238.48,277.91 -256.23,301.47 -248.79,308.99 6.06,6.21 20.71,-4.7 142.21,-106.39 399.19,-334.08 1614.02,-1350.75 2369.51,-1049.46 333.82,133.13 538.83,510.07 609.32,1120.35 55.5,480.34 215.16,782.89 488.1,924.94 598.4,311.43 1608.09,-235.02 2498.93,-717.15 558.78,-302.4 1056.47,-571.73 1352.86,-571.76 73.05,-0.01 133.83,16.34 180.33,52.59 126.59,98.72 138.7,340.52 37,739.24 l 7.27,1.86 c 102.51,-401.93 89.54,-646.27 -39.66,-747 -47.69,-37.19 -109.91,-53.95 -184.48,-53.95 -299.18,-0.02 -797.49,269.68 -1356.9,572.43 -889.19,481.23 -1897.02,1026.64 -2491.88,717.08 -270.57,-140.8 -428.93,-441.46 -484.12,-919.14 -70.83,-613.23 -277.42,-992.22 -613.99,-1126.45 -96.3,-38.41 -200.04,-55.58 -308.46,-55.58"
         style="fill:#70d1f4;fill-opacity:1;fill-rule:nonzero;stroke:none"
         id="path28" /><path
         d="m 3674.2,1384.57 c -760.98,-0.07 -1746.25,791.63 -2101.72,1077.23 -63.68,51.16 -115.45,92.76 -131.79,101.76 14.27,-24.26 106.6,-128.26 250.29,-289.41 195.75,-219.55 192.2,-223.14 186.83,-228.58 -6.91,-7.04 -29.16,10.8 -215.79,173.16 C 1357,2484.08 789.242,2978.02 204.613,3361.57 -512.309,3831.92 -1022.22,3982.07 -1311,3807.83 -1637.44,3610.86 -1681.61,2995 -1442.29,1977.34 l -7.3,-1.72 c -240.15,1021.19 -194.83,1639.79 134.72,1838.63 291.47,175.84 804.057,25.65 1523.597,-446.41 585.05,-383.83 1153.063,-877.98 1458.213,-1143.46 103.18,-89.75 180.51,-157.03 202.33,-170.35 -15.3,24.93 -100.54,121.63 -183.89,215.12 -242.02,271.44 -260.07,294.51 -252.78,302.19 6.05,6.32 20.9,-4.32 144.58,-103.69 409,-328.62 1653.63,-1328.62 2424.75,-1015.85 334.24,135.57 540.89,504.47 614.23,1096.44 56.76,457.9 221.29,761.59 489.02,902.65 609.81,321.24 1645.12,-214.75 2558.57,-687.64 567.43,-293.76 1073.41,-555.68 1376.07,-555.71 78.15,0 142.7,17.45 191.3,56.32 124.66,99.68 136.21,335.51 35.33,720.98 l 7.25,1.9 c 101.72,-388.64 89.32,-627.01 -37.89,-728.74 -49.82,-39.84 -115.85,-57.71 -195.55,-57.71 -305.4,-0.02 -811.95,262.24 -1379.96,556.3 -911.82,472.05 -1945.27,1007.11 -2551.62,687.66 -269.17,-141.81 -427.84,-435.2 -485.08,-896.93 -73.7,-594.88 -281.9,-965.81 -618.85,-1102.48 -102.86,-41.72 -214.13,-60.26 -330.55,-60.27"
         style="fill:#8ba6db;fill-opacity:1;fill-rule:nonzero;stroke:none"
         id="path30" /><path
         d="m 3666.07,1353.09 c -775.38,0 -1773.59,769.73 -2135.33,1048.67 -64.94,50.07 -117.71,90.76 -134.21,99.38 14.57,-23.81 108.3,-125.39 254.19,-282.82 198.62,-214.34 195.13,-218.01 189.86,-223.55 -6.84,-7.22 -29.37,10.16 -219.41,168.92 -312.33,260.93 -893.686,746.61 -1491.881,1121.34 -733.738,459.66 -1253.869,600.78 -1545.909,419.45 -323.8,-201.06 -367.49,-802.99 -129.83,-1789.05 l -7.3,-1.76 c -238.49,989.57 -193.68,1594.22 133.18,1797.18 294.69,182.96 817.468,41.85 1553.843,-419.46 598.625,-375 1180.237,-860.9 1492.707,-1121.94 105.17,-87.86 183.96,-153.69 205.96,-166.44 -15.57,24.42 -102.11,118.9 -186.72,210.21 -245.66,265.09 -264.03,287.67 -256.88,295.51 5.88,6.48 21.03,-3.92 146.98,-101.03 419.19,-323.25 1694.84,-1306.87 2481.81,-982.43 334.42,137.87 542.57,498.8 618.7,1072.78 58.7,442.45 223.4,738.7 489.53,880.52 277.17,147.7 668.83,136.65 1197.39,-33.79 461.56,-148.84 950.01,-390.64 1422.38,-624.48 576.22,-285.25 1090.61,-539.87 1399.69,-539.89 83.51,0 151.99,18.57 202.7,60.16 122.58,100.5 133.52,330.43 33.44,702.89 l 7.25,1.95 c 100.92,-375.62 89.16,-608.07 -35.94,-710.64 -51.93,-42.59 -121.93,-61.6 -207.05,-61.61 -311.74,-0.02 -826.66,254.91 -1403.42,540.42 -935.14,462.92 -1995.03,987.63 -2612.92,658.37 -263.87,-140.62 -427.25,-434.97 -485.61,-874.88 -76.5,-576.84 -286.2,-939.77 -623.28,-1078.73 -109.79,-45.26 -228.96,-65.25 -353.92,-65.25"
         style="fill:#7bb4e5;fill-opacity:1;fill-rule:nonzero;stroke:none"
         id="path32" /><path
         d="m 3657.38,1322.16 c -789.98,-0.06 -1801.23,748.15 -2169.4,1020.53 -66.23,49 -120.04,88.8 -136.7,97.06 14.89,-23.39 110.03,-122.58 258.14,-276.3 201.56,-209.22 198.15,-212.96 192.98,-218.63 -6.68,-7.25 -29.6,9.57 -223.07,164.74 C 1259.43,2366.13 663.969,2843.71 51.7422,3209.72 -699.422,3658.8 -1229.97,3790.89 -1525.14,3602.3 c -320.75,-204.92 -363.74,-793 -127.8,-1747.91 l -7.28,-1.79 c -236.8,958.37 -192.71,1549.18 131.04,1756.02 297.77,190.25 830.965,58.19 1584.7698,-392.46 C 668.254,2849.88 1263.98,2372.1 1584.03,2115.41 c 107.15,-85.94 187.41,-150.31 209.62,-162.55 -15.88,23.97 -103.75,116.24 -189.63,205.38 -249.35,258.81 -268.05,280.93 -261.04,288.9 5.8,6.61 21.17,-3.52 149.46,-98.42 429.74,-317.94 1737.48,-1285.42 2540.61,-949.13 334.32,140 543.79,493.02 622.59,1049.26 60.57,427.36 225.32,716.25 489.71,858.64 282.33,152.05 682.82,145.85 1224.44,-18.93 472.92,-143.89 996.35,-391.54 1458.15,-610.04 750.43,-355.06 1398.55,-661.71 1638.29,-460.12 120.39,101.2 130.66,325.28 31.4,685.04 l 7.23,1.99 c 100.12,-362.88 89.06,-589.48 -33.8,-692.77 -54.06,-45.45 -128.23,-65.64 -219.06,-65.65 -318.24,-0.03 -841.66,247.65 -1427.27,524.73 -959.16,453.82 -2046.31,968.21 -2675.82,629.15 -262.17,-141.2 -425.63,-428.22 -485.85,-853.1 -79.19,-559.03 -290.18,-914.03 -627.12,-1055.11 -116.98,-48.99 -244.64,-70.51 -378.56,-70.52"
         style="fill:#75c5ef;fill-opacity:1;fill-rule:nonzero;stroke:none"
         id="path34" /><path
         d="m 3648.03,1291.82 c -804.77,-0.02 -1829.23,726.94 -2203.95,992.84 -67.5,47.9 -122.33,86.8 -139.17,94.71 15.26,-22.99 111.86,-119.83 262.23,-269.9 204.57,-204.19 201.23,-208 196.17,-213.77 -6.59,-7.47 -29.93,9.06 -226.92,160.67 -327.78,252.29 -937.91,721.91 -1564.6205,1079.25 -769.1565,438.57 -1310.3095,561.6 -1608.4195,365.62 -317.24,-208.53 -359.32,-782.9 -125.09,-1707.14 l -7.27,-1.83 c -235.1,927.67 -191.96,1504.76 128.24,1715.24 300.68,197.62 844.457,74.7 1616.2544,-365.37 C 602.645,2784.54 1213.04,2314.72 1540.97,2062.31 c 109.24,-84.09 191.04,-147.05 213.46,-158.77 -16.2,23.51 -105.41,113.61 -192.59,200.62 -253.18,252.68 -272.2,274.33 -265.36,282.43 5.69,6.76 21.33,-3.13 151.94,-95.82 440.68,-312.69 1781.72,-1264.31 2601.26,-915.99 334,141.94 544.63,487.12 626.04,1025.96 62.35,412.59 227.04,694.18 489.51,836.93 287.51,156.37 697.06,155.02 1252.09,-4.15 484.6,-138.98 1021.38,-381.62 1494.96,-595.69 769.51,-347.85 1434.12,-648.23 1675.05,-440.61 118.07,101.74 127.62,320.01 29.18,667.29 l 7.21,2.04 c 99.31,-350.38 89.02,-571.18 -31.5,-675.02 -56.17,-48.41 -134.66,-69.8 -231.53,-69.81 -324.86,-0.02 -856.92,240.51 -1451.5,509.27 -983.92,444.77 -2099.14,948.87 -2740.37,600.09 -260.3,-141.57 -423.71,-421.31 -485.68,-831.45 -81.82,-541.59 -293.96,-888.73 -630.54,-1031.76 -124.58,-52.95 -261.09,-76.05 -404.57,-76.05"
         style="fill:#73b0e3;fill-opacity:1;fill-rule:nonzero;stroke:none"
         id="path36" /><path
         d="m 3638.08,1261.98 c -819.77,-0.06 -1857.49,706.02 -2238.92,965.52 -68.83,46.83 -124.73,84.86 -141.77,92.45 15.65,-22.63 113.73,-117.15 266.38,-263.6 207.66,-199.25 204.39,-203.13 199.45,-209 -6.46,-7.67 -30.21,8.5 -230.79,156.61 -335.94,248.08 -961.27,709.85 -1602.961,1058.61 -787.762,428.14 -1339.779,542.07 -1640.639,338.6 -313.34,-211.87 -354.34,-772.6 -121.86,-1666.62 l -7.26,-1.89 c -233.36,897.42 -191.33,1460.88 124.91,1674.73 303.4,205.14 858.013,91.36 1648.435,-338.23 C 535.199,2720.15 1160.79,2258.18 1496.89,2010 c 111.31,-82.2 194.66,-143.74 217.32,-155.01 -16.58,23.11 -107.14,111.05 -195.63,195.95 -257.07,246.63 -276.43,267.81 -269.75,276.05 5.55,6.82 21.43,-2.72 154.55,-93.29 452,-307.51 1827.51,-1243.341 2663.65,-882.96 333.43,143.71 545.05,481.12 628.97,1002.84 64.07,398.2 228.61,672.56 489.03,815.47 292.77,160.66 711.59,164.11 1280.39,10.54 496.6,-134.08 1047.11,-371.71 1532.81,-581.37 603.22,-260.4 1143.61,-493.64 1472.8,-493.67 101.47,0 182.82,22.15 239.82,72.48 115.64,102.13 124.4,314.66 26.77,649.74 l 7.21,2.1 c 98.52,-338.16 89.02,-553.22 -29.02,-657.46 -58.27,-51.46 -141.26,-74.09 -244.48,-74.09 -331.64,-0.02 -872.46,233.45 -1476.07,494.01 -485.48,209.56 -1035.72,447.08 -1531.8,581.02 -566.81,153.04 -983.83,149.8 -1274.82,-9.88 -258.3,-141.73 -421.55,-414.29 -485.23,-810.08 -84.36,-524.42 -297.47,-863.75 -633.41,-1008.54 -132.47,-57.09 -278.43,-81.86 -431.92,-81.87"
         style="fill:#ace4f0;fill-opacity:1;fill-rule:nonzero;stroke:none"
         id="path38" /><path
         d="m 3627.46,1232.7 c -834.91,-0.09 -1885.99,685.38 -2274.25,938.54 -70.22,45.79 -127.26,82.97 -144.5,90.24 16.06,-22.27 115.66,-114.52 270.65,-257.43 210.81,-194.38 207.63,-198.32 202.81,-204.27 -6.33,-7.78 -30.45,7.94 -234.61,152.54 -344.39,243.92 -985.427,697.95 -1642.623,1038.22 -807.047,417.86 -1370.127,522.7 -1673.617,311.64 -309.03,-214.91 -348.75,-762.15 -118.07,-1626.49 l -7.24,-1.93 c -231.59,867.71 -190.88,1417.67 121.02,1634.58 305.96,212.78 871.65,108.11 1681.357,-311.14 657.656,-340.51 1298.963,-794.73 1643.503,-1038.75 113.34,-80.29 198.19,-140.38 221.12,-151.21 -17,22.71 -108.94,108.49 -198.74,191.3 -261.06,240.72 -280.77,261.45 -274.26,269.82 5.4,6.97 21.59,-2.35 157.29,-90.84 463.73,-302.37 1874.9,-1222.5 2727.81,-849.99 332.61,145.27 545.02,474.95 631.36,979.88 65.72,384.16 229.98,651.37 488.24,794.24 298.07,164.9 726.36,173.12 1309.3,25.13 508.91,-129.19 1073.55,-361.83 1571.71,-567.09 809.38,-333.47 1508.35,-621.46 1751.06,-401.83 113.12,102.35 121.05,309.19 24.25,632.35 l 7.19,2.14 c 97.71,-326.2 89.07,-535.56 -26.41,-640.06 -60.33,-54.59 -148.03,-78.47 -257.94,-78.48 -338.56,-0.02 -888.21,226.46 -1501.01,478.95 -497.93,205.16 -1062.31,437.69 -1570.69,566.75 -580.99,147.49 -1007.48,139.5 -1303.83,-24.43 -256.16,-141.7 -419.16,-407.14 -484.47,-788.94 -86.79,-507.57 -300.69,-839.13 -635.76,-985.49 -140.69,-61.45 -296.56,-87.94 -460.65,-87.95"
         style="fill:#97d6f0;fill-opacity:1;fill-rule:nonzero;stroke:none"
         id="path40" /><path
         d="m 3616.14,1203.92 c -850.28,-0.06 -1914.86,665.1 -2310.08,912.02 -71.58,44.71 -129.72,81.03 -147.2,88.02 16.52,-21.95 117.66,-111.94 275.01,-251.33 214.04,-189.61 210.94,-193.61 206.24,-199.65 -6.14,-7.87 -30.68,7.39 -238.66,148.62 -353.16,239.82 -1010.509,686.21 -1683.68,1018.02 -826.89,407.58 -1401.24,503.32 -1707.09,284.57 -304.31,-217.65 -342.56,-751.46 -113.68,-1586.59 l -7.24,-1.98 c -229.79,838.47 -190.58,1375 116.56,1594.68 308.26,220.48 885.19,124.95 1714.77,-283.95 673.633,-332.04 1331.27,-778.63 1684.57,-1018.55 115.48,-78.42 201.93,-137.12 225.14,-147.54 -17.44,22.36 -110.76,106.02 -201.9,186.76 -265.16,234.88 -285.23,255.18 -278.89,263.65 5.31,7.11 21.8,-2.01 160.02,-88.38 475.85,-297.28 1923.89,-1201.97 2793.91,-817.19 331.57,146.63 544.64,468.64 633.32,957.1 67.28,370.47 231.17,630.63 487.12,773.24 303.45,169.07 741.37,182.03 1338.76,39.61 521.52,-124.32 1100.65,-351.96 1611.6,-552.8 830.2,-326.32 1547.18,-608.14 1790.44,-382.58 110.52,102.44 117.62,303.68 21.6,615.2 l 7.17,2.21 c 96.95,-314.56 89.15,-518.31 -23.67,-622.91 -62.37,-57.83 -154.99,-82.98 -271.93,-82.99 -345.66,-0.02 -904.29,219.58 -1526.35,464.09 -510.72,200.75 -1089.6,428.28 -1610.6,552.48 -595.47,141.96 -1031.65,129.26 -1333.37,-38.86 -253.9,-141.47 -416.54,-399.87 -483.38,-768.04 -89.15,-491.05 -303.71,-814.91 -637.68,-962.62 -149.3,-66.02 -315.57,-94.3 -490.83,-94.31"
         style="fill:#a4bbe5;fill-opacity:1;fill-rule:nonzero;stroke:none"
         id="path42" /><path
         d="m 3603.93,1175.64 c -865.89,-0.07 -1944.03,645.21 -2346.34,885.96 -72.88,43.61 -132.06,79.03 -149.8,85.77 17.06,-21.66 119.78,-109.43 279.5,-245.32 217.35,-184.93 214.32,-188.97 209.76,-195.11 -6.02,-8.02 -30.97,6.87 -242.92,144.82 -362.239,235.75 -1036.509,674.59 -1726.107,997.94 -847.303,397.3 -1433.063,483.92 -1741.013,257.44 -299.2,-220.06 -335.79,-740.53 -108.76,-1546.96 l -7.21,-2.04 c -227.98,809.76 -190.45,1332.94 111.53,1555.04 310.31,228.23 898.65,141.87 1748.645,-256.7 690.062,-323.56 1364.617,-762.58 1727.015,-998.44 117.7,-76.6 205.81,-133.95 229.34,-143.99 -17.9,22 -112.64,103.59 -205.14,182.3 -269.37,229.16 -289.81,249.01 -283.66,257.59 5.17,7.17 21.94,-1.68 162.67,-85.89 488.37,-292.26 1974.56,-1181.659 2861.92,-784.63 330.33,147.78 543.93,462.22 634.87,934.6 68.78,357.16 232.22,610.33 485.79,752.49 308.85,173.17 756.62,190.8 1368.9,53.92 534.44,-119.47 1128.47,-342.12 1652.58,-538.55 851.55,-319.16 1586.97,-594.83 1830.6,-363.43 107.8,102.37 113.9,298.05 18.8,598.22 l 7.1,2.27 c 96.1,-303.18 89.3,-501.39 -20.8,-605.93 -64.3,-61.13 -162.04,-87.56 -286.38,-87.57 -352.87,-0.03 -920.55,212.77 -1551.95,449.42 -523.88,196.35 -1117.65,418.89 -1651.59,538.25 -610.38,136.45 -1056.42,119.08 -1363.6,-53.14 -251.55,-141.03 -413.75,-392.49 -482.09,-747.38 -91.42,-474.9 -306.47,-791.17 -639.17,-940.02 -158.24,-70.79 -335.48,-100.92 -522.49,-100.93"
         style="fill:#aeb3da;fill-opacity:1;fill-rule:nonzero;stroke:none"
         id="path44" /><path
         d="m 3591.06,1147.87 c -881.59,-0.03 -1973.4,625.53 -2382.92,860.16 -74.31,42.57 -134.69,77.16 -152.7,83.64 17.58,-21.37 121.9,-106.96 284.04,-239.41 220.75,-180.34 217.82,-184.43 213.38,-190.62 -5.82,-8.17 -31.19,6.33 -246.99,140.91 -345.136,215.22 -1063.307,663.07 -1769.905,978.07 -868.485,387.17 -1465.935,464.69 -1775.735,230.44 -293.74,-222.11 -328.49,-729.35 -103.31,-1507.65 l -7.21,-2.09 c -226.13,781.59 -190.47,1291.55 105.99,1515.72 312.17,236.03 912.15,158.8 1783.32,-229.57 707.07,-315.2 1425.539,-763.24 1770.82,-978.56 119.79,-74.7 209.48,-130.63 233.36,-140.32 -18.45,21.68 -114.6,101.19 -208.47,177.87 -273.63,223.53 -294.45,242.94 -288.48,251.62 5.04,7.34 22.09,-1.31 165.62,-83.55 501.31,-287.21 2026.86,-1161.221 2931.72,-752.05 328.86,148.72 542.81,455.64 635.9,912.21 70.2,344.22 233.11,590.51 484.19,732.04 314.3,177.17 772.12,199.44 1399.64,68.09 547.69,-114.63 1157.02,-332.27 1694.61,-524.29 640.62,-228.82 1217.23,-434.76 1575.27,-434.78 130.1,-0.01 231.4,27.2 296.4,90.4 105,102.15 110.2,292.34 15.9,581.42 l 7.1,2.33 c 95.3,-292.08 89.5,-484.77 -17.8,-589.13 -66.3,-64.49 -169.4,-92.23 -301.5,-92.23 -360.25,-0.01 -937.08,206.04 -1577.89,434.93 -537.38,191.94 -1146.43,409.48 -1693.63,524.01 -625.64,130.95 -1081.78,108.96 -1394.41,-67.28 -249.11,-140.41 -410.79,-385.02 -480.54,-727.02 -93.59,-459.06 -308.97,-767.76 -640.15,-917.53 -167.54,-75.77 -356.24,-107.77 -555.62,-107.78"
         style="fill:#89d1ed;fill-opacity:1;fill-rule:nonzero;stroke:none"
         id="path46" /><path
         d="m 3577.28,1120.55 c -897.55,-0.09 -2003.02,606.21 -2419.9,834.81 -75.67,41.5 -137.16,75.21 -155.47,81.47 18.19,-21.09 124.14,-104.54 288.72,-233.59 224.22,-175.8 221.37,-179.94 217.07,-186.2 -5.65,-8.25 -31.49,5.84 -251.31,137.14 -716.21,427.76 -2895.72,1729.47 -3626.11,1161.73 -287.91,-223.81 -320.68,-717.91 -97.39,-1468.62 l -7.18,-2.12 c -224.27,753.94 -190.63,1250.77 99.97,1476.66 313.71,243.85 925.53,175.74 1818.465,-202.42 724.558,-306.86 1461.796,-747.18 1816.095,-958.79 121.99,-72.86 213.34,-127.43 237.61,-136.78 -19,21.37 -116.59,98.82 -211.85,173.5 -278.04,218.01 -299.246,237 -293.465,245.76 4.863,7.42 22.205,-0.97 168.445,-81.17 514.67,-282.21 2080.83,-1141.02 3003.47,-719.7 327.22,149.43 541.38,448.88 636.53,890.04 71.56,331.65 233.86,571.16 482.39,711.88 319.8,181.07 787.88,207.93 1430.99,82.09 561.27,-109.82 1186.28,-322.45 1737.71,-510.04 650.18,-221.19 1236.09,-420.5 1601.73,-420.52 138.3,-0.01 245,28.49 311.8,95.08 102.2,101.79 106.5,286.54 13,564.83 l 7.1,2.38 c 94.5,-281.24 89.6,-468.52 -14.8,-572.52 -246.9,-245.97 -1022.79,18 -1921.24,323.64 -551.21,187.53 -1175.96,400.07 -1736.73,509.79 -641.28,125.47 -1107.69,98.89 -1425.86,-81.25 -246.59,-139.62 -407.67,-377.47 -478.76,-706.95 -95.68,-443.59 -311.26,-744.81 -640.74,-895.28 -177.14,-80.89 -377.99,-114.83 -590.29,-114.85"
         style="fill:#98dded;fill-opacity:1;fill-rule:nonzero;stroke:none"
         id="path48" /><path
         d="m 3562.64,1093.72 c -913.61,-0.07 -2032.84,587.17 -2457.15,809.77 -80,41.97 -140.24,73.57 -158.431,79.39 18.73,-20.77 126.371,-102.13 293.511,-227.88 227.78,-171.37 225.03,-175.55 220.86,-181.88 -5.49,-8.37 -31.82,5.41 -255.7,133.43 -735.816,420.76 -2974.99,1701.17 -3708.51,1115.14 -281.77,-225.13 -312.4,-706.2 -91.02,-1429.87 l -7.17,-2.19 c -222.37,726.89 -190.9,1210.68 93.51,1437.92 314.97,251.65 938.79,192.66 1854.136,-175.36 742.5506,-298.55 1499.16,-731.2 1862.774,-939.12 124.21,-71.04 217.26,-124.24 241.93,-133.29 -19.6,21.07 -118.66,96.5 -215.32,169.22 -282.537,212.58 -304.134,231.15 -298.537,239.98 4.778,7.58 20.821,0.17 171.447,-78.85 528.43,-277.21 2136.5,-1120.79 3077.03,-687.44 325.39,149.92 539.63,441.99 636.77,868.09 72.84,319.45 234.46,552.28 480.36,692 325.34,184.87 803.88,216.23 1462.98,95.89 575.16,-105.02 1216.24,-312.63 1781.87,-495.79 659.79,-213.66 1255.05,-406.42 1628.42,-406.43 146.8,0 259.3,29.78 327.9,99.82 99.3,101.28 102.5,280.68 9.8,548.46 l 7.1,2.45 c 93.7,-270.72 89.9,-452.65 -11.5,-556.16 -70,-71.42 -184.4,-101.76 -333.3,-101.76 -375.47,-0.02 -970.87,192.8 -1630.74,406.48 -565.4,183.1 -1206.23,390.62 -1780.9,495.55 -657.27,120.02 -1134.16,88.93 -1457.92,-95.03 -244,-138.64 -404.4,-369.83 -476.76,-687.14 -97.68,-428.5 -313.32,-722.29 -640.93,-873.24 -187.13,-86.22 -400.6,-122.14 -626.51,-122.16"
         style="fill:#9ac8da;fill-opacity:1;fill-rule:nonzero;stroke:none"
         id="path50" /><path
         d="m 3547.07,1067.34 c -929.88,-0.04 -2062.89,568.44 -2494.76,785.1 -81.447,40.87 -142.806,71.65 -161.345,77.29 19.414,-20.54 128.765,-99.82 298.415,-222.25 231.39,-167 228.73,-171.21 224.7,-177.6 -5.33,-8.4 -32.06,4.91 -260.32,129.83 -756.069,413.77 -3056.85,1672.92 -3792.79,1068.64 -275.32,-226.07 -303.66,-694.22 -84.23,-1391.44 l -7.16,-2.24 c -220.44,700.42 -191.29,1171.27 86.64,1399.48 315.92,259.42 951.89,209.52 1890.233,-148.34 761.02356,-290.23 1537.668,-715.27 1910.907,-919.53 126.53,-69.25 221.35,-121.13 246.46,-129.88 -20.22,20.77 -120.75,94.22 -218.83,165.01 -287.174,207.24 -309.166,225.39 -303.771,234.29 4.629,7.65 20.914,0.48 174.461,-76.55 542.61,-272.23 2193.86,-1100.63 3152.56,-655.35 323.4,150.19 537.58,434.95 636.61,846.37 74.06,307.62 234.94,533.86 478.17,672.43 330.94,188.54 820.15,224.35 1495.58,109.48 589.37,-100.24 1246.93,-302.8 1827.08,-481.51 943,-290.5 1757.42,-541.4 2000.02,-287.91 96.3,100.63 98.5,274.76 6.7,532.34 l 7,2.51 c 92.9,-260.5 90.2,-437.15 -8.3,-540.04 -245.8,-256.83 -1062.26,-5.31 -2007.63,285.93 -579.93,178.65 -1237.24,381.13 -1826.13,481.29 -673.66,114.57 -1161.24,79.06 -1490.6,-108.61 -241.36,-137.5 -401.04,-362.14 -474.6,-667.67 -99.59,-413.75 -315.16,-700.21 -640.74,-851.42 -197.47,-91.71 -424.16,-129.64 -664.33,-129.65"
         style="fill:#6a87cc;fill-opacity:1;fill-rule:nonzero;stroke:none"
         id="path52" /><path
         d="m 3530.5,1041.41 c -946.3,-0.08 -2093.03,549.95 -2532.566,760.74 -82.969,39.78 -145.5,69.77 -164.407,75.22 20.102,-20.28 131.196,-97.51 303.413,-216.69 235.12,-162.71 232.55,-166.96 228.66,-173.39 -5.11,-8.48 -32.35,4.45 -264.87,126.19 -777.007,406.83 -3141.59,1644.86 -3879.18,1022.47 -268.61,-226.64 -294.53,-681.98 -77.05,-1353.34 l -7.13,-2.31 c -218.52,674.54 -191.82,1132.58 79.35,1361.38 741.46,625.62 3109.378,-614.16 3887.5,-1021.55 128.77,-67.42 225.29,-117.97 250.89,-126.46 -20.9,20.5 -122.93,91.97 -222.44,160.84 -291.897,202.01 -314.303,219.76 -309.092,228.72 4.461,7.72 21.086,0.73 177.592,-74.31 557.2,-267.23 2252.8,-1080.381 3229.92,-623.4 321.25,150.25 535.27,427.78 636.11,824.88 75.23,296.18 235.34,515.96 475.86,653.22 336.59,192.09 836.64,232.28 1528.8,122.86 603.91,-95.48 1278.33,-292.98 1873.37,-467.22 967.39,-283.3 1802.87,-527.91 2044.57,-269.33 93.4,99.86 94.5,268.8 3.5,516.45 l 7,2.58 c 92.1,-250.56 90.5,-422.02 -5,-524.16 -73.4,-78.5 -200.1,-111.46 -367.6,-111.48 -391.3,-0.03 -1005.45,179.85 -1684.58,378.73 -594.82,174.19 -1269,371.62 -1872.43,467.02 -690.37,109.16 -1188.86,69.26 -1523.92,-121.96 -238.69,-136.22 -397.59,-354.42 -472.3,-648.56 -101.42,-399.38 -316.82,-678.58 -640.2,-829.83 -208.1,-97.32 -448.75,-137.29 -703.77,-137.31"
         style="fill:#b2c6ea;fill-opacity:1;fill-rule:nonzero;stroke:none"
         id="path54" /><path
         d="m 3514.87,1016.49 c -312.61,-0.01 -673.46,56.06 -1080.33,168.15 -633.86,174.64 -1213.68,440.34 -1492.329,568.04 -84.43,38.69 -148.106,67.87 -167.41,73.16 20.859,-20.06 133.73,-95.27 308.519,-211.23 238.93,-158.52 236.45,-162.78 232.7,-169.26 -4.99,-8.58 -32.69,4.02 -269.75,122.71 -798.606,399.83 -3228.86,1616.57 -3967.36,976.33 -261.64,-226.83 -285.04,-669.45 -69.55,-1315.54 l -7.11,-2.39 c -216.54,649.26 -192.4,1094.58 71.75,1323.6 742.28,643.52 3175.91,-574.9 3975.63,-975.29 131.19,-65.69 229.57,-114.95 255.67,-123.18 -21.6,20.23 -125.14,89.77 -226.12,156.77 -296.742,196.85 -319.575,214.2 -314.559,223.21 4.289,7.78 21.188,1.03 180.715,-72.08 572.204,-262.2 2313.464,-1060.17 3309.194,-591.66 319,150.1 532.76,420.51 635.34,803.71 76.33,285.1 235.6,498.52 473.38,634.33 342.27,195.5 853.43,239.99 1562.66,135.97 618.76,-90.74 1310.45,-283.17 1920.73,-452.95 992.37,-276.08 1849.36,-514.51 2089.96,-250.91 90.4,98.96 90.4,262.76 0.2,500.77 l 7.1,2.66 c 91.3,-240.91 90.7,-407.24 -1.7,-508.49 -75,-82.11 -208.2,-116.37 -385.7,-116.38 -399.4,-0.03 -1023.07,173.51 -1711.87,365.13 -610.06,169.72 -1301.52,362.08 -1919.81,452.75 -707.5,103.76 -1217.07,59.58 -1557.85,-135.06 -235.99,-134.78 -394.07,-346.66 -469.85,-629.75 -103.18,-385.44 -318.3,-657.48 -639.4,-808.57 -204.81,-96.36 -453.12,-144.54 -742.85,-144.55"
         style="fill:#c0ccec;fill-opacity:1;fill-rule:nonzero;stroke:none"
         id="path56" /><path
         d="m 3496.48,991.5 c -313.67,0 -674.5,52.69 -1080.32,158.08 -650.11,168.83 -1245.02,429.19 -1530.93,554.32 -85.984,37.62 -150.867,66.02 -170.585,71.16 21.644,-19.84 136.32,-93.07 313.715,-205.84 242.84,-154.39 240.46,-158.68 236.86,-165.19 -4.8,-8.6 -33.04,3.63 -274.427,119.15 -820.902,392.89 -3319.003,1588.52 -4057.673,930.62 -254.47,-226.65 -275.25,-656.7 -61.77,-1278.2 l -7.08,-2.45 c -214.57,624.64 -193.09,1057.4 63.86,1286.24 742.38,661.25 3243.893,-536.01 4065.901,-929.44 133.409,-63.86 233.519,-111.77 260.189,-119.78 -22.38,19.97 -127.44,87.58 -229.89,152.72 -301.67,191.79 -324.932,208.73 -320.107,217.78 4.183,7.83 21.367,1.28 184.015,-69.9 285.722,-125.05 880.272,-385.25 1529.812,-553.93 802.5,-208.399 1428.49,-210.449 1860.6,-6.14 316.63,149.75 530.02,413.11 634.24,782.78 162.62,576.73 666.33,842.28 1539.75,811.88 757.4,-26.37 1681.78,-270.49 2497.36,-485.86 698.6,-184.49 1331.9,-351.71 1737.8,-351.74 185.5,-0.01 323.5,34.92 398.5,119.11 87.4,97.94 86.4,256.7 -3,485.37 l 7,2.73 c 90.5,-231.54 91,-392.84 1.6,-493.1 -76.4,-85.74 -216.5,-121.27 -404.4,-121.27 -407.8,-0.02 -1040.98,167.2 -1739.42,351.65 C 7315.37,2683.42 5283.42,3220.01 4920.11,1931.45 4815.28,1559.59 4600.53,1294.63 4281.85,1143.93 4066.98,1042.31 3804.46,991.5 3496.48,991.5"
         style="fill:#62ccf5;fill-opacity:1;fill-rule:nonzero;stroke:none"
         id="path58" /><path
         d="m 3476.84,966.941 c -314.53,-0.011 -674.99,49.439 -1079.45,148.329 -666.77,163.04 -1277.14,418.04 -1570.464,540.59 -87.504,36.55 -153.582,64.16 -173.754,69.15 22.476,-19.6 138.992,-90.89 319.047,-200.54 246.841,-150.32 244.551,-154.64 241.081,-161.16 -4.62,-8.71 -33.3,3.17 -279.366,115.7 -843.8676,385.91 -3411.874,1560.25 -4149.854,885.05 -247.1,-226.09 -265.17,-643.7 -53.69,-1241.22 l -7.07,-2.5 c -212.58,600.63 -193.84,1020.94 55.7,1249.25 741.65,678.6 3313.0464,-497.32 4158.035,-883.76 135.785,-62.09 237.735,-108.72 264.975,-116.51 -23.15,19.71 -129.76,85.45 -233.706,148.75 -306.769,186.81 -330.469,203.37 -325.836,212.46 3.989,7.88 21.5,1.52 187.328,-67.76 293.154,-122.47 903.154,-377.32 1569.354,-540.21 823.31,-201.322 1463.93,-197.412 1904.09,11.56 314.17,149.18 527.12,405.6 632.91,762.13 168.03,566.22 682.7,828.49 1573.54,802 772.46,-23.04 1714.47,-258.99 2545.58,-467.17 1044.21,-261.53 1945.91,-487.42 2183.61,-214.51 84.3,96.82 82.2,250.64 -6.4,470.24 l 6.9,2.81 c 89.8,-222.48 91.4,-378.82 5.1,-477.97 C 11003.9,1735.28 10100,1961.66 9053.47,2223.81 7389.57,2640.59 5318.8,3159.27 4943.36,1894.12 4836.93,1535.46 4622.65,1277.48 4306.48,1127.35 4081.29,1020.43 3803.9,966.949 3476.84,966.941"
         style="fill:#a0daf1;fill-opacity:1;fill-rule:nonzero;stroke:none"
         id="path60" /><path
         d="m 3455.98,942.73 c -315.14,-0.011 -674.98,46.29 -1077.75,138.92 -683.84,157.28 -1310.06,406.91 -1611.011,526.89 -89.028,35.48 -156.317,62.31 -176.969,67.16 23.352,-19.37 141.746,-88.74 324.473,-195.29 250.957,-146.34 248.757,-150.67 245.427,-157.23 -4.42,-8.76 -33.67,2.81 -284.384,112.31 -867.53553,378.89 -3507.506,1531.95 -4244.016,839.75 -239.57,-225.16 -254.84,-630.45 -45.4,-1204.6 l -7.04,-2.56 c -210.57,577.23 -194.66,985.22 47.3,1212.62 740.1,695.58 3383.5033,-458.95 4252.152,-838.34 138.148,-60.34 241.938,-105.67 269.828,-113.27 -24,19.46 -132.18,83.33 -237.645,144.84 C 599,1655.84 574.852,1672 579.293,1681.11 c 3.879,7.93 21.715,1.76 190.703,-65.61 300.774,-119.9 926.634,-369.4 1609.914,-526.54 844.66,-194.261 1500.24,-184.48 1948.54,29.03 311.65,148.43 524.06,398 631.34,741.8 173.52,555.95 699.48,815.08 1608.01,792.42 787.85,-19.71 1747.86,-247.6 2594.86,-448.67 718,-170.43 1370.44,-325.3 1793.54,-325.32 208,-0.02 360.4,37.4 438.1,128.77 81.3,95.57 78.1,244.51 -9.7,455.33 l 6.9,2.89 c 89,-213.68 91.8,-365.15 8.5,-463.07 -79.1,-93.03 -233.8,-131.08 -444.3,-131.09 -424.9,-0.01 -1077.06,154.83 -1794.76,325.2 C 7465.14,2598.79 5354.67,3099.79 4966.96,1857.56 4859.02,1511.68 4645.28,1260.58 4331.68,1111.22 4095.9,998.93 3803.06,942.75 3455.98,942.73"
         style="fill:#a7e2ef;fill-opacity:1;fill-rule:nonzero;stroke:none"
         id="path62" /><path
         d="m 3433.73,918.961 c -315.44,0 -674.38,43.258 -1075.01,129.799 -701.32,151.51 -1343.79,395.75 -1652.544,513.13 -90.578,34.44 -159.102,60.49 -180.27,65.23 24.274,-19.17 144.586,-86.64 330.02,-190.16 255.144,-142.41 253.034,-146.75 249.844,-153.32 -4.28,-8.74 -34.05,2.43 -289.547,108.96 -891.8714,371.84 -3605.943,1503.41 -4340.073,794.72 -231.92,-223.87 -244.34,-617 -36.92,-1168.45 l -7.02,-2.64 c -208.57,554.51 -195.54,950.33 38.73,1176.49 737.68,712.13 3455.1772,-420.88 4348.169,-793.21 140.547,-58.59 246.221,-102.65 274.781,-110.07 -24.86,19.21 -134.62,81.25 -241.617,140.98 -317.265,177.1 -341.871,192.88 -337.613,202.01 3.688,7.94 21.875,1.98 194.18,-63.52 308.59,-117.32 950.7,-361.43 1651.47,-512.82 866.46,-187.168 1537.29,-171.629 1993.83,46.27 309.05,147.49 520.88,390.35 629.6,721.81 179.07,545.86 716.58,801.95 1643.09,783.14 803.55,-16.38 1781.96,-236.29 2645.18,-430.32 1098.49,-246.9 2047.09,-460.14 2280.69,-178.77 78.2,94.23 74,238.4 -13,440.74 l 6.9,2.97 c 88.2,-205.18 92.1,-351.89 11.9,-448.5 -80.3,-96.68 -242.9,-135.94 -465.6,-135.95 -433.6,-0.02 -1095.26,148.72 -1822.54,312.19 C 7542.01,2558.15 5391.01,3041.64 4990.87,1821.83 4881.48,1488.34 4668.35,1244 4357.37,1095.6 4110.69,977.859 3801.83,918.961 3433.73,918.961"
         style="fill:#b0c1e7;fill-opacity:1;fill-rule:nonzero;stroke:none"
         id="path64" /><path
         d="m 3410.08,895.559 c -315.48,0 -673.11,40.312 -1071.26,121.001 -719.19,145.75 -1378.308,384.59 -1695.062,499.37 -92.145,33.39 -161.91,58.66 -183.613,63.28 25.226,-18.95 147.503,-84.55 335.707,-185.08 259.428,-138.57 257.408,-142.92 254.358,-149.5 -4.12,-8.79 -34.46,2.07 -294.948,105.69 -916.875,364.74 -3707.052,1474.66 -4437.942,749.98 -224.15,-222.25 -233.67,-603.37 -28.3,-1132.749 l -6.99,-2.719 c -206.56,532.428 -196.46,916.238 30.01,1140.788 734.37,728.13 3527.987,-383.15 4445.991,-748.33 143.067,-56.91 250.699,-99.73 279.969,-106.96 -25.75,18.96 -137.125,79.19 -245.684,137.18 -322.718,172.38 -347.796,187.78 -343.73,196.92 3.539,7.95 21.988,2.22 197.727,-61.45 316.585,-114.72 975.347,-353.42 1693.997,-499.06 888.81,-180.15 1575.17,-158.861 2040.06,63.24 306.42,146.39 517.62,382.63 627.7,702.16 184.69,536.01 733.84,789.46 1678.83,774.18 819.58,-13.07 1816.78,-225.1 2696.58,-412.17 1126.52,-239.52 2099.42,-446.39 2330.62,-161.17 75.2,92.8 69.9,232.28 -16.3,426.42 l 6.8,3.05 c 87.5,-196.96 92.5,-339 15.3,-434.2 -234,-288.77 -1209,-81.47 -2337.98,158.56 C 7620.28,2518.57 5427.87,2984.71 5015.16,1786.87 4904.4,1465.38 4691.91,1227.69 4383.6,1080.39 4125.76,957.211 3800.14,895.559 3410.08,895.559"
         style="fill:#a2dbf2;fill-opacity:1;fill-rule:nonzero;stroke:none"
         id="path66" /><path
         d="m 3388.02,872.352 c -155,0 -320.05,9.039 -495.25,27.148 -939.95,97.148 -1902.098,429.27 -2312.954,571.09 -93.687,32.34 -164.703,56.85 -186.98,61.36 26.23,-18.72 150.508,-82.5 341.504,-180.08 263.84,-134.78 261.914,-139.13 258.992,-145.71 -3.91,-8.78 -34.773,1.7 -300.191,102.38 -942.625,357.62 -3811.151,1445.87 -4538.001,705.7 -216.34,-220.31 -222.94,-589.6 -19.59,-1097.611 l -6.96,-2.789 c -204.55,511.03 -197.42,883.03 21.2,1105.65 730.3,743.65 3602.265,-345.89 4546.015,-703.92 145.41,-55.17 254.91,-96.71 284.953,-103.79 -26.738,18.71 -139.711,77.16 -249.832,133.42 -328.305,167.71 -353.863,182.75 -349.977,191.88 3.403,7.97 22.227,2.41 201.313,-59.4 410.609,-141.73 1372.188,-473.66 2311.278,-570.719 1172.09,-121.16 1891.8,164.229 2139.16,848.189 190.4,526.39 751.73,776.72 1715.32,765.56 835.96,-9.75 1852.36,-213.97 2749.11,-394.15 1155.27,-232.1 2152.87,-432.56 2381.47,-143.74 72.2,91.29 65.8,226.18 -19.6,412.4 l 6.8,3.13 c 86.7,-189.02 92.8,-326.48 18.7,-420.19 -231.4,-292.41 -1231.2,-91.54 -2388.85,141.05 C 7700.02,2479.98 5465.27,2929.01 5039.75,1752.6 4828.11,1167.42 4273.36,872.371 3388.02,872.352"
         style="fill:#7ad4f4;fill-opacity:1;fill-rule:nonzero;stroke:none"
         id="path68" /><path
         d="m 3361.08,849.691 c -153.57,-0.011 -316.66,8.25 -489.45,24.789 -958.42,91.77 -1938.607,413.89 -2357.165,551.44 -95.238,31.3 -167.512,55.05 -190.399,59.46 27.286,-18.51 153.582,-80.48 347.403,-175.15 268.347,-131.07 266.508,-135.42 263.719,-141.99 -3.79,-8.94 -32.333,0.32 -305.817,99.2 -969.027,350.38 -3917.921,1416.64 -4639.751,661.64 -208.47,-218.03 -212.1,-575.63 -10.78,-1062.881 l -6.94,-2.867 c -202.55,490.238 -198.42,850.558 12.3,1070.938 725.21,758.5 3677.562,-308.99 4647.726,-659.78 147.953,-53.49 259.469,-93.82 290.312,-100.73 -27.715,18.46 -142.34,75.17 -254.062,129.74 -336.231,164.21 -360.121,177.66 -356.356,186.93 3.243,8 22.344,2.64 204.989,-57.38 418.32,-137.48 1397.941,-459.421 2355.541,-551.109 1195.24,-114.382 1930.52,168.139 2185.43,839.879 196.16,516.96 769.23,764.53 1752.43,757.21 852.66,-6.43 1888.66,-202.91 2802.72,-376.27 1184.57,-224.64 2207.57,-418.69 2433.27,-126.5 69.3,89.71 61.8,220.12 -22.9,398.69 l 6.8,3.22 c 86,-181.37 93.2,-314.34 22,-406.5 -83,-107.57 -271.6,-150.31 -534.9,-150.32 -460.6,-0.03 -1150.3,130.8 -1905.67,274.05 C 7781.16,2442.52 5503.23,2874.53 5064.79,1719.16 4845.46,1141.18 4273.2,849.711 3361.08,849.691"
         style="fill:#b2b7db;fill-opacity:1;fill-rule:nonzero;stroke:none"
         id="path70" /><path
         d="m -4188.11,813.121 c -200.57,470.179 -199.44,819.039 3.38,1036.889 719.33,772.75 3754.054,-272.53 4751.3,-616.02 150.555,-51.85 264.129,-90.96 295.821,-97.73 -28.727,18.21 -145.036,73.2 -258.391,126.12 -342.113,159.69 -366.457,172.81 -362.871,182.05 3.133,8.08 20.672,3.43 208.769,-55.39 426.207,-133.27 1424.302,-445.349 2400.782,-531.7 1218.88,-107.82 1969.99,172.12 2232.53,831.91 200.55,503.97 779.25,749.15 1768.49,749.15 7.3,0 14.44,-0.01 21.78,-0.04 869.72,-3.14 1925.76,-191.96 2857.47,-358.57 765.15,-136.8 1464.55,-261.86 1933.05,-261.88 275.2,-0.01 470.7,43.13 553,152.39 66.4,88.06 57.8,214.08 -26.1,385.3 l 6.7,3.3 c 85.3,-173.99 93.6,-302.58 25.4,-393.11 -83.8,-111.17 -281.9,-155 -560.2,-155.02 -469.9,-0.02 -1168.7,124.96 -1933.16,261.64 -1865.82,333.63 -4187.89,748.84 -4639.46,-385.94 -227.23,-571.05 -817.71,-859.091 -1757.79,-859.118 -151.74,0 -312.47,7.5 -482.37,22.519 -977.29,86.418 -1975.922,398.669 -2402.356,532.009 -96.832,30.28 -170.387,53.28 -193.922,57.59 28.375,-18.28 156.75,-78.48 353.434,-170.29 272.969,-127.43 271.304,-131.54 268.554,-138.35 -3.613,-8.93 -32.753,0.03 -311.601,96.07 -996.106,343.09 -4027.369,1387.17 -4743.379,618 -200.6,-215.49 -201.27,-561.64 -1.97,-1028.83 l -6.89,-2.949"
         style="fill:#a4a9d5;fill-opacity:1;fill-rule:nonzero;stroke:none"
         id="path72" /><path
         d="m -4351.52,763.309 c -198.59,450.751 -200.46,788.351 -5.52,1003.421 712.72,786.33 3832.153,-236.64 4857.231,-572.79 152.872,-50.14 268.329,-88 300.934,-94.64 -29.84,17.96 -147.797,71.24 -262.77,122.5 -348.132,155.23 -372.949,168.02 -369.531,177.24 2.989,8.09 20.848,3.59 212.633,-53.43 C 815.719,1216.49 1832.68,914.141 2828.44,833.102 4071.41,731.922 4838.7,1009.26 5108.97,1657.35 c 207.98,498.67 806.22,741.18 1828.91,741.38 0.43,0 0.88,0 1.31,0 886.89,0 1962.8,-181.15 2912.12,-340.98 1245.19,-209.65 2320.59,-390.69 2539.69,-92.66 63.5,86.35 53.9,208.09 -29.3,372.2 l 6.7,3.39 c 84.6,-166.87 94,-291.19 28.7,-380.04 -221.9,-301.76 -1299.4,-120.34 -2547.04,89.71 C 7948,2370.6 5580.81,2769.15 5115.9,1654.46 4880.53,1090.07 4271.07,805.332 3301.76,805.301 c -149.49,0 -307.37,6.758 -473.93,20.32 -996.54,81.109 -2014.025,383.619 -2448.51,512.799 -98.414,29.26 -173.273,51.51 -197.48,55.74 29.496,-18.06 159.984,-76.51 359.574,-165.51 277.703,-123.83 276.121,-127.92 273.512,-134.71 -3.457,-8.92 -33.059,-0.27 -317.071,92.87 -499.46438,163.79 -1538.765,504.61 -2537.125,704.81 -1232.16,247.09 -2010.1,203.37 -2312.22,-129.93 -192.76,-212.67 -190.46,-547.56 6.83,-995.35 l -6.86,-3.031"
         style="fill:#6e8bcf;fill-opacity:1;fill-rule:nonzero;stroke:none"
         id="path74" /><path
         d="m -4518.41,713.859 c -196.64,431.971 -201.49,758.501 -14.4,970.511 300.74,340.82 1095.05,393.1 2360.82,155.39 1023.51,-192.22 2090.99,-525.27 2603.994,-685.33 155.473,-48.5 273.008,-85.17 306.559,-91.69 -30.95,17.72 -150.602,69.33 -267.223,118.98 -354.313,150.85 -379.5978,163.31 -376.3517,172.52 2.8359,8.07 21.0977,3.72 216.6567,-51.52 442.5,-125.01 1478.755,-417.732 2494.165,-493.478 1267.54,-94.531 2051.24,180.278 2329.36,816.898 214.01,489.84 825.11,729.9 1868.27,733.93 8.94,0.04 17.95,0.06 26.94,0.06 899.72,0 1984.99,-171.82 2943.66,-323.58 782.66,-123.9 1499.96,-237.44 1987.46,-237.47 307.6,-0.01 523.5,45.17 606.9,161.43 60.7,84.59 50.1,202.16 -32.4,359.42 l 6.6,3.48 c 84,-160.01 94.4,-280.16 31.9,-367.28 -218.3,-304.29 -1322.8,-129.43 -2601.63,73.01 C 8033.74,2336.11 5620.45,2718.18 5142.05,1623.13 4898.28,1065.15 4269.06,783.602 3269.1,783.57 c -146.69,0 -301.24,6.059 -463.85,18.192 C 1789.09,877.559 752.32,1170.44 309.602,1295.5 c -100.063,28.27 -176.27,49.79 -201.18,53.93 30.656,-17.83 163.305,-74.58 365.859,-160.82 282.524,-120.28 281.02,-124.36 278.528,-131.14 -3.289,-8.91 -33.461,-0.54 -323.036,89.81 -512.8707,160.01 -1580.073,492.97 -2603.153,685.1 -1262.99,237.21 -2054.94,185.73 -2353.81,-152.98 -184.95,-209.59 -179.7,-533.39 15.61,-962.439 l -6.83,-3.102"
         style="fill:#a8b9e4;fill-opacity:1;fill-rule:nonzero;stroke:none"
         id="path76" /><path
         d="m -4688.8,664.73 c -194.71,413.86 -202.52,729.54 -23.21,938.27 297.13,345.91 1105.6,405.78 2402.87,178 1048.75,-184.15 2144.749,-509.28 2671.456,-665.53 158.055,-46.89 277.672,-82.37 312.207,-88.75 -32.089,17.45 -153.472,67.42 -271.777,115.49 -360.6132,146.53 -386.3866,158.67 -383.3046,167.84 2.6211,7.81 15.082,5.55 220.6836,-49.6 C 691.043,1139.5 1747,856.27 2782.52,785.77 c 1292.65,-87.989 2093.18,184.48 2379.28,809.9 220.12,481.2 844.34,718.91 1908.35,726.75 923.25,6.71 2041.85,-159.48 3028.95,-306.2 1308.3,-194.46 2438.2,-362.41 2650,-59.65 57.9,82.8 46.3,196.31 -35.5,347 l 6.6,3.58 c 83.3,-153.44 94.8,-269.51 35.1,-354.87 -214.5,-306.59 -1346.5,-138.31 -2657.3,56.52 -1976.94,293.84 -4437.26,659.54 -4929.38,-416.25 -252.44,-551.86 -902.37,-830.359 -1934.4,-830.39 -143.42,0 -294.08,5.371 -452.22,16.129 C 1745.77,848.84 689.309,1132.2 238.188,1253.2 c -101.68,27.28 -179.2114,48.07 -204.8638,52.11 31.8867,-17.6 166.7268,-72.64 372.2458,-156.15 287.489,-116.81 286.059,-120.89 283.692,-127.64 -3.024,-8.58 -23.567,-3.86 -329.078,86.76 -526.575,156.21 -1622.294,481.25 -2670.624,665.32 -1294.47,227.32 -2100.57,168.26 -2395.88,-175.49 -177.21,-206.28 -169.03,-519.24 24.31,-930.188 l -6.79,-3.192"
         style="fill:#a6abd6;fill-opacity:1;fill-rule:nonzero;stroke:none"
         id="path78" /><path
         d="m -4862.82,615.93 c -192.8,396.39 -203.54,701.45 -31.91,906.7 293.21,350.64 1115.98,417.95 2445.48,200.03 1074.54,-176.13 2199.687,-493.27 2740.406,-645.68 160.598,-45.27 282.278,-79.57 317.86,-85.82 -33.286,17.19 -156.403,65.54 -276.403,112.04 -367.07,142.27 -393.3396,154.09 -390.4216,163.23 2.5078,7.78 15.1758,5.62 224.7926,-47.72 C 626.5,1101.79 1702.6,827.961 2758.64,762.691 c 1318.35,-81.421 2136,188.75 2430.17,803.209 226.31,472.71 863.91,708.18 1949.22,719.84 941.48,10.29 2082.16,-148.79 3088.47,-288.98 1340.9,-186.81 2498.9,-348.13 2706.8,-43.44 55.2,80.97 42.6,190.51 -38.6,334.88 l 6.6,3.67 c 82.7,-147.09 95.2,-259.22 38.2,-342.78 -210.5,-308.55 -1370.6,-146.92 -2714,40.25 C 8209.97,2270.14 5701.59,2619.59 5195.56,1562.66 4934.18,1016.67 4262.6,741.051 3196.9,741.031 c -139.55,0 -285.69,4.711 -438.72,14.18 C 1701.43,820.52 624.855,1094.46 165.133,1211.45 61.8594,1237.72 -17,1257.79 -43.4336,1261.76 -10.2852,1244.39 126.785,1191.02 335.324,1110.2 627.883,996.82 626.527,992.75 624.285,986.039 621.422,977.461 600.504,982 289.117,1069.77 c -540.59,152.37 -1665.467,469.43 -2739.587,645.49 -1326.68,217.44 -2147.13,151.03 -2438.51,-197.44 -169.56,-202.77 -158.49,-505.11 32.9,-898.609 l -6.74,-3.281"
         style="fill:#b5b8dc;fill-opacity:1;fill-rule:nonzero;stroke:none"
         id="path80" /></g></g></svg>
