<?xml version="1.0" standalone="no"?>
<!DOCTYPE svg PUBLIC "-//W3C//DTD SVG 20010904//EN"
 "http://www.w3.org/TR/2001/REC-SVG-20010904/DTD/svg10.dtd">
<svg version="1.0" xmlns="http://www.w3.org/2000/svg"
 width="5000.000000pt" height="5000.000000pt" viewBox="0 0 5000.000000 5000.000000"
 preserveAspectRatio="xMidYMid meet">

<g transform="translate(0.000000,5000.000000) scale(0.100000,-0.100000)"
fill="#000000" stroke="none">
<path d="M32595 39690 c-33 -10 -163 -48 -290 -84 -126 -37 -249 -78 -273 -92
-23 -14 -101 -54 -172 -90 l-130 -65 0 -119 0 -120 118 0 c64 0 172 7 240 17
115 15 137 15 355 0 127 -10 251 -17 275 -17 l42 0 0 43 0 43 -82 39 c-80 38
-150 99 -185 159 -30 51 -2 96 87 141 35 18 55 37 69 63 22 43 30 94 16 98 -5
1 -37 -6 -70 -16z"/>
<path d="M33180 39532 c0 -12 -18 -29 -51 -46 -58 -32 -66 -45 -49 -86 12 -29
15 -30 79 -30 36 0 83 5 103 10 49 14 96 61 95 97 0 15 -2 22 -4 15 -3 -8 -18
-1 -44 23 -32 29 -47 35 -84 35 -37 0 -45 -3 -45 -18z"/>
<path d="M33305 39529 c7 -11 35 -12 35 -1 0 4 -9 8 -20 9 -11 1 -18 -2 -15
-8z"/>
<path d="M33445 39479 c-4 -6 -5 -12 -2 -15 2 -3 7 2 10 11 7 17 1 20 -8 4z"/>
<path d="M33470 39470 c-8 -5 -10 -10 -5 -10 6 0 17 5 25 10 8 5 11 10 5 10
-5 0 -17 -5 -25 -10z"/>
<path d="M31579 39311 l-86 -26 41 -83 40 -82 53 0 53 0 0 110 c0 61 -3 109
-7 109 -5 -1 -47 -13 -94 -28z"/>
<path d="M33672 39278 c-5 -7 -21 -46 -36 -85 l-26 -73 42 0 c36 0 49 6 85 42
37 37 43 48 43 85 l0 43 -49 0 c-27 0 -53 -6 -59 -12z"/>
<path d="M33510 39230 l-75 -27 37 -37 c22 -22 46 -36 61 -36 20 0 28 9 46 56
23 60 25 75 14 73 -5 -1 -42 -14 -83 -29z"/>
<path d="M41620 29476 c-3 -2 -30 -7 -60 -10 -70 -6 -138 -21 -219 -48 -49
-16 -60 -23 -48 -30 27 -15 279 -70 298 -65 10 3 19 1 21 -3 4 -12 211 -30
333 -30 96 0 260 14 317 26 32 6 29 19 -16 67 -14 15 -26 32 -26 38 0 5 -4 9
-10 9 -5 0 -10 6 -10 14 0 9 -17 16 -49 20 -62 8 -525 19 -531 12z"/>
<path d="M42318 29463 c-27 -2 -48 -7 -48 -10 0 -8 48 -72 75 -100 l21 -22 98
24 c150 37 145 35 113 52 -15 8 -33 11 -40 7 -6 -4 -9 -4 -5 1 5 5 -6 17 -23
27 -33 20 -106 28 -191 21z m63 -50 c13 -16 12 -17 -3 -4 -10 7 -18 15 -18 17
0 8 8 3 21 -13z"/>
<path d="M41350 24073 c-36 -8 -67 -19 -70 -23 -3 -4 -18 -10 -35 -13 -16 -3
-70 -18 -120 -32 -49 -15 -101 -28 -115 -30 -14 -1 -27 -4 -30 -5 -3 -1 -9 -2
-14 -1 -5 1 -6 -4 -3 -11 2 -8 15 -59 27 -115 13 -56 27 -100 31 -97 5 3 6 -2
3 -10 -5 -13 10 -85 140 -651 30 -132 103 -449 161 -705 154 -676 296 -1295
298 -1297 2 -1 1950 916 1953 920 1 1 -26 54 -60 117 -34 63 -113 211 -176
328 -62 116 -117 212 -122 212 -4 0 -8 8 -8 17 0 9 -76 159 -169 332 -93 174
-196 368 -229 431 -34 63 -106 198 -160 299 l-99 185 -45 1 c-24 0 -60 9 -81
18 -88 42 -174 43 -403 4 -67 -11 -123 -40 -176 -90 -56 -53 -232 -166 -287
-185 -88 -31 -214 -5 -259 53 -32 40 -28 69 28 183 28 56 50 107 50 112 0 6 4
10 9 10 5 0 14 14 20 30 5 17 9 30 8 29 -1 0 -31 -8 -67 -16z m268 -1961 c8
-12 10 -22 4 -22 -5 0 -17 12 -27 26 -11 17 -13 25 -4 22 7 -2 19 -14 27 -26z"/>
<path d="M44280 23991 c-19 -9 -37 -18 -40 -21 -3 -3 -12 -6 -20 -7 -8 -1 -40
-10 -70 -20 -49 -15 -99 -17 -455 -18 -359 0 -404 -2 -437 -18 -29 -13 -64
-17 -163 -17 -95 0 -135 -4 -163 -17 -20 -9 -40 -15 -44 -15 -5 1 -8 -3 -8 -9
0 -6 -18 5 -39 24 -22 20 -57 40 -78 46 -41 12 -143 15 -143 5 0 -13 151 -294
166 -309 9 -8 12 -15 9 -15 -9 0 104 -213 119 -222 6 -4 8 -8 3 -8 -4 0 10
-33 32 -72 21 -40 94 -176 161 -303 134 -251 159 -297 173 -306 5 -3 8 -10 6
-14 -4 -11 95 -194 102 -189 4 2 11 -1 15 -7 4 -8 3 -9 -4 -5 -7 4 -12 4 -12
1 0 -7 228 -436 236 -444 2 -2 176 78 386 177 529 251 496 234 492 257 -3 19
-2 19 11 2 12 -17 15 -17 44 -2 18 9 29 20 26 25 -4 6 1 7 11 3 10 -4 22 0 30
11 7 10 17 15 23 11 6 -3 11 1 11 10 0 9 -4 13 -10 10 -6 -4 -7 1 -3 11 4 11
8 13 11 6 2 -7 8 -10 13 -7 5 4 6 -1 2 -11 -5 -14 -3 -15 14 -6 14 8 19 18 16
35 -3 14 0 28 6 31 6 4 12 2 12 -3 3 -26 4 -30 12 -37 4 -4 7 0 7 10 0 9 4 15
9 11 5 -3 12 -1 16 5 4 6 10 8 14 6 4 -3 8 1 8 9 0 15 -26 29 -35 20 -3 -3 0
-5 6 -5 6 0 9 -6 6 -13 -7 -20 -32 -17 -37 4 -5 19 17 31 63 34 48 2 100 66
100 122 0 15 -13 55 -28 88 -38 80 -48 133 -27 141 9 4 71 -4 138 -16 235 -42
276 -43 385 -11 55 16 64 28 45 58 -36 54 -31 54 -734 53 -357 0 -660 2 -674
6 -21 5 -25 12 -25 41 0 43 -21 85 -55 107 -21 14 -29 14 -48 4 -38 -21 -155
-15 -214 11 -29 13 -53 27 -53 32 0 5 -8 9 -18 9 -10 0 -29 11 -41 24 -28 30
-154 93 -201 101 -23 4 -51 21 -82 53 -27 25 -48 49 -48 53 0 3 13 6 29 7 17
0 38 5 48 10 10 5 43 15 73 22 158 35 272 98 278 154 5 42 33 85 67 104 17 9
32 19 35 22 12 12 47 13 295 11 143 -1 282 3 310 8 33 6 52 6 56 -1 8 -12 154
-1 184 15 11 5 31 21 44 33 l24 24 -54 0 c-30 0 -79 7 -109 16 -30 8 -62 16
-70 17 -8 1 -21 8 -28 15 -8 7 -18 10 -23 7 -5 -4 -9 -1 -9 5 0 6 -4 8 -10 5
-5 -3 -10 -2 -10 3 0 18 -25 19 -60 3z m145 -1091 c3 -6 -1 -7 -9 -4 -18 7
-21 14 -7 14 6 0 13 -4 16 -10z m-208 -336 c-3 -3 -12 -4 -19 -1 -8 3 -5 6 6
6 11 1 17 -2 13 -5z m370 -25 c-9 -6 -15 -14 -12 -19 3 -5 1 -11 -4 -14 -5 -4
-8 0 -7 6 3 21 16 38 29 38 7 0 4 -5 -6 -11z m39 -16 c-10 -10 -19 5 -10 18 6
11 8 11 12 0 2 -7 1 -15 -2 -18z m-191 -52 c10 -17 -12 -21 -25 -6 -10 12 -10
15 3 15 9 0 18 -4 22 -9z m-11 -40 c3 -5 -1 -11 -9 -14 -9 -4 -12 -1 -8 9 6
16 10 17 17 5z m-140 -46 c-4 -8 -11 -12 -16 -9 -6 4 -5 10 3 15 19 12 19 11
13 -6z m30 6 c3 -5 -1 -11 -9 -14 -9 -4 -12 -1 -8 9 6 16 10 17 17 5z"/>
<path d="M40640 23958 c-13 -24 -76 -95 -140 -158 -125 -123 -160 -178 -168
-260 -4 -43 -7 -48 -48 -69 -27 -15 -44 -31 -44 -42 0 -11 -5 -16 -14 -13 -7
3 -28 -7 -45 -22 -29 -24 -31 -28 -16 -44 8 -9 15 -22 15 -28 0 -7 6 -11 13
-9 6 1 11 -5 9 -13 -2 -11 1 -10 12 3 18 23 27 3 14 -33 -7 -18 -5 -27 5 -35
8 -5 23 -29 33 -52 38 -83 1259 -2121 1267 -2116 5 3 13 -1 18 -8 28 -46 12
48 -75 423 -140 614 -485 2110 -492 2133 -3 11 -7 31 -9 45 -7 43 -65 291 -70
300 -2 4 -45 11 -95 14 -49 4 -90 11 -90 15 0 4 -13 8 -28 9 -24 2 -32 -5 -52
-40z m-297 -509 c-4 -48 -19 -93 -31 -95 -7 -1 -8 0 -2 3 5 2 10 30 10 61 0
44 -3 53 -12 44 -7 -7 -17 -12 -22 -12 -6 0 -3 7 7 14 27 21 52 13 50 -15z
m42 -17 c-3 -3 -11 0 -18 7 -9 10 -8 11 6 5 10 -3 15 -9 12 -12z m-16 -52
c-18 -22 -33 -40 -34 -40 -2 0 6 18 17 40 11 22 27 40 35 40 9 0 3 -13 -18
-40z m-132 6 c-3 -7 -1 -18 5 -24 6 -6 7 -16 3 -22 -6 -9 -10 -8 -17 4 -9 16
-3 56 9 56 3 0 3 -6 0 -14z m-37 -21 c7 -8 9 -15 4 -15 -5 0 -2 -5 6 -10 8 -5
10 -10 5 -10 -18 0 -56 31 -50 41 9 13 21 11 35 -6z m90 -18 c0 -17 -38 -53
-46 -44 -7 6 27 56 39 57 4 0 7 -6 7 -13z m14 -55 c-8 -17 -21 -35 -27 -39 -9
-5 -8 -2 0 9 7 8 10 18 6 21 -3 4 2 16 12 27 25 27 28 20 9 -18z"/>
<path d="M40085 23290 c-10 -11 -13 -20 -7 -20 21 0 27 5 23 20 -1 8 6 3 17
-10 11 -14 18 -27 16 -30 -3 -2 -9 2 -13 9 -6 9 -12 4 -22 -18 -16 -37 -33
-42 -19 -6 14 36 -13 33 -39 -4 -27 -37 -26 -41 4 -41 16 0 25 -6 25 -15 0
-18 -5 -19 -29 -3 -15 9 -23 9 -35 -1 -22 -18 -67 -111 -60 -122 3 -5 -1 -9
-9 -9 -16 0 -31 -55 -20 -73 3 -6 1 -7 -5 -3 -13 8 -36 -30 -26 -45 3 -6 -1
-16 -9 -22 -16 -13 -49 -105 -42 -117 8 -13 -6 -40 -17 -34 -6 4 -9 1 -6 -7 3
-8 -2 -20 -9 -27 -8 -8 -11 -23 -7 -34 4 -15 3 -18 -6 -13 -8 5 -11 3 -8 -6 3
-8 10 -13 15 -12 5 1 9 -7 8 -17 -2 -29 -15 -37 -15 -9 -1 23 -1 23 -15 5 -10
-13 -11 -22 -5 -26 6 -4 8 -14 4 -24 -5 -12 -9 -14 -14 -6 -4 7 -18 -16 -34
-56 -15 -37 -34 -77 -42 -88 -8 -11 -14 -36 -14 -56 0 -27 -3 -32 -11 -20 -8
12 -9 12 -7 -5 1 -11 -6 -39 -17 -63 -15 -33 -21 -39 -26 -25 -5 15 -8 13 -24
-11 -13 -20 -20 -51 -22 -95 -2 -47 0 -59 6 -41 l9 25 1 -27 c1 -16 -3 -28 -9
-28 -16 0 -12 -57 5 -64 8 -3 15 -10 15 -16 0 -6 -4 -8 -10 -5 -5 3 -10 2 -10
-4 0 -5 -10 -8 -21 -6 -22 4 -22 4 1 -20 13 -14 19 -25 14 -25 -5 0 -1 -5 9
-11 10 -6 14 -16 10 -22 -3 -7 2 -5 13 4 40 33 69 3 32 -34 -17 -17 -15 -22
55 -130 40 -61 162 -251 272 -421 l198 -309 656 8 c361 4 658 9 660 11 8 7
-1242 2095 -1253 2091 -6 -2 -10 -16 -8 -31 2 -14 -2 -34 -8 -44 -11 -16 -11
-16 -6 1 7 22 -4 77 -15 77 -5 0 -6 -8 -3 -17 5 -15 4 -15 -4 -3 -13 17 -5 33
14 26 7 -3 16 0 20 6 4 7 3 8 -4 4 -7 -4 -12 -3 -12 3 0 6 -8 8 -17 5 -16 -5
-17 -5 -1 5 9 6 15 19 14 28 -2 14 -12 18 -40 16 -33 -1 -35 0 -21 11 20 15
23 59 5 81 -16 20 -23 19 -45 -5z m-55 -139 c0 -6 -4 -13 -10 -16 -5 -3 -10 1
-10 9 0 9 5 16 10 16 6 0 10 -4 10 -9z m37 -27 c-3 -3 -12 -4 -19 -1 -8 3 -5
6 6 6 11 1 17 -2 13 -5z m-70 -56 c-3 -7 -5 -2 -5 12 0 14 2 19 5 13 2 -7 2
-19 0 -25z m183 -17 c0 -6 -4 -13 -10 -16 -5 -3 -10 1 -10 9 0 9 5 16 10 16 6
0 10 -4 10 -9z m7 -53 c-3 -7 -5 -2 -5 12 0 14 2 19 5 13 2 -7 2 -19 0 -25z
m-291 -123 c-14 -15 -26 -23 -26 -18 0 6 7 16 15 23 8 7 15 20 15 28 0 11 3
13 11 5 7 -7 3 -18 -15 -38z m11 -52 c1 -22 -1 -24 -8 -10 -6 9 -7 22 -4 27 9
14 10 13 12 -17z m197 -38 c-4 -8 -8 -15 -10 -15 -2 0 -4 7 -4 15 0 8 4 15 10
15 5 0 7 -7 4 -15z m37 -31 c-5 -21 -9 -30 -10 -19 -1 24 10 67 15 62 3 -2 0
-22 -5 -43z m-303 -84 c-3 -63 -13 -79 -20 -32 -3 15 -9 36 -13 46 -6 13 -5
17 2 13 6 -4 13 2 16 13 10 40 18 19 15 -40z m202 30 c0 -13 -7 -20 -20 -20
-23 0 -26 10 -8 28 18 18 28 15 28 -8z m74 5 c-4 -8 -10 -15 -14 -15 -4 0 -10
7 -14 15 -4 10 1 15 14 15 13 0 18 -5 14 -15z m-53 -52 c-27 -28 -41 -32 -41
-13 0 16 54 60 62 52 6 -6 -3 -22 -21 -39z m-106 -123 c-17 -17 -31 -26 -33
-20 -2 6 7 19 20 30 36 30 45 23 13 -10z m-210 -29 c-3 -11 -1 -22 5 -26 5 -3
10 -14 9 -23 0 -12 -3 -11 -9 6 -14 35 -21 26 -14 -19 6 -37 5 -41 -12 -37
-10 2 -20 12 -23 23 -3 16 -1 17 11 7 12 -10 14 -7 10 17 -2 16 1 38 7 50 15
26 24 27 16 2z m155 -33 c0 -19 -18 -44 -25 -36 -4 3 0 15 7 27 15 24 18 26
18 9z m-46 -43 c5 -22 4 -26 -4 -15 -5 8 -10 24 -10 34 0 26 6 18 14 -19z
m-66 -39 c-13 -14 -28 -12 -28 5 0 5 9 9 20 9 17 0 19 -2 8 -14z m50 -11 c-3
-3 -9 2 -12 12 -6 14 -5 15 5 6 7 -7 10 -15 7 -18z m-30 -30 c-29 -15 -33 -12
-17 14 10 15 16 17 26 9 11 -9 9 -13 -9 -23z m-131 -37 c-3 -8 -6 -5 -6 6 -1
11 2 17 5 13 3 -3 4 -12 1 -19z m108 -18 c-4 -12 -9 -19 -12 -17 -3 3 -2 15 2
27 4 12 9 19 12 17 3 -3 2 -15 -2 -27z m-111 -50 c-6 -5 -24 21 -24 34 0 6 6
1 14 -10 8 -10 12 -21 10 -24z m76 -20 c-6 -11 -13 -20 -15 -20 -3 0 -5 9 -5
20 0 11 7 20 15 20 13 0 14 -4 5 -20z m-154 -17 c-10 -10 -19 5 -10 18 6 11 8
11 12 0 2 -7 1 -15 -2 -18z m133 -33 c0 -10 -3 -8 -9 5 -12 27 -12 43 0 25 5
-8 9 -22 9 -30z m-38 -17 c-9 -16 -10 -14 -11 12 0 21 3 26 11 18 8 -8 8 -16
0 -30z m-8 -83 c-3 -12 -8 -19 -11 -16 -5 6 5 36 12 36 2 0 2 -9 -1 -20z m-69
-5 c-4 -8 -8 -15 -10 -15 -2 0 -4 7 -4 15 0 8 4 15 10 15 5 0 7 -7 4 -15z m40
-20 c7 -34 2 -55 -12 -55 -4 0 -8 20 -9 45 -2 53 12 60 21 10z m-67 3 c-3 -8
-6 -5 -6 6 -1 11 2 17 5 13 3 -3 4 -12 1 -19z m24 -51 c-8 -8 -11 -7 -11 4 0
9 3 19 7 23 4 4 9 2 11 -4 3 -7 -1 -17 -7 -23z m-15 -42 c0 -29 -11 -33 -20
-8 -5 12 4 28 20 33 0 0 0 -11 0 -25z"/>
<path d="M46178 22763 c7 -3 16 -2 19 1 4 3 -2 6 -13 5 -11 0 -14 -3 -6 -6z"/>
<path d="M46140 22751 c0 -10 41 -33 48 -27 3 3 0 6 -7 6 -7 0 -10 4 -7 9 3 5
-3 11 -14 14 -11 3 -20 2 -20 -2z"/>
<path d="M46011 22737 c-8 -10 -7 -14 2 -14 8 0 14 6 14 14 0 7 -1 13 -2 13
-2 0 -8 -6 -14 -13z"/>
<path d="M46066 22728 c3 -4 11 -5 19 -1 21 7 19 12 -4 10 -11 0 -18 -5 -15
-9z"/>
<path d="M46127 22729 c7 -7 15 -10 18 -7 3 3 -2 9 -12 12 -14 6 -15 5 -6 -5z"/>
<path d="M46270 22736 c0 -2 7 -7 16 -10 8 -3 12 -2 9 4 -6 10 -25 14 -25 6z"/>
<path d="M46440 22710 c0 -5 4 -10 9 -10 6 0 13 5 16 10 3 6 -1 10 -9 10 -9 0
-16 -4 -16 -10z"/>
<path d="M46520 22706 c0 -10 6 -13 16 -9 11 4 15 2 12 -7 -2 -7 -14 -14 -26
-15 -41 -3 -35 -15 7 -13 23 1 44 5 47 10 3 4 -2 5 -11 2 -11 -4 -14 -2 -9 9
3 10 -2 20 -15 27 -17 9 -21 8 -21 -4z"/>
<path d="M46476 22692 c-2 -4 4 -9 15 -9 11 -1 17 2 14 8 -7 11 -22 12 -29 1z"/>
<path d="M46320 22613 c0 -9 3 -13 7 -10 3 4 13 1 21 -6 13 -10 14 -9 3 11
-14 26 -31 29 -31 5z"/>
<path d="M44957 22576 c-4 -10 0 -14 13 -13 14 1 16 4 8 14 -13 16 -15 16 -21
-1z"/>
<path d="M45778 22563 c12 -2 32 -2 45 0 12 2 2 4 -23 4 -25 0 -35 -2 -22 -4z"/>
<path d="M46330 22548 c0 -4 4 -8 9 -8 6 0 12 4 15 8 3 5 -1 9 -9 9 -8 0 -15
-4 -15 -9z"/>
<path d="M44846 22532 c-2 -4 -1 -14 4 -22 7 -11 9 -9 7 8 -1 24 -3 26 -11 14z"/>
<path d="M44825 22500 c-4 -6 -11 -7 -17 -4 -6 4 -8 2 -4 -4 9 -15 45 -11 39
5 -6 16 -10 16 -18 3z"/>
<path d="M44716 22468 c5 -8 2 -9 -9 -5 -11 4 -17 1 -17 -9 0 -9 5 -13 13 -9
6 4 5 1 -4 -7 -9 -7 -14 -20 -12 -28 3 -8 -5 -1 -16 15 -19 27 -21 28 -21 8 0
-23 -13 -37 -24 -26 -3 3 -1 12 5 20 9 9 8 13 0 13 -6 0 -11 -4 -11 -10 0 -5
-8 -10 -17 -10 -16 0 -16 -2 -3 -11 12 -8 11 -9 -6 -4 -15 4 -158 -59 -480
-211 -253 -119 -459 -217 -460 -217 0 -1 26 -51 58 -112 33 -60 90 -168 128
-240 38 -71 93 -175 123 -230 l53 -100 105 -6 c112 -6 152 -20 187 -64 l20
-25 375 0 374 0 5 64 c7 81 33 135 78 161 29 16 59 21 170 25 110 4 142 9 175
26 51 27 85 90 92 173 l6 61 -169 -1 -169 -1 -42 -38 c-25 -24 -56 -42 -79
-46 -20 -4 -290 -4 -598 0 l-561 6 -3 165 -2 165 85 0 85 0 0 85 0 85 83 1
c45 0 120 4 167 8 141 13 269 -17 328 -75 13 -13 28 -15 81 -10 37 3 112 6
169 6 101 0 102 0 102 24 0 76 61 163 140 199 43 20 68 22 499 29 249 4 455 8
457 10 2 2 5 20 6 39 l3 34 -150 3 c-82 1 -195 4 -250 6 -55 2 -174 5 -265 6
-177 3 -177 5 -5 16 61 5 99 10 86 12 -19 3 -21 6 -10 13 9 6 0 9 -28 9 -30 0
-43 -4 -43 -13 0 -11 -30 -16 -122 -20 -252 -14 -438 -6 -438 19 0 11 44 14
233 15 127 0 255 4 282 7 28 4 -69 6 -215 4 -241 -2 -380 -14 -380 -33 0 -3
37 -11 83 -16 l82 -10 -76 -2 c-42 0 -110 -4 -152 -7 l-77 -7 0 42 c0 30 -4
41 -16 41 -9 0 -12 -5 -8 -12z"/>
<path d="M46330 22470 c-12 -7 -10 -9 7 -7 12 0 19 5 17 9 -6 10 -6 10 -24 -2z"/>
<path d="M44671 22444 c0 -11 3 -14 6 -6 3 7 2 16 -1 19 -3 4 -6 -2 -5 -13z"/>
<path d="M46240 22445 c0 -8 5 -15 10 -15 6 0 10 7 10 15 0 8 -4 15 -10 15 -5
0 -10 -7 -10 -15z"/>
<path d="M46270 22450 c0 -5 5 -10 10 -10 6 0 10 5 10 10 0 6 -4 10 -10 10 -5
0 -10 -4 -10 -10z"/>
<path d="M46250 22410 c0 -5 7 -7 15 -4 8 4 15 8 15 10 0 2 -7 4 -15 4 -8 0
-15 -4 -15 -10z"/>
<path d="M39528 22058 c-16 -35 -14 -58 6 -58 7 0 12 18 14 45 1 25 0 45 -1
45 -2 0 -10 -15 -19 -32z"/>
<path d="M39469 21948 c-1 -7 -1 -17 0 -22 1 -5 -4 -13 -11 -18 -10 -7 -10
-11 3 -21 18 -13 14 -36 -8 -54 -22 -17 1 -85 25 -76 9 4 20 11 24 17 5 7 8 4
8 -7 0 -11 -9 -21 -20 -24 -16 -4 -18 -8 -9 -19 17 -21 27 -17 34 15 4 18 14
31 27 34 20 6 20 6 -1 -14 -27 -25 -27 -39 0 -39 18 0 20 -5 18 -42 -3 -48
-12 -58 -52 -58 -40 0 -97 -26 -133 -61 -38 -37 -60 -87 -69 -151 -6 -45 -8
-48 -36 -48 -46 0 -160 -48 -197 -83 -18 -17 -41 -49 -52 -72 -21 -44 -41
-168 -29 -186 10 -17 1092 -1 1086 15 -3 7 -105 167 -227 356 -123 190 -234
363 -247 384 -19 29 -27 35 -34 25 -6 -11 -11 -11 -21 -1 -17 17 -33 15 -18
-3 14 -17 3 -20 -20 -5 -13 9 -13 11 0 20 21 13 37 12 43 -2 4 -8 6 -7 6 3 1
19 -46 32 -53 15 -2 -6 -5 -3 -5 6 -1 9 -6 18 -13 20 -8 3 -5 11 9 22 19 17
19 21 6 47 -17 33 -32 46 -34 27z m28 -60 c-6 -4 -16 -4 -21 -1 -6 4 -6 8 2
11 9 3 9 9 1 25 -9 19 -7 18 10 -3 13 -17 16 -27 8 -32z m-20 -105 c-3 -10 -5
-4 -5 12 0 17 2 24 5 18 2 -7 2 -21 0 -30z"/>
<path d="M42628 21493 c-532 -251 -967 -457 -965 -458 2 -3 1201 21 1203 24 1
0 7 15 14 31 7 17 15 30 19 30 3 0 17 18 31 40 l25 40 378 0 378 0 32 34 c36
38 88 56 164 56 l52 0 -23 43 c-34 61 -235 437 -287 535 -24 45 -46 82 -49 82
-3 0 -440 -206 -972 -457z"/>
<path d="M39604 21905 c-10 -25 0 -34 21 -18 15 12 16 14 3 10 -12 -4 -15 -2
-11 9 3 7 2 14 -1 14 -4 0 -9 -7 -12 -15z"/>
<path d="M39500 21858 c0 -6 3 -8 6 -5 4 3 16 2 26 -4 16 -8 19 -8 16 2 -5 16
-48 23 -48 7z"/>
<path d="M44538 21743 c7 -3 16 -2 19 1 4 3 -2 6 -13 5 -11 0 -14 -3 -6 -6z"/>
<path d="M44885 21720 c3 -5 8 -10 11 -10 2 0 4 5 4 10 0 6 -5 10 -11 10 -5 0
-7 -4 -4 -10z"/>
<path d="M43730 21011 c0 -17 61 -60 101 -73 32 -9 66 -9 159 1 65 7 123 10
129 7 19 -12 19 11 -1 42 l-20 32 -184 0 c-104 0 -184 -4 -184 -9z"/>
<path d="M42066 20988 c-225 -4 -411 -10 -414 -12 -6 -6 229 -1029 239 -1042
5 -6 6 -13 3 -16 -2 -3 2 -34 11 -70 l16 -64 67 23 c37 12 79 23 95 23 25 0
27 3 27 43 0 39 2 43 28 45 85 7 188 52 314 139 188 129 245 165 291 181 47
17 47 17 47 62 0 38 6 51 36 83 19 20 38 37 42 38 82 5 96 10 162 56 143 98
135 95 230 88 102 -6 144 5 165 46 18 33 19 65 4 107 -14 39 -27 45 -128 51
l-84 6 -13 53 c-26 100 -59 144 -123 162 -41 11 -414 11 -1015 -2z m601 -394
c-3 -3 -12 -4 -19 -1 -8 3 -5 6 6 6 11 1 17 -2 13 -5z"/>
<path d="M40698 20973 c-280 -2 -508 -6 -508 -8 0 -3 120 -191 266 -418 146
-227 287 -445 313 -484 25 -40 48 -73 51 -73 5 0 642 964 648 981 2 5 -54 8
-130 7 -73 -2 -361 -4 -640 -5z"/>
<path d="M41560 20963 c0 -10 20 -175 45 -368 25 -192 48 -372 51 -400 3 -27
17 -131 30 -230 13 -99 27 -200 29 -224 3 -25 7 -46 8 -47 4 -4 127 52 137 62
10 10 -59 327 -72 332 -4 2 -6 7 -3 12 4 7 -171 800 -191 863 -3 9 -12 17 -20
17 -8 0 -14 -8 -14 -17z m165 -983 c-3 -5 -12 -10 -18 -10 -7 0 -6 4 3 10 19
12 23 12 15 0z"/>
<path d="M39453 20963 c-249 -2 -453 -7 -453 -12 0 -5 11 -52 24 -104 37 -144
37 -144 -53 -202 -42 -27 -80 -48 -84 -47 -5 2 -6 -1 -3 -6 3 -5 -1 -18 -9
-28 -25 -33 -17 -75 23 -126 8 -9 11 -22 6 -29 -5 -8 -3 -10 5 -4 13 7 58 -33
54 -47 -2 -4 3 -5 10 -2 7 2 26 -9 41 -25 16 -17 33 -28 38 -25 4 3 8 1 8 -3
0 -5 -18 -16 -40 -26 -33 -14 -71 -17 -210 -17 l-169 0 -34 -30 c-19 -16 -44
-54 -56 -82 -37 -89 -55 -120 -79 -136 -13 -8 -21 -21 -18 -28 5 -14 -31 -51
-40 -41 -4 3 1 13 10 22 24 24 19 36 -9 23 -14 -6 -25 -15 -25 -20 0 -5 -5 -6
-10 -3 -13 8 -40 -12 -40 -29 0 -18 109 -15 114 4 3 11 4 10 5 -3 0 -10 6 -15
11 -12 6 4 10 -7 10 -24 0 -17 4 -31 8 -31 12 0 30 -57 22 -70 -4 -7 -13 -9
-20 -5 -9 6 -9 3 -1 -13 11 -20 19 -21 191 -20 170 1 230 7 123 13 -138 7
-139 7 -113 14 14 4 40 3 58 -1 35 -10 76 -2 67 12 -3 5 -13 7 -23 4 -9 -2 -6
1 7 8 19 10 25 10 29 0 4 -14 32 -16 32 -2 0 6 -5 10 -12 10 -6 0 -9 3 -6 6 3
3 22 2 42 -2 38 -7 45 -28 10 -30 -10 -1 -28 -2 -39 -3 l-20 -2 20 -8 c11 -5
40 -12 64 -16 l43 -7 -4 41 -4 41 203 0 c174 0 203 -2 203 -15 0 -13 24 -15
159 -15 119 0 160 -3 164 -12 3 -9 10 -8 26 6 11 11 21 15 21 10 0 -22 -60
-44 -117 -44 -32 0 -83 -3 -113 -7 -46 -6 -51 -8 -30 -15 25 -8 25 -8 -2 -4
-15 2 -29 0 -30 -5 -2 -4 -12 -1 -23 8 -20 15 -20 15 3 8 16 -5 22 -2 22 9 0
12 -10 16 -40 16 -22 0 -40 -2 -40 -5 0 -3 12 -17 28 -31 15 -14 21 -23 14
-19 -19 10 -42 -20 -42 -55 l0 -32 50 4 c28 1 50 0 50 -4 0 -4 10 -9 23 -11
12 -3 -3 -4 -33 -2 -30 1 -44 0 -30 -2 14 -3 29 -9 35 -14 12 -12 145 -12 145
0 0 5 -21 7 -47 5 -36 -3 -43 -2 -28 5 17 8 18 10 3 10 -10 1 -18 5 -18 10 0
6 12 6 32 0 18 -5 45 -9 60 -9 29 0 38 -14 16 -23 -7 -3 5 -5 27 -6 33 0 36 2
20 10 -15 7 -13 8 10 3 17 -4 62 -12 100 -19 40 -7 57 -13 40 -14 -37 -2 -52
-11 -52 -33 0 -12 8 -16 31 -13 17 1 21 0 9 -2 -13 -2 -23 -8 -23 -12 0 -4 10
-13 23 -18 21 -11 21 -12 -16 -27 -21 -9 -43 -14 -49 -10 -7 5 -8 2 -3 -6 6
-10 2 -12 -16 -7 -13 4 -39 7 -56 7 -18 0 -33 5 -33 11 0 8 14 10 43 6 23 -3
34 -3 25 0 -23 6 -23 23 -1 23 14 0 15 2 4 13 -11 10 -14 10 -18 0 -3 -7 -19
-13 -36 -12 -31 1 -31 1 -7 9 24 8 24 8 -6 9 -28 1 -31 -2 -32 -29 0 -16 4
-30 9 -30 6 0 4 -7 -5 -15 -18 -18 -54 -22 -111 -11 -38 7 -39 6 -16 -7 24
-14 24 -15 4 -25 -22 -12 -93 -5 -93 9 0 5 9 9 19 9 11 0 23 5 26 10 4 6 -10
10 -34 10 -34 0 -41 -3 -41 -20 0 -11 4 -20 9 -20 5 0 13 -10 16 -21 5 -16 9
-18 15 -9 4 7 13 11 19 9 7 -3 -3 -15 -21 -29 -18 -13 -27 -16 -19 -7 18 23
-2 22 -22 -1 -18 -20 -23 -37 -8 -28 5 3 8 -5 7 -17 -2 -37 -36 -23 -36 14 0
16 5 29 10 29 6 0 10 5 10 10 0 6 -5 10 -11 10 -20 0 -38 -27 -44 -66 -5 -30
-4 -35 4 -24 10 13 13 13 26 -4 12 -16 12 -23 0 -53 -8 -18 -12 -40 -9 -48 7
-17 -21 -21 -31 -5 -3 6 -18 10 -33 11 l-27 1 29 8 c17 5 40 21 53 36 27 32
28 34 9 34 -8 0 -18 -10 -22 -22 -10 -34 -22 -38 -89 -31 -33 3 -58 3 -54 0 3
-4 19 -7 36 -9 43 -3 31 -25 -20 -37 -23 -5 -33 -10 -22 -11 l20 -1 -20 -9
c-11 -5 -36 -9 -56 -9 -33 -1 -37 2 -42 29 -5 21 -12 30 -27 30 -11 0 -20 5
-20 10 0 6 -12 10 -26 10 -19 0 -25 -4 -20 -15 7 -19 -7 -19 -44 0 -21 11 -27
20 -23 36 4 12 0 25 -8 30 -12 8 -12 11 1 19 11 7 -5 9 -53 6 -37 -2 -71 -7
-75 -11 -4 -4 9 -4 28 -1 26 5 31 4 20 -3 -12 -9 -11 -11 7 -11 30 0 81 -21
65 -27 -7 -3 -18 0 -25 5 -18 14 -154 35 -188 28 -22 -4 -29 -2 -29 9 0 8 -9
15 -20 15 -11 0 -20 -6 -20 -12 0 -9 -4 -8 -11 2 -7 11 -9 5 -7 -25 3 -40 3
-40 -37 -46 -34 -5 -37 -7 -17 -14 12 -4 22 -12 22 -17 0 -6 -6 -8 -14 -5 -14
6 -54 -29 -48 -41 2 -4 -2 -8 -8 -10 -16 -6 -8 30 10 45 13 11 13 14 1 22 -11
7 -11 9 0 14 8 3 4 6 -8 6 -28 1 -28 -2 -5 -25 16 -17 16 -17 -6 -12 -17 5
-22 3 -19 -7 3 -7 0 -18 -6 -25 -9 -10 -9 -11 2 -5 9 5 12 3 9 -6 -5 -14 65
-138 84 -150 5 -3 10 -12 12 -20 3 -20 27 -63 39 -71 6 -4 24 -5 39 -3 17 2
26 0 22 -6 -3 -6 -12 -8 -19 -5 -7 2 -16 -2 -19 -11 -5 -11 -2 -14 10 -9 15 6
15 4 3 -11 -12 -15 -12 -16 3 -10 10 3 20 2 23 -4 4 -5 3 -8 -2 -7 -4 2 -9 0
-10 -4 -6 -18 -2 -28 13 -28 9 0 12 5 8 13 -5 8 -2 8 9 -2 18 -14 23 -26 8
-16 -5 3 -13 0 -17 -6 -5 -8 -3 -9 6 -4 8 5 11 3 8 -6 -3 -8 -1 -22 4 -31 11
-22 43 -24 34 -3 -4 13 -2 14 14 5 11 -6 20 -13 20 -16 0 -3 -5 -2 -12 2 -7 5
-9 2 -5 -8 4 -12 0 -15 -16 -12 -12 2 -16 2 -9 -2 6 -3 10 -10 6 -15 -3 -5 0
-9 6 -9 6 0 8 -4 5 -10 -3 -5 1 -10 10 -10 9 0 23 -7 31 -15 9 -8 11 -15 5
-15 -20 0 -11 -32 26 -94 52 -88 52 -87 77 -75 21 10 21 10 1 -6 -16 -12 -17
-19 -8 -33 6 -9 16 -16 22 -15 6 2 8 -4 4 -13 -4 -10 5 -25 23 -41 16 -13 23
-22 16 -18 -10 5 -10 1 0 -20 8 -18 17 -25 30 -21 15 3 17 2 8 -9 -12 -15 -1
-46 27 -73 7 -7 13 -20 13 -27 0 -7 6 -20 13 -27 6 -7 21 -30 31 -50 10 -21
23 -35 27 -32 5 3 6 -2 3 -10 -3 -9 0 -18 8 -21 8 -3 15 -11 15 -18 0 -7 11
-31 26 -54 27 -43 38 -47 145 -58 24 -2 58 -7 75 -10 l32 -7 -39 29 -38 28 73
22 c40 12 91 25 113 28 35 6 46 13 74 56 18 27 30 55 26 61 -4 6 -3 8 4 4 10
-6 59 62 54 77 -1 4 2 7 7 7 5 0 32 36 60 81 29 45 60 93 69 107 14 21 14 25
2 18 -9 -4 -8 -2 2 7 10 8 14 18 10 22 -4 5 -2 5 4 2 15 -9 48 39 34 48 -14 8
-3 25 13 20 7 -2 22 11 34 30 14 22 18 35 10 35 -7 0 3 13 22 29 23 19 31 32
26 41 -5 8 -4 11 3 6 6 -3 16 7 24 24 7 16 16 30 20 30 5 0 8 6 8 13 1 6 14
28 30 47 17 19 30 43 30 53 0 11 4 15 11 11 9 -5 10 2 6 22 -3 16 -4 23 -1 17
8 -19 27 -16 20 3 -3 8 -2 13 3 10 9 -6 61 65 61 83 0 5 7 14 16 21 18 15 39
52 27 48 -4 -2 -9 1 -10 7 -2 5 4 10 13 10 9 0 26 18 38 40 11 22 24 41 29 43
4 2 7 10 7 18 0 8 4 14 9 14 13 0 77 102 73 117 -2 8 2 12 8 11 6 -2 18 11 28
27 9 17 19 32 22 35 15 14 52 73 42 66 -7 -4 -12 -2 -12 3 0 6 6 11 13 11 14
0 140 187 140 207 0 7 3 11 5 8 3 -3 49 61 103 141 l97 146 -191 296 c-104
164 -254 396 -331 517 l-142 220 -109 0 c-61 0 -314 -1 -562 -2z m-1081 -1025
c-7 -7 -12 -8 -12 -2 0 14 12 26 19 19 2 -3 -1 -11 -7 -17z m1211 -115 c-13
-2 -33 -2 -45 0 -13 2 -3 4 22 4 25 0 35 -2 23 -4z m-1029 -29 c9 -3 13 -11
10 -16 -4 -6 -10 -5 -15 3 -8 12 -11 12 -18 -1 -6 -8 -13 -11 -18 -7 -4 5 -1
12 7 17 18 12 15 11 34 4z m63 -20 c-3 -3 -12 -4 -19 -1 -8 3 -5 6 6 6 11 1
17 -2 13 -5z m1001 -21 c-10 -2 -28 -2 -40 0 -13 2 -5 4 17 4 22 1 32 -1 23
-4z m-185 -90 c-7 -2 -21 -2 -30 0 -10 3 -4 5 12 5 17 0 24 -2 18 -5z m1121
-48 c-7 -16 -24 -21 -24 -6 0 8 7 13 27 20 1 1 0 -6 -3 -14z m-665 -63 c-6 -3
-6 -8 1 -17 8 -10 6 -13 -12 -12 -13 0 -30 -2 -38 -5 -8 -2 -12 -3 -7 -1 19
11 4 32 -25 36 -23 3 -16 4 20 5 34 1 52 6 52 15 0 8 4 7 10 -3 6 -10 6 -16
-1 -18z m581 -2 c0 -9 -31 -30 -44 -30 -3 0 2 9 11 20 19 21 33 26 33 10z m20
-24 c0 -2 -7 -7 -16 -10 -8 -3 -12 -2 -9 4 6 10 25 14 25 6z m-67 -46 c3 -11
1 -18 -4 -14 -5 3 -9 0 -9 -7 0 -8 -7 -5 -20 6 -17 15 -22 16 -37 4 -17 -12
-17 -12 0 6 15 17 20 18 37 7 17 -10 20 -10 20 3 0 21 7 19 13 -5z m31 -25
c-4 -8 -8 -15 -10 -15 -2 0 -4 7 -4 15 0 8 4 15 10 15 5 0 7 -7 4 -15z m-854
-45 c0 -5 -12 -10 -27 -9 -25 0 -26 1 -8 9 27 12 35 12 35 0z m424 -29 c3 -5
-1 -11 -9 -15 -9 -3 -15 0 -15 9 0 16 16 20 24 6z m-617 -97 c-3 -3 -12 -4
-19 -1 -8 3 -5 6 6 6 11 1 17 -2 13 -5z m-797 -23 c0 -13 -29 -35 -37 -28 -7
8 15 37 28 37 5 0 9 -4 9 -9z m1150 -91 c0 -5 -8 -10 -17 -10 -15 0 -16 2 -3
10 19 12 20 12 20 0z m-770 -16 c0 -2 -7 -4 -15 -4 -8 0 -15 4 -15 10 0 5 7 7
15 4 8 -4 15 -8 15 -10z m235 -4 c4 -6 -7 -10 -27 -9 -27 0 -30 2 -13 9 27 12
33 12 40 0z m539 -42 c-9 -14 -22 -9 -27 11 -4 17 -2 18 13 8 10 -6 16 -15 14
-19z m42 -39 c13 -22 -12 -30 -31 -9 -18 19 -18 20 3 20 11 0 24 -5 28 -11z
m31 -31 c-3 -7 -5 -2 -5 12 0 14 2 19 5 13 2 -7 2 -19 0 -25z m3 -48 c0 -5 -2
-10 -4 -10 -3 0 -8 5 -11 10 -3 6 -1 10 4 10 6 0 11 -4 11 -10z m-1073 -16
c-3 -3 -12 -4 -19 -1 -8 3 -5 6 6 6 11 1 17 -2 13 -5z m-174 -11 c-7 -2 -19
-2 -25 0 -7 3 -2 5 12 5 14 0 19 -2 13 -5z m1317 -47 c9 -15 3 -12 -19 8 -17
17 -31 31 -31 33 0 9 39 -23 50 -41z m55 -46 c3 -5 2 -10 -4 -10 -5 0 -13 5
-16 10 -3 6 -2 10 4 10 5 0 13 -4 16 -10z m55 -24 c0 -9 -30 -14 -35 -6 -4 6
3 10 14 10 12 0 21 -2 21 -4z m-1125 -36 c3 -5 1 -10 -4 -10 -6 0 -11 5 -11
10 0 6 2 10 4 10 3 0 8 -4 11 -10z m1119 -6 c3 -8 2 -12 -4 -9 -6 3 -10 10
-10 16 0 14 7 11 14 -7z m-1313 -24 c6 0 7 5 3 12 -4 6 -3 8 4 4 12 -7 12 -46
0 -46 -4 0 -8 5 -8 10 0 6 -4 10 -10 10 -5 0 -9 -3 -9 -7 3 -20 -2 -46 -7 -40
-4 3 -3 23 1 44 4 21 10 32 12 26 3 -7 9 -13 14 -13z m1285 -27 c-2 -9 -10
-17 -19 -19 -21 -3 -21 0 -1 20 20 20 23 20 20 -1z m-1146 -14 c0 -14 -26 -39
-39 -39 -6 0 -11 5 -11 10 0 6 7 10 15 10 8 0 15 9 15 21 0 11 5 17 10 14 6
-3 10 -11 10 -16z m1026 -121 c5 -7 3 -8 -6 -3 -10 6 -12 4 -6 -11 5 -14 4
-16 -5 -7 -6 6 -8 16 -5 22 9 14 13 14 22 -1z m-1079 -29 c3 -19 2 -19 -13 -5
-8 9 -12 21 -9 27 9 13 18 4 22 -22z m1063 -44 c0 -2 -10 -9 -22 -15 -22 -11
-22 -10 -4 4 21 17 26 19 26 11z m-120 -160 c7 -9 8 -15 2 -15 -5 0 -12 7 -16
15 -3 8 -4 15 -2 15 2 0 9 -7 16 -15z m-806 -21 c3 -8 2 -12 -4 -9 -6 3 -10
10 -10 16 0 14 7 11 14 -7z"/>
<path d="M38595 20950 c-3 -5 -1 -10 4 -10 6 0 11 5 11 10 0 6 -2 10 -4 10 -3
0 -8 -4 -11 -10z"/>
<path d="M41182 20430 c-177 -269 -322 -494 -322 -500 0 -13 99 -160 115 -172
7 -5 7 -8 0 -8 -5 0 -1 -7 10 -16 11 -8 18 -18 15 -21 -3 -3 3 -7 13 -9 11 -1
22 -6 25 -10 4 -4 -1 -4 -10 -1 -24 8 -23 -4 2 -31 11 -12 20 -25 20 -29 0 -8
68 -113 79 -123 3 -3 16 -23 28 -45 12 -22 27 -39 32 -38 6 2 10 0 9 -5 -4
-16 14 -52 26 -52 8 0 21 10 30 23 9 12 14 15 9 7 -12 -24 68 38 127 100 30
32 69 80 85 108 l30 50 70 6 c98 7 97 7 91 30 -3 12 -10 69 -17 129 -7 59 -16
107 -20 107 -4 0 -5 8 -3 18 5 16 -112 961 -119 968 -1 2 -148 -217 -325 -486z
m175 -416 c-3 -3 -12 -4 -19 -1 -8 3 -5 6 6 6 11 1 17 -2 13 -5z m-307 -154
c-12 -8 -12 -10 -1 -10 8 0 12 -2 9 -5 -3 -3 -13 -2 -22 1 -14 5 -15 9 -4 15
7 5 18 9 23 9 6 0 3 -5 -5 -10z m-13 -134 c0 -8 -6 -12 -15 -9 -11 5 -11 7 0
14 7 5 13 9 14 9 0 0 1 -6 1 -14z m610 -18 c2 -17 0 -19 -7 -8 -5 8 -6 18 -4
22 8 12 10 10 11 -14z m-530 -53 c2 -20 2 -20 -13 -1 -8 11 -14 14 -14 8 0
-14 -36 -16 -44 -3 -4 5 4 7 16 4 17 -3 19 -2 9 5 -10 7 -6 9 16 9 22 -1 29
-7 30 -22z"/>
<path d="M38600 20900 c8 -5 20 -10 25 -10 6 0 3 5 -5 10 -8 5 -19 10 -25 10
-5 0 -3 -5 5 -10z"/>
<path d="M40711 19715 c-57 -87 -99 -160 -95 -167 4 -7 3 -8 -4 -4 -14 8 -36
-30 -26 -46 4 -6 3 -8 -3 -5 -10 6 -73 -72 -73 -91 0 -6 -4 -12 -8 -14 -18 -7
-111 -157 -102 -163 6 -3 10 -12 9 -18 0 -9 -2 -9 -6 1 -2 6 -9 12 -15 12 -6
0 -8 -7 -4 -15 3 -8 2 -14 -2 -14 -19 3 -25 -2 -12 -11 13 -8 13 -10 -2 -10
-19 0 -41 -33 -30 -45 4 -5 2 -6 -3 -2 -6 3 -17 -3 -24 -15 -10 -16 -10 -19 1
-13 7 3 4 -2 -7 -12 -39 -35 -165 -231 -152 -236 8 -4 6 -6 -4 -6 -13 -1 -79
-90 -79 -108 0 -3 -11 -19 -25 -35 -14 -16 -22 -35 -18 -41 3 -7 3 -9 -2 -5
-11 10 -38 -29 -30 -42 4 -6 3 -10 -2 -9 -22 4 -25 -3 -7 -17 13 -11 15 -17 6
-20 -6 -3 -9 -11 -5 -17 4 -7 -1 -6 -10 2 -9 7 -14 18 -10 24 3 6 1 7 -5 3 -7
-4 -12 -14 -12 -22 0 -8 -4 -14 -8 -14 -13 0 -43 -59 -36 -72 4 -6 3 -8 -3 -5
-6 4 -16 0 -23 -8 -7 -8 -9 -15 -4 -15 5 0 4 -4 -3 -8 -15 -9 -93 -129 -93
-142 0 -6 -4 -10 -10 -10 -5 0 -10 -6 -10 -14 0 -8 -4 -16 -8 -18 -12 -4 -72
-95 -72 -107 0 -6 -5 -11 -11 -11 -5 0 -7 -4 -4 -10 3 -5 2 -10 -3 -10 -9 0
-62 -73 -62 -85 0 -7 45 -7 52 0 13 13 211 19 593 17 l410 -3 45 86 c35 67 49
85 66 85 12 0 25 6 27 13 4 10 6 10 6 0 1 -18 63 -17 106 1 18 8 41 26 50 39
19 30 47 44 38 20 -5 -13 -2 -13 23 3 16 10 39 26 50 36 12 11 52 30 88 42 37
13 61 26 54 29 -7 3 13 6 45 6 31 1 57 6 57 11 0 10 -84 74 -98 76 -4 0 -28
10 -54 22 -26 11 -55 20 -65 20 -10 0 -27 3 -37 7 -14 6 -17 5 -12 -3 5 -8 -2
-12 -21 -11 -24 0 -25 1 -8 8 15 7 6 10 -37 16 -31 4 -62 4 -69 0 -8 -5 -10
-4 -5 3 7 12 -3 14 -87 17 -45 2 -51 19 -12 34 21 7 33 17 29 23 -5 7 -2 9 8
5 20 -7 91 40 82 55 -4 6 -3 8 4 4 6 -3 17 1 24 9 7 9 25 29 40 46 31 33 63
89 51 89 -5 0 0 7 11 15 10 7 15 18 11 24 -3 6 -1 11 4 11 14 0 14 23 0 71 -7
21 -16 36 -22 32 -6 -4 -8 2 -5 15 7 24 -25 68 -41 57 -6 -3 -8 0 -5 9 8 22
-29 29 -112 21 -90 -8 -94 -3 -69 90 l18 64 56 11 c132 27 271 74 271 92 0 16
-112 188 -123 188 -4 0 -6 3 -4 8 3 4 -6 23 -19 42 -13 19 -24 30 -24 24 0 -5
6 -19 14 -30 10 -13 11 -25 5 -35 -6 -10 -9 -10 -10 -1 -1 6 -3 17 -4 22 -1 6
-3 15 -4 21 0 6 -8 9 -16 5 -12 -4 -13 -2 -3 14 10 16 9 26 -6 55 -12 22 -25
34 -33 31 -8 -3 -11 -1 -8 4 3 6 0 10 -7 10 -9 0 -10 2 -1 8 8 5 8 11 -1 24
-7 10 -15 16 -18 13 -2 -3 -5 1 -5 9 0 17 -62 116 -73 116 -4 0 -53 -70 -109
-155z m243 -74 c16 -18 17 -24 6 -34 -10 -9 -11 -9 -6 1 4 6 3 12 -3 12 -5 0
-12 -6 -15 -12 -4 -7 -5 -4 -3 7 5 27 -15 45 -36 33 -20 -11 -22 -3 -4 16 14
16 33 9 61 -23z m-255 -14 c-2 -1 -13 -9 -24 -17 -19 -14 -19 -14 -6 3 7 9 18
17 24 17 6 0 8 -1 6 -3z m208 -13 c2 -6 -3 -11 -10 -11 -8 0 -14 6 -14 14 0
15 19 12 24 -3z m167 -152 c3 -5 -1 -9 -9 -9 -8 0 -12 4 -9 9 3 4 7 8 9 8 2 0
6 -4 9 -8z m-384 -243 c11 -8 12 -12 3 -16 -8 -2 -13 -22 -13 -44 0 -32 -3
-39 -20 -39 -14 0 -20 -7 -20 -24 0 -15 -7 -26 -20 -29 -15 -4 -20 -14 -20
-36 0 -24 4 -31 20 -31 13 0 20 -7 20 -20 0 -13 -7 -20 -20 -20 -13 0 -20 7
-20 20 0 13 -7 20 -20 20 -25 0 -27 34 -2 52 9 7 23 25 31 41 8 15 18 27 23
27 4 0 8 8 8 18 0 9 7 25 14 35 8 10 12 27 9 37 -6 22 4 25 27 9z m253 -146
c-13 -2 -33 -2 -45 0 -13 2 -3 4 22 4 25 0 35 -2 23 -4z m-85 -30 c-10 -2 -26
-2 -35 0 -10 3 -2 5 17 5 19 0 27 -2 18 -5z m-274 -128 c-4 -9 0 -15 10 -15 9
0 16 -4 16 -10 0 -5 -7 -10 -15 -10 -8 0 -15 -5 -15 -11 0 -5 -5 -7 -11 -3 -8
5 -8 9 1 14 9 5 9 9 1 14 -16 10 -13 36 4 36 9 0 12 -6 9 -15z m56 -82 c0 -13
-3 -13 -15 -3 -8 7 -15 19 -15 27 0 13 3 13 15 3 8 -7 15 -19 15 -27z m-400
-43 c0 -5 -7 -10 -15 -10 -8 0 -15 5 -15 10 0 6 7 10 15 10 8 0 15 -4 15 -10z
m430 -30 c0 -22 -4 -40 -10 -40 -5 0 -10 18 -10 40 0 22 5 40 10 40 6 0 10
-18 10 -40z m350 30 c0 -4 -7 -7 -15 -6 -23 3 -26 12 -5 13 11 1 20 -2 20 -7z
m-790 -61 c11 -6 8 -8 -11 -9 -15 0 -33 7 -40 16 -12 15 -11 16 11 9 14 -4 32
-11 40 -16z m190 -33 c0 -3 -4 -8 -10 -11 -5 -3 -10 -1 -10 4 0 6 5 11 10 11
6 0 10 -2 10 -4z m220 -10 c0 -10 -21 -16 -76 -21 -41 -4 -78 -4 -81 -1 -4 3
-14 -1 -24 -10 -10 -9 -26 -14 -36 -12 -36 7 35 42 81 39 23 -1 53 3 67 8 36
14 69 13 69 -3z m-563 -13 c0 -9 -4 -10 -14 -2 -7 6 -13 12 -13 14 0 1 6 2 13
2 8 0 14 -6 14 -14z m277 -2 c4 -5 -3 -7 -14 -4 -23 6 -26 13 -6 13 8 0 17 -4
20 -9z m286 -27 c0 -2 -18 -4 -40 -4 -22 0 -40 3 -40 8 0 4 18 6 40 4 22 -2
40 -6 40 -8z m100 -14 c0 -5 -4 -10 -10 -10 -5 0 -10 5 -10 10 0 6 5 10 10 10
6 0 10 -4 10 -10z m64 -15 c-4 -8 -9 -15 -13 -15 -4 0 -8 7 -8 15 0 8 6 15 13
15 8 0 11 -6 8 -15z m-838 -94 c-7 -11 18 -33 27 -24 4 3 7 1 7 -5 0 -16 -16
-15 -33 3 -8 8 -18 11 -21 7 -4 -3 -4 1 0 11 3 9 10 17 16 17 5 0 7 -4 4 -9z
m934 -31 c0 -5 -4 -10 -10 -10 -5 0 -10 5 -10 10 0 6 5 10 10 10 6 0 10 -4 10
-10z m87 -6 c-3 -3 -12 -4 -19 -1 -8 3 -5 6 6 6 11 1 17 -2 13 -5z m80 -110
c-3 -3 -12 -4 -19 -1 -8 3 -5 6 6 6 11 1 17 -2 13 -5z m-692 -64 c3 -5 -1 -10
-9 -10 -8 0 -18 5 -21 10 -3 6 1 10 9 10 8 0 18 -4 21 -10z m225 -10 c-20 -13
-40 -13 -40 0 0 6 12 10 28 10 21 0 24 -2 12 -10z m-127 -17 c-7 -2 -19 -2
-25 0 -7 3 -2 5 12 5 14 0 19 -2 13 -5z m164 -29 c-3 -3 -12 -4 -19 -1 -8 3
-5 6 6 6 11 1 17 -2 13 -5z m270 -20 c-3 -3 -12 -4 -19 -1 -8 3 -5 6 6 6 11 1
17 -2 13 -5z"/>
<path d="M38312 19820 c0 -14 2 -19 5 -12 2 6 2 18 0 25 -3 6 -5 1 -5 -13z"/>
<path d="M39458 19793 c12 -2 32 -2 45 0 12 2 2 4 -23 4 -25 0 -35 -2 -22 -4z"/>
<path d="M39618 19783 c12 -2 32 -2 45 0 12 2 2 4 -23 4 -25 0 -35 -2 -22 -4z"/>
<path d="M38296 19744 c-11 -28 -6 -39 9 -20 8 11 15 23 15 28 0 14 -18 9 -24
-8z"/>
<path d="M38208 19658 c-16 -5 -28 -14 -28 -19 0 -5 -12 -10 -27 -10 -18 -1
-9 -5 25 -12 59 -11 65 -9 60 26 -3 21 -6 23 -30 15z"/>
<path d="M38140 19603 c1 -23 23 -37 59 -38 39 -1 52 7 32 19 -5 4 -12 0 -14
-6 -3 -7 -6 -4 -6 7 -1 15 -4 16 -13 7 -17 -17 -31 -15 -24 3 4 10 -1 15 -14
15 -11 0 -20 -3 -20 -7z"/>
<path d="M38035 19550 c-10 -11 -16 -21 -14 -21 21 -7 49 -4 49 5 0 6 4 5 9
-3 5 -7 7 -21 6 -30 -1 -9 0 -10 2 -3 3 6 9 12 14 12 6 0 7 -5 3 -12 -5 -7 -3
-8 5 -3 17 10 -28 58 -47 50 -10 -3 -12 0 -8 10 7 20 3 19 -19 -5z"/>
<path d="M38178 19534 c13 -24 42 -50 42 -38 0 5 4 3 9 -5 6 -10 9 -3 9 22 0
29 -4 35 -19 34 -10 -1 -19 -5 -19 -10 0 -5 -7 -3 -17 4 -15 13 -15 12 -5 -7z"/>
<path d="M39725 19491 c3 -5 19 -9 35 -9 38 1 28 18 -11 18 -17 0 -28 -4 -24
-9z"/>
<path d="M37962 19478 c-7 -7 -12 -16 -12 -22 0 -5 -7 -18 -17 -28 -9 -10 -11
-18 -5 -18 6 0 15 8 21 17 5 10 13 15 16 11 4 -4 -4 -17 -17 -30 -14 -13 -28
-32 -31 -43 l-7 -20 16 20 c11 14 18 16 21 8 3 -7 16 -13 29 -13 20 0 24 5 24
31 0 16 -4 28 -9 24 -5 -3 -12 -1 -15 4 -4 5 2 12 11 14 17 4 17 5 1 6 -19 1
-24 16 -9 25 5 4 12 0 14 -6 4 -8 6 -9 6 -2 2 20 -24 35 -37 22z m23 -88 c-3
-5 -11 -10 -16 -10 -6 0 -7 5 -4 10 3 6 11 10 16 10 6 0 7 -4 4 -10z"/>
<path d="M38105 19477 c-34 -20 -26 -33 20 -33 24 1 41 5 38 9 -3 5 -16 7 -29
4 -14 -2 -27 0 -31 6 -3 5 -1 7 5 3 6 -3 14 -1 17 5 11 16 2 19 -20 6z"/>
<path d="M38169 19428 c-5 -13 -6 -88 -1 -88 4 0 7 20 8 45 0 38 -2 54 -7 43z"/>
<path d="M38250 19423 c0 -5 14 -20 32 -35 28 -23 31 -29 18 -38 -11 -7 -11
-10 -2 -10 7 0 11 -4 8 -8 -8 -13 60 -75 73 -68 6 4 11 2 11 -5 0 -7 -10 -9
-26 -6 l-25 4 21 -22 c11 -12 18 -24 14 -27 -3 -3 -1 -9 4 -12 12 -7 10 13 -2
33 -7 11 -5 13 6 9 12 -5 15 1 15 25 -1 18 -6 35 -12 39 -7 5 -6 8 1 8 6 0 11
10 10 23 -1 23 -34 32 -48 12 -5 -6 -8 -5 -8 3 0 7 -4 11 -8 8 -4 -2 -13 4
-20 15 -7 11 -8 19 -2 19 5 0 7 7 4 15 -8 21 -25 19 -18 -2 4 -14 2 -14 -8 2
-13 20 -38 31 -38 18z m104 -87 c16 -1 21 -8 23 -33 3 -40 -6 -41 -37 -8 -24
26 -37 60 -18 49 6 -4 20 -7 32 -8z"/>
<path d="M38340 19305 c13 -14 26 -25 28 -25 3 0 -5 11 -18 25 -13 14 -26 25
-28 25 -3 0 5 -11 18 -25z"/>
<path d="M38355 19320 c3 -5 8 -10 11 -10 2 0 4 5 4 10 0 6 -5 10 -11 10 -5 0
-7 -4 -4 -10z"/>
<path d="M39440 19410 c0 -6 7 -10 15 -10 8 0 15 2 15 4 0 2 -7 6 -15 10 -8 3
-15 1 -15 -4z"/>
<path d="M38193 19350 c3 -11 0 -20 -5 -20 -6 0 -5 -6 2 -15 10 -12 8 -16 -11
-24 -17 -7 -19 -10 -7 -10 9 -1 20 4 24 10 4 8 9 7 15 -2 7 -12 9 -12 9 0 0
11 3 11 15 1 8 -7 12 -16 9 -21 -3 -5 2 -6 10 -3 13 5 11 10 -10 26 -20 16
-23 23 -12 29 10 7 8 9 -6 9 -12 0 -16 -5 -12 -16 3 -8 2 -13 -3 -10 -5 3 -8
18 -8 33 0 16 2 22 4 16 3 -7 9 -13 15 -13 6 0 6 6 -2 15 -18 21 -33 19 -27
-5z"/>
<path d="M37870 19320 c-17 -33 -18 -40 -6 -40 10 0 13 6 9 18 -5 14 -3 13 10
-3 15 -18 16 -18 17 -2 0 9 5 17 10 17 6 0 10 5 10 11 0 6 -6 9 -14 6 -10 -4
-12 0 -9 14 9 32 -5 21 -27 -21z"/>
<path d="M38247 19224 c-3 -3 -4 -11 -1 -17 2 -7 -7 -13 -23 -14 -56 -3 -169
-14 -192 -19 -20 -4 -22 -7 -10 -15 11 -7 10 -9 -6 -10 -11 0 -14 -3 -7 -6 6
-2 12 -11 12 -19 0 -9 -4 -12 -10 -9 -6 4 -10 -10 -10 -34 0 -21 -5 -41 -12
-43 -8 -3 -7 -21 4 -67 9 -35 14 -70 11 -77 -3 -9 -20 -14 -44 -14 -39 0 -39
0 -39 -40 l0 -40 -40 0 -40 0 0 -40 0 -40 -40 0 c-22 0 -40 -4 -40 -10 0 -5
-18 -10 -39 -10 -37 0 -40 -2 -43 -32 -3 -30 -6 -33 -31 -30 -26 3 -28 1 -22
-20 8 -27 55 -98 65 -98 3 0 14 -16 23 -35 16 -33 31 -44 40 -27 2 4 2 1 0 -7
-2 -7 8 -25 22 -38 20 -21 27 -23 40 -13 10 9 15 9 15 1 0 -6 -4 -11 -10 -11
-21 0 -8 -17 40 -54 42 -32 55 -37 82 -31 29 5 31 4 16 -8 -16 -13 -16 -15 7
-35 l24 -21 4 27 c4 24 4 24 6 -6 1 -29 3 -32 26 -26 20 5 25 2 25 -12 0 -16
-2 -17 -10 -4 -5 8 -10 11 -10 5 1 -10 29 -52 31 -44 5 30 8 42 13 47 7 6 2
-19 -9 -55 l-7 -22 -17 21 c-18 21 -18 21 -41 -18 -13 -21 -29 -42 -34 -46
-16 -12 13 -27 54 -30 19 -1 55 -1 79 -1 28 1 39 -2 30 -8 -10 -6 -8 -8 8 -6
12 0 20 4 17 8 -2 4 5 5 16 2 11 -3 20 -9 20 -13 0 -5 15 -7 33 -6 17 0 31 6
30 12 -2 12 33 12 44 -1 5 -4 3 -5 -4 -1 -6 3 -14 2 -17 -3 -11 -17 26 -22 38
-5 11 14 13 14 27 -3 13 -17 13 -17 -5 -3 -17 13 -19 13 -14 0 2 -8 17 -16 33
-17 15 -1 34 -4 42 -7 8 -3 23 -1 34 4 12 7 19 7 19 1 0 -17 29 0 36 21 3 11
8 17 11 14 3 -3 -2 -16 -10 -30 -16 -24 -16 -24 15 -22 18 1 34 8 36 14 2 7
-5 10 -17 7 -23 -4 -26 2 -11 25 8 13 10 12 10 -2 0 -10 6 -17 13 -15 7 1 11
-7 10 -19 -2 -20 5 -22 102 -34 57 -6 109 -8 116 -4 7 4 9 3 6 -3 -7 -11 98
-27 175 -28 20 0 34 -3 32 -6 -4 -7 77 -19 84 -13 8 5 -50 94 -58 89 -5 -3
-12 0 -16 6 -4 8 -3 9 4 5 16 -10 15 -1 -3 34 -9 17 -20 30 -26 30 -6 0 -8 4
-5 9 3 4 -1 17 -9 27 -13 18 -14 18 -8 -3 3 -13 1 -23 -4 -23 -5 0 -8 12 -8
28 2 36 -26 86 -38 69 -5 -7 -6 -4 -2 10 3 12 1 24 -4 27 -5 4 -20 26 -32 51
-12 24 -26 42 -31 39 -5 -3 -8 -2 -7 3 4 24 -3 34 -23 31 -23 -3 -25 3 -13 34
4 10 -1 24 -12 36 -10 10 -19 25 -21 32 -7 30 -55 100 -64 93 -7 -3 -8 -1 -4
5 13 22 -6 36 -21 16 -14 -19 -14 -19 -11 1 2 11 8 23 13 27 6 5 5 8 -2 8 -7
0 -13 7 -13 16 0 11 -6 14 -22 10 -13 -3 -17 -3 -10 0 6 3 12 10 12 15 0 6 -6
7 -12 3 -8 -5 -7 0 2 11 12 15 12 17 1 10 -11 -6 -13 -4 -8 9 5 14 3 16 -12
11 -11 -3 -24 1 -32 12 -8 9 -9 14 -3 10 7 -4 15 0 18 8 3 9 -1 18 -9 21 -8 4
-13 10 -10 14 3 4 -1 13 -8 19 -10 8 -14 7 -14 -4 0 -8 4 -12 9 -9 4 3 5 -2 2
-10 -5 -12 -9 -13 -19 -3 -9 9 -10 14 -1 19 6 4 7 8 2 8 -5 0 -3 6 3 14 9 11
6 14 -14 14 -19 0 -23 -4 -15 -13 7 -8 6 -12 -4 -12 -8 0 -12 12 -11 34 2 38
10 51 19 28 3 -9 2 -13 -4 -10 -6 3 -10 2 -10 -3 0 -12 26 -23 33 -15 10 9
-16 53 -30 53 -9 0 -11 5 -7 13 5 7 0 6 -11 -3 -17 -14 -18 -13 -12 3 4 11 1
17 -9 17 -8 0 -13 -4 -10 -8 2 -4 -5 -9 -17 -9 -19 -2 -19 -1 5 15 33 22 29
43 -20 124 -26 42 -46 64 -61 66 -13 2 -21 10 -20 20 3 38 0 45 -16 32 -11 -9
-15 -9 -15 -1 0 6 7 14 15 17 14 6 13 8 -2 20 -10 7 -14 14 -9 14 5 0 3 7 -4
15 -13 15 -42 20 -53 9z m38 -13 c-3 -2 2 -13 12 -23 9 -11 11 -18 5 -18 -7 0
-12 4 -12 10 0 5 -8 7 -17 3 -10 -3 -15 -3 -11 2 4 4 4 13 -2 19 -6 8 -3 12
10 12 11 0 17 -2 15 -5z m-45 -41 c0 -5 -4 -10 -10 -10 -5 0 -10 5 -10 10 0 6
5 10 10 10 6 0 10 -4 10 -10z m32 -44 c-8 -5 -24 -4 -39 3 -13 6 -35 11 -48
11 -14 0 -25 4 -25 9 0 5 20 6 45 3 30 -3 45 -1 45 7 0 6 8 3 18 -6 15 -15 16
-19 4 -27z m-199 17 c-7 -2 -19 -2 -25 0 -7 3 -2 5 12 5 14 0 19 -2 13 -5z
m251 -18 c-4 -8 -11 -15 -16 -15 -6 0 -5 6 2 15 7 8 14 15 16 15 2 0 1 -7 -2
-15z m112 -170 c7 -17 -12 -45 -30 -45 -6 0 -4 5 4 10 17 11 20 32 5 42 -6 5
-5 8 3 8 7 0 15 -7 18 -15z m-343 -42 c-7 -2 -13 -11 -13 -19 0 -9 -11 -14
-32 -14 -28 1 -30 2 -15 11 9 5 21 8 26 5 5 -3 11 1 15 9 3 8 11 15 18 14 10
0 10 -2 1 -6z m-93 -103 c0 -5 -5 -10 -11 -10 -5 0 -7 5 -4 10 3 6 8 10 11 10
2 0 4 -4 4 -10z m515 -55 c29 -28 30 -32 10 -32 -8 0 -13 3 -10 5 3 3 -5 16
-17 29 -29 31 -14 30 17 -2z m65 -102 c0 -7 -4 -13 -10 -13 -5 0 -10 12 -10
28 0 21 2 24 10 12 5 -8 10 -21 10 -27z m-879 -101 c-7 -2 -18 1 -23 6 -8 8
-4 9 13 5 13 -4 18 -8 10 -11z m59 -2 c0 -5 -2 -10 -4 -10 -3 0 -8 5 -11 10
-3 6 -1 10 4 10 6 0 11 -4 11 -10z m909 -6 c4 3 8 -1 8 -8 0 -8 -8 -11 -18 -9
-11 3 -15 11 -11 21 4 10 7 12 10 4 2 -7 7 -10 11 -8z m-72 -10 c-3 -3 -12 -4
-19 -1 -8 3 -5 6 6 6 11 1 17 -2 13 -5z m163 -106 c0 -14 -15 -16 -27 -3 -10
11 -9 13 7 12 11 -1 20 -5 20 -9z m-15 -48 c3 -6 -1 -7 -9 -4 -18 7 -21 14 -7
14 6 0 13 -4 16 -10z m43 -55 c-3 -3 -9 2 -12 12 -6 14 -5 15 5 6 7 -7 10 -15
7 -18z m50 -60 c-6 -14 -13 -23 -15 -21 -5 5 15 46 22 46 3 0 -1 -11 -7 -25z
m66 -123 c3 -5 -1 -9 -9 -9 -8 0 -12 4 -9 9 3 4 7 8 9 8 2 0 6 -4 9 -8z m-514
-73 c13 -9 12 -10 -2 -5 -10 3 -18 1 -18 -5 0 -6 -5 -7 -10 -4 -11 7 -4 25 8
25 4 0 14 -5 22 -11z m59 -15 c-13 -16 -33 -19 -24 -4 3 6 0 10 -7 10 -10 0
-10 2 1 9 22 14 44 2 30 -15z"/>
<path d="M37826 19182 c-4 -13 -12 -19 -18 -16 -8 5 -9 1 -5 -11 4 -9 3 -23
-3 -29 -6 -8 -5 -26 2 -52 12 -37 12 -38 16 -11 2 16 -2 35 -9 43 -14 17 2 19
19 2 9 -9 12 -9 12 0 0 7 -4 12 -10 12 -14 0 -13 37 1 42 6 2 9 13 7 23 -4 19
-5 18 -12 -3z"/>
<path d="M38015 19190 c-14 -7 -8 -8 20 -3 22 3 42 7 44 9 9 8 -45 2 -64 -6z"/>
<path d="M38397 19185 c-7 -16 8 -29 23 -20 15 9 12 35 -4 35 -8 0 -16 -7 -19
-15z"/>
<path d="M39018 19193 c7 -3 16 -2 19 1 4 3 -2 6 -13 5 -11 0 -14 -3 -6 -6z"/>
<path d="M37776 19074 c-4 -9 -4 -19 -1 -22 2 -3 7 3 11 12 4 9 4 19 1 22 -2
3 -7 -3 -11 -12z"/>
<path d="M37938 19000 c-2 -22 0 -40 4 -40 5 0 8 8 8 18 0 9 3 27 6 40 4 12 2
22 -4 22 -5 0 -12 -18 -14 -40z"/>
<path d="M37748 19003 c0 -10 -1 -25 0 -33 0 -7 -8 -22 -19 -31 -13 -11 -16
-20 -9 -24 5 -3 10 -1 10 4 0 6 5 11 12 11 9 0 9 -3 0 -12 -16 -16 -15 -35 2
-35 10 0 14 18 14 69 1 37 -1 68 -4 68 -2 0 -5 -8 -6 -17z"/>
<path d="M37971 18974 c0 -11 3 -14 6 -6 3 7 2 16 -1 19 -3 4 -6 -2 -5 -13z"/>
<path d="M37697 18897 c-3 -8 1 -14 8 -14 7 0 11 6 8 14 -3 7 -6 13 -8 13 -2
0 -5 -6 -8 -13z"/>
<path d="M37626 18805 c-9 -13 -25 -27 -37 -30 -20 -7 -20 -8 -6 -17 22 -12
22 -33 0 -35 -10 -1 -33 -5 -52 -9 -21 -4 -32 -3 -28 3 3 5 0 10 -8 10 -23 0
11 -35 39 -40 16 -3 15 -5 -7 -6 -37 -1 -25 -21 13 -21 16 0 32 -4 35 -10 13
-21 25 -8 25 28 0 40 18 76 27 55 2 -7 16 -13 29 -13 20 0 24 5 24 31 0 16 -4
28 -9 24 -5 -3 -12 -1 -16 5 -3 5 1 10 10 10 22 0 15 32 -7 36 -9 1 -24 -8
-32 -21z m13 -26 c-17 -16 -35 -26 -42 -22 -8 5 -7 8 3 11 21 7 50 39 42 46
-3 4 1 4 10 1 14 -6 12 -11 -13 -36z m26 -29 c-3 -5 -11 -10 -16 -10 -6 0 -7
5 -4 10 3 6 11 10 16 10 6 0 7 -4 4 -10z"/>
<path d="M37528 18733 c7 -3 16 -2 19 1 4 3 -2 6 -13 5 -11 0 -14 -3 -6 -6z"/>
<path d="M37455 18710 c-3 -5 1 -13 9 -16 9 -3 13 -10 10 -15 -3 -5 0 -9 5 -9
16 0 13 26 -3 39 -10 8 -16 9 -21 1z"/>
<path d="M38720 18630 c0 -5 5 -10 11 -10 5 0 7 5 4 10 -3 6 -8 10 -11 10 -2
0 -4 -4 -4 -10z"/>
<path d="M37908 18030 c-2 -5 -26 -33 -55 -63 -29 -30 -49 -58 -45 -61 3 -4
-1 -4 -10 -1 -18 7 -31 -7 -23 -27 8 -20 74 -60 87 -52 6 4 8 3 5 -3 -4 -5 6
-16 21 -24 15 -8 33 -20 41 -27 7 -7 22 -10 32 -7 13 4 19 2 19 -8 0 -9 9 -15
23 -14 12 0 92 -5 178 -12 86 -7 160 -11 165 -10 5 1 38 -1 74 -4 75 -8 195
-15 360 -22 63 -3 115 -6 115 -7 0 -2 320 -24 323 -22 9 6 -21 44 -30 38 -7
-4 -8 -3 -4 4 8 13 -32 92 -46 92 -4 0 -7 3 -6 8 5 23 -28 62 -56 67 -49 8
-160 23 -176 24 -8 0 -28 3 -45 6 -146 26 -431 60 -436 52 -4 -6 -8 -5 -10 1
-2 6 -26 13 -54 15 -27 3 -45 3 -38 0 11 -4 8 -52 -4 -63 -3 -3 -4 4 -1 16 3
12 -3 31 -14 45 -17 22 -18 22 -16 4 2 -11 8 -23 13 -27 6 -4 1 -8 -10 -9
l-20 0 20 -9 c16 -7 14 -8 -10 -6 -17 1 -36 5 -42 9 -14 9 -24 47 -12 47 5 0
9 -8 10 -17 0 -11 3 -13 6 -5 2 6 9 12 14 12 4 0 6 -7 3 -15 -4 -8 -2 -15 4
-15 13 0 22 24 14 37 -4 5 -14 11 -22 11 -8 1 -58 9 -110 18 -67 12 -99 13
-111 6 -12 -8 -20 -7 -30 3 -16 15 -87 27 -91 15z m282 -44 c0 -2 -7 -6 -15
-10 -8 -3 -15 -1 -15 4 0 6 7 10 15 10 8 0 15 -2 15 -4z m21 -56 c13 -10 18
-19 12 -20 -7 0 -13 4 -13 8 0 5 -10 14 -22 20 -13 6 -18 11 -12 11 7 1 22 -8
35 -19z m69 -40 c0 -5 -4 -10 -10 -10 -5 0 -10 5 -10 10 0 6 5 10 10 10 6 0
10 -4 10 -10z m-10 -50 c-24 -15 -36 -11 -14 4 10 8 21 12 24 10 2 -3 -2 -9
-10 -14z"/>
<path d="M38005 18020 c3 -5 8 -10 11 -10 2 0 4 5 4 10 0 6 -5 10 -11 10 -5 0
-7 -4 -4 -10z"/>
<path d="M39180 17852 c0 -4 9 -18 20 -30 11 -12 20 -25 20 -31 0 -16 64 -121
73 -118 4 1 29 36 56 77 l50 75 -26 7 c-14 4 -51 9 -82 12 -31 3 -68 8 -83 11
-16 3 -28 2 -28 -3z"/>
<path d="M37695 17820 c-10 -12 -35 -30 -54 -42 -20 -12 -38 -25 -41 -28 -3
-3 -19 -16 -37 -28 -26 -18 -45 -22 -115 -22 -99 0 -129 -7 -121 -26 3 -8 0
-14 -6 -14 -6 0 -11 -13 -11 -30 0 -23 4 -30 20 -30 17 0 19 4 14 27 l-7 27
27 -27 c26 -26 30 -27 144 -27 64 0 168 3 230 7 l112 6 35 48 35 48 -71 46
c-39 25 -74 43 -79 40 -5 -3 -12 0 -16 6 -5 8 -2 10 7 5 8 -4 3 2 -11 13 -31
26 -33 26 -55 1z"/>
<path d="M39407 17736 l-56 -84 77 -3 c42 -2 114 -3 159 -3 44 -1 79 -5 76 -9
-2 -4 23 -7 56 -6 33 1 58 6 55 10 -3 5 2 6 10 3 9 -3 16 -2 16 4 0 5 8 9 18
8 9 0 16 5 14 12 -1 8 2 11 7 8 17 -11 5 -41 -15 -38 -11 2 -15 0 -11 -5 14
-14 137 -10 137 5 0 8 11 11 30 10 35 -3 37 -6 13 -24 -15 -10 -7 -12 52 -11
39 0 76 -2 82 -6 16 -10 323 -12 351 -3 15 5 22 15 22 32 0 14 4 22 10 19 6
-3 10 -2 10 4 0 12 -57 24 -117 25 -24 1 -43 5 -43 9 0 5 -6 5 -12 0 -7 -4
-22 -9 -33 -10 -14 -2 -16 -1 -7 6 10 6 8 10 -10 14 -40 11 -54 9 -34 -6 16
-12 15 -13 -12 -12 -23 0 -28 3 -20 12 11 13 9 14 -32 18 -14 1 -36 5 -50 10
-21 7 -23 6 -12 -7 10 -13 7 -15 -23 -12 -32 2 -34 1 -25 -17 9 -15 7 -19 -5
-19 -10 0 -13 5 -9 12 5 8 2 9 -11 4 -18 -7 -18 -6 -1 13 10 11 25 22 35 24 9
2 6 3 -7 2 -12 -1 -25 1 -27 5 -3 5 -14 6 -25 3 -11 -3 -26 -1 -33 3 -36 26
-122 -23 -101 -57 4 -8 9 -7 15 2 5 8 9 9 9 3 0 -5 16 -11 37 -11 20 -1 31 2
25 6 -18 11 12 39 41 38 33 -2 33 -3 6 -18 -15 -8 -19 -8 -15 0 4 6 3 11 -3
11 -19 0 -24 -23 -8 -35 19 -14 23 -30 5 -19 -6 4 -35 8 -65 8 -30 1 -57 7
-61 13 -4 7 -35 15 -67 19 -88 9 -186 40 -271 85 -41 21 -79 39 -83 39 -4 0
-33 -38 -64 -84z m560 -12 c-3 -3 -12 -4 -19 -1 -8 3 -5 6 6 6 11 1 17 -2 13
-5z m240 -36 c-3 -8 -6 -5 -6 6 -1 11 2 17 5 13 3 -3 4 -12 1 -19z m-49 -2 c4
5 14 10 22 12 11 3 9 -2 -5 -16 -16 -15 -24 -16 -37 -8 -10 6 -18 15 -18 20 0
4 7 3 16 -5 9 -7 18 -9 22 -3z m-263 -36 c3 -5 -1 -10 -9 -10 -9 0 -16 5 -16
10 0 6 4 10 9 10 6 0 13 -4 16 -10z m45 -4 c0 -2 -7 -6 -15 -10 -8 -3 -15 -1
-15 4 0 6 7 10 15 10 8 0 15 -2 15 -4z m153 -8 c3 -8 -5 -14 -19 -14 -18 -2
-20 1 -11 12 15 17 24 17 30 2z m51 -3 c-5 13 -4 16 4 11 12 -7 17 -36 6 -36
-14 0 -44 22 -44 32 0 6 9 3 20 -7 20 -18 21 -18 14 0z"/>
<path d="M40235 17769 c17 -5 64 -10 106 -11 43 -2 75 -6 72 -10 -2 -5 6 -8
19 -8 18 0 20 2 8 10 -13 8 -12 10 3 10 9 0 17 -7 17 -16 0 -9 6 -14 13 -11 6
2 25 0 40 -4 20 -6 27 -5 24 4 -2 7 -14 11 -27 9 -14 -2 -20 0 -16 7 11 18 34
13 50 -10 9 -13 21 -19 30 -16 8 3 18 2 21 -3 9 -14 43 -12 48 3 3 9 9 7 24
-5 24 -22 44 -23 37 -3 -4 8 -1 15 5 15 6 0 10 -6 9 -12 -2 -8 6 -12 20 -11
13 2 21 -1 18 -5 -3 -6 30 -8 53 -3 2 1 -2 8 -9 16 -13 15 -6 35 13 35 7 0 6
-4 -3 -10 -12 -8 -8 -10 15 -11 29 -1 30 -1 5 -9 -17 -5 -19 -8 -7 -9 9 -1 17
-5 17 -11 0 -5 -8 -7 -17 -3 -15 5 -16 4 -5 -8 10 -11 16 -11 32 -2 13 9 20 9
22 2 2 -6 17 -12 33 -14 17 -2 48 -6 70 -10 22 -3 51 -8 65 -10 14 -2 45 -7
69 -10 31 -5 42 -4 37 4 -4 6 -3 11 2 11 6 0 12 -6 15 -14 3 -7 18 -12 34 -12
15 1 33 -2 40 -7 22 -15 6 61 -18 92 -38 46 -88 66 -90 34 0 -14 -2 -13 -9 5
l-9 22 -453 -1 c-279 -1 -441 -4 -423 -10z m405 -22 c0 -4 -8 -7 -17 -5 -12 2
-17 -2 -15 -12 3 -11 -3 -9 -20 5 -13 11 -24 20 -25 20 -1 1 15 1 37 1 22 -1
40 -5 40 -9z m138 1 c-16 -10 -45 -10 -51 0 -3 4 10 7 29 8 21 0 30 -3 22 -8z
m86 3 c11 -4 15 -10 10 -13 -5 -4 -18 0 -29 8 -20 15 -12 17 19 5z m-180 -27
c3 -8 2 -12 -4 -9 -6 3 -10 10 -10 16 0 14 7 11 14 -7z m511 6 c3 -5 2 -10 -4
-10 -5 0 -13 5 -16 10 -3 6 -2 10 4 10 5 0 13 -4 16 -10z m-8 -45 c-9 -7 -14
-15 -10 -19 4 -4 -1 -4 -11 0 -16 6 -17 8 -2 16 9 5 14 13 11 19 -3 5 1 6 11
2 15 -6 15 -7 1 -18z m-30 9 c-3 -3 -12 -4 -19 -1 -8 3 -5 6 6 6 11 1 17 -2
13 -5z m-70 -30 c-3 -3 -12 -4 -19 -1 -8 3 -5 6 6 6 11 1 17 -2 13 -5z"/>
<path d="M37259 17684 c-1 -5 -1 -17 0 -26 2 -20 -15 -25 -21 -7 -2 7 -8 7
-15 -3 -9 -11 -5 -13 22 -14 29 0 33 3 31 23 -3 24 -15 44 -17 27z"/>
<path d="M37999 17673 c10 -19 11 -25 11 -49 0 -15 19 -16 193 -9 105 5 203 7
216 7 13 -1 31 4 39 10 13 10 14 10 8 1 -6 -10 20 -13 116 -12 68 1 152 5 188
9 l65 7 -80 2 c-44 1 -89 4 -100 6 -49 8 -557 37 -575 32 -11 -3 -23 -1 -26 4
-3 5 -19 9 -35 9 -25 0 -28 -3 -20 -17z"/>
<path d="M40530 17636 c0 -19 4 -38 10 -41 5 -3 7 0 4 9 -4 11 4 16 28 21 47
9 70 9 91 0 11 -4 17 -3 17 5 0 8 7 9 18 5 21 -9 117 -17 110 -9 -6 5 -81 16
-130 18 -14 0 -30 4 -34 9 -10 10 -36 9 -30 -2 3 -4 -6 -6 -19 -3 -14 2 -28 8
-31 13 -14 23 -34 8 -34 -25z"/>
<path d="M37940 17636 c0 -8 -6 -17 -12 -19 -7 -3 -3 -6 9 -6 16 -1 20 3 16
19 -6 23 -13 26 -13 6z"/>
<path d="M40838 17623 c7 -3 16 -2 19 1 4 3 -2 6 -13 5 -11 0 -14 -3 -6 -6z"/>
<path d="M37225 17610 c3 -5 8 -10 11 -10 2 0 4 5 4 10 0 6 -5 10 -11 10 -5 0
-7 -4 -4 -10z"/>
<path d="M40499 17593 c-13 -16 -12 -17 4 -4 16 13 21 21 13 21 -2 0 -10 -8
-17 -17z"/>
<path d="M40665 17600 c3 -5 8 -10 11 -10 2 0 4 5 4 10 0 6 -5 10 -11 10 -5 0
-7 -4 -4 -10z"/>
<path d="M39330 17595 c0 -11 94 -190 101 -193 5 -2 7 -7 4 -12 -3 -5 2 -16
11 -24 8 -9 13 -16 10 -16 -5 0 26 -63 49 -100 5 -8 10 -21 11 -28 2 -8 11
-20 21 -29 10 -8 12 -12 5 -8 -10 5 -10 1 0 -19 6 -14 15 -26 20 -26 5 0 6 -4
3 -10 -3 -5 -1 -10 4 -10 6 0 10 -3 10 -7 -3 -19 2 -33 12 -33 5 0 8 3 6 8 -3
4 14 8 37 9 22 2 42 7 44 13 2 5 10 10 17 10 8 0 17 9 20 20 8 26 -3 60 -19
60 -8 0 -31 18 -52 40 -22 22 -45 40 -51 40 -8 0 -13 15 -13 40 0 22 5 40 10
40 6 0 10 6 10 14 0 9 20 15 68 20 83 8 172 28 172 38 0 5 17 8 38 8 20 0 52
9 70 20 18 11 41 20 52 20 11 0 20 5 20 10 0 6 11 10 24 10 14 0 37 5 53 12
15 6 33 10 40 9 6 -1 14 3 18 8 3 6 13 8 23 5 14 -5 14 -3 -2 6 -15 10 -20 9
-27 -1 -5 -8 -9 -9 -9 -3 0 6 -7 11 -15 11 -8 0 -12 -4 -10 -8 3 -4 -2 -10
-11 -13 -11 -4 -18 1 -21 14 -4 16 -14 20 -50 20 -36 0 -43 -3 -41 -17 2 -12
-2 -17 -12 -14 -8 3 -31 4 -50 4 -20 0 -25 1 -12 4 12 2 22 8 22 12 0 5 -12 6
-26 3 -19 -3 -25 -1 -20 7 4 6 1 11 -8 11 -9 0 -16 -4 -16 -10 0 -5 -12 -10
-27 -9 -25 0 -26 1 -8 9 15 6 12 8 -16 7 -27 -2 -35 -6 -31 -16 3 -9 1 -12 -6
-7 -7 4 -12 13 -12 20 0 7 -12 13 -30 13 -38 0 -39 -14 -2 -20 l27 -4 -27 -2
c-26 -1 -41 -21 -16 -21 6 0 9 -2 6 -5 -11 -11 -39 8 -34 22 5 11 0 13 -22 9
-15 -3 -34 -2 -42 4 -13 9 -13 10 0 11 10 0 8 3 -5 9 -30 13 -105 12 -105 -1
0 -8 -5 -8 -15 1 -8 7 -21 10 -30 7 -8 -4 -17 -2 -20 3 -4 6 -26 10 -50 10
-33 0 -45 -4 -48 -17 -4 -17 -5 -17 -6 0 -1 14 -21 26 -21 12z m165 -31 c11
-4 23 -6 28 -6 4 1 7 -2 7 -8 0 -5 -6 -10 -14 -10 -8 0 -18 5 -21 10 -3 6 -14
10 -25 10 -10 0 -20 7 -24 15 -4 11 -1 13 12 6 9 -5 26 -13 37 -17z m82 -10
c-3 -3 -12 -4 -19 -1 -8 3 -5 6 6 6 11 1 17 -2 13 -5z m-113 -19 c3 -8 1 -15
-4 -15 -6 0 -10 7 -10 15 0 8 2 15 4 15 2 0 6 -7 10 -15z m306 -5 c0 -5 -7
-10 -15 -10 -8 0 -15 5 -15 10 0 6 7 10 15 10 8 0 15 -4 15 -10z m99 6 c-2 -2
-17 -6 -34 -10 -22 -5 -26 -4 -15 4 14 9 59 15 49 6z m-465 -31 c-4 -8 -7 -15
-9 -15 -2 0 -5 7 -9 15 -3 9 0 15 9 15 9 0 12 -6 9 -15z m32 -71 c2 -12 -1
-13 -12 -3 -7 6 -11 16 -8 21 7 11 17 3 20 -18z m354 -10 c0 -2 -7 -4 -15 -4
-8 0 -15 4 -15 10 0 5 7 7 15 4 8 -4 15 -8 15 -10z m-295 -93 c3 -5 2 -12 -3
-15 -5 -3 -9 1 -9 9 0 17 3 19 12 6z m22 -24 c0 -8 -6 -14 -14 -14 -9 0 -10 4
-2 14 6 7 12 13 14 13 1 0 2 -6 2 -13z m83 -128 c0 -6 -4 -7 -10 -4 -5 3 -10
2 -10 -3 0 -5 -6 -9 -14 -9 -8 0 -12 5 -10 12 6 14 44 17 44 4z m-3 -46 c1
-22 -1 -24 -8 -10 -6 9 -7 22 -4 27 9 14 10 13 12 -17z"/>
<path d="M40720 17579 c-12 -9 -12 -10 4 -5 10 4 26 1 35 -6 14 -12 14 -11 2
5 -16 20 -21 21 -41 6z"/>
<path d="M38869 17576 c-4 -4 -759 -19 -816 -17 -13 0 -23 -5 -23 -12 0 -19
87 -377 93 -383 7 -7 789 316 798 329 3 5 10 9 15 10 5 1 8 6 6 11 -2 5 5 3
14 -5 16 -12 17 -12 12 2 -4 11 0 15 15 14 28 -2 39 26 18 42 -15 11 -122 18
-132 9z m124 -37 c-8 -8 -13 -7 -18 2 -6 8 -4 10 5 4 10 -6 12 -4 6 11 -6 15
-5 17 5 7 9 -10 10 -16 2 -24z m-90 -40 c5 -3 2 -9 -5 -12 -9 -3 -14 3 -15 15
-1 11 1 16 5 12 4 -5 11 -12 15 -15z"/>
<path d="M39017 17569 c6 -6 9 -18 6 -25 -3 -8 0 -14 7 -14 6 0 8 5 5 10 -3 6
-1 10 5 10 6 0 8 5 4 13 -6 9 -4 9 8 -1 8 -7 23 -10 32 -6 29 11 17 19 -31 22
-36 2 -45 0 -36 -9z"/>
<path d="M39660 17570 c-18 -12 -2 -12 25 0 13 6 15 9 5 9 -8 0 -22 -4 -30 -9z"/>
<path d="M39248 17559 c-10 -5 -18 -15 -18 -21 0 -6 8 -4 18 5 10 10 22 14 27
10 4 -5 5 -2 1 5 -8 14 -6 14 -28 1z"/>
<path d="M37757 17383 c-103 -148 -123 -180 -114 -195 8 -13 13 -14 19 -5 6 9
8 8 8 -2 0 -8 3 -11 7 -8 3 4 -1 15 -10 25 -15 17 -13 19 36 37 29 10 56 18
61 16 5 -1 16 5 25 13 9 8 23 16 31 18 8 2 17 5 20 8 18 18 123 60 137 56 39
-12 41 6 16 112 l-25 102 -43 0 -43 0 -125 -177z"/>
<path d="M39960 17549 c0 -5 5 -7 10 -4 6 3 10 8 10 11 0 2 -4 4 -10 4 -5 0
-10 -5 -10 -11z"/>
<path d="M37348 17543 c6 -2 10 -9 6 -14 -3 -5 4 -9 16 -9 19 0 20 2 6 15 -8
8 -21 15 -28 14 -10 0 -10 -2 0 -6z"/>
<path d="M37453 17543 c-22 -8 -15 -35 7 -28 14 5 18 3 14 -8 -6 -16 21 -41
35 -33 15 9 33 -31 25 -56 -5 -16 -8 -18 -15 -7 -7 11 -9 11 -9 -2 0 -22 -36
-53 -55 -46 -8 4 -15 2 -15 -4 0 -6 -17 -9 -40 -8 -21 2 -42 0 -46 -4 -4 -4
-12 -7 -18 -7 -6 0 -4 5 4 10 9 6 10 10 3 10 -6 0 -18 -6 -26 -14 -10 -10 -17
-12 -25 -4 -7 7 -10 -1 -9 -25 0 -20 5 -33 9 -31 5 3 23 -7 41 -22 17 -15 51
-35 74 -45 28 -12 41 -23 37 -32 -3 -8 2 -20 11 -27 12 -10 18 -10 32 1 14 12
16 12 12 0 -8 -24 -38 -38 -48 -22 -6 9 -8 -1 -8 -27 0 -25 6 -43 14 -47 8 -2
12 -1 9 4 -3 5 1 12 10 15 12 5 14 9 5 20 -8 10 -6 17 7 30 10 9 22 13 27 9 4
-5 5 -2 1 5 -4 7 -2 12 5 12 7 0 4 7 -7 16 -18 15 -18 15 7 10 23 -5 33 5 105
107 139 196 174 247 174 252 0 7 -331 5 -347 -2z m23 -350 c-15 -4 -16 -7 -5
-13 7 -5 10 -12 6 -16 -10 -11 -31 12 -23 25 4 6 15 10 24 10 14 -1 14 -2 -2
-6z m-1 -95 c6 -4 2 -8 -7 -8 -10 0 -18 7 -18 17 0 9 3 12 8 7 4 -5 12 -12 17
-16z"/>
<path d="M37155 17530 c3 -5 8 -10 11 -10 2 0 4 5 4 10 0 6 -5 10 -11 10 -5 0
-7 -4 -4 -10z"/>
<path d="M37235 17530 c3 -5 11 -10 16 -10 6 0 7 5 4 10 -3 6 -11 10 -16 10
-6 0 -7 -4 -4 -10z"/>
<path d="M39180 17529 c0 -5 -5 -7 -10 -4 -6 4 -9 2 -8 -3 2 -5 -10 -21 -25
-36 -15 -14 -26 -30 -23 -34 3 -5 -1 -9 -9 -9 -10 0 -11 5 -4 19 6 11 6 18 0
18 -5 0 -17 3 -26 6 -13 5 -15 2 -10 -18 5 -18 2 -25 -9 -25 -11 0 -13 4 -5
13 7 8 7 14 -1 19 -5 3 -10 1 -10 -6 0 -7 -3 -9 -7 -6 -3 4 -12 -1 -20 -11 -8
-9 -12 -11 -8 -4 7 14 -11 17 -20 2 -3 -5 -15 -10 -25 -10 -24 0 -30 -31 -10
-48 13 -11 12 -11 -7 -2 -18 8 -24 7 -33 -9 -8 -17 -6 -20 18 -25 15 -3 83 -4
151 -1 80 2 131 0 145 -7 14 -8 21 -8 24 0 4 12 32 5 32 -9 0 -4 -7 -6 -15 -2
-9 3 -15 2 -13 -3 3 -10 -38 -55 -45 -48 -8 8 -177 -158 -170 -168 4 -7 1 -8
-6 -3 -8 4 -18 -1 -27 -14 -8 -12 -22 -21 -30 -21 -8 0 -14 -6 -14 -12 -1 -7
-15 -24 -32 -38 -17 -14 -38 -33 -47 -42 -41 -45 -69 -71 -104 -97 -24 -19
-33 -31 -25 -34 7 -3 -96 -6 -229 -6 -156 -1 -243 3 -243 9 0 6 -11 10 -25 10
-23 0 -25 3 -22 48 1 26 -1 58 -5 72 l-7 26 102 -1 c97 0 106 2 171 34 51 26
97 63 181 145 62 61 135 125 163 141 51 30 99 81 88 92 -3 4 -6 1 -6 -5 0 -6
-8 -10 -17 -10 -19 1 -742 -297 -757 -312 -4 -4 -5 -27 -1 -49 6 -37 9 -40 31
-35 22 6 35 -8 17 -19 -5 -2 -3 -2 4 -1 7 2 15 -1 18 -6 4 -6 1 -10 -4 -10 -6
0 -11 -5 -11 -11 0 -5 5 -7 12 -3 7 5 8 3 3 -5 -5 -9 -14 -6 -33 11 -22 18
-23 19 -9 2 18 -22 24 -49 8 -40 -5 4 -7 -3 -4 -14 3 -11 12 -20 19 -20 17 0
19 17 2 22 -9 3 -9 6 0 12 20 12 26 -24 8 -54 -15 -26 -15 -36 1 -80 3 -8 7
-24 8 -35 4 -27 64 -276 72 -295 3 -8 7 -28 9 -43 5 -33 52 -225 61 -247 3 -8
5 -21 4 -29 -1 -7 2 -10 9 -6 7 4 10 15 7 25 -4 17 1 18 46 15 28 -2 53 -8 55
-14 2 -6 13 -11 25 -11 17 0 19 -2 8 -9 -12 -8 -8 -11 15 -17 16 -4 49 -18 73
-31 61 -32 107 -30 174 10 31 17 56 37 57 42 0 6 21 24 47 40 25 17 56 37 69
45 29 18 51 2 60 -46 l6 -33 290 -1 290 0 -6 24 c-3 13 -42 186 -87 383 -45
197 -86 364 -92 371 -6 8 -10 31 -8 52 1 21 -2 41 -8 44 -16 10 -24 -14 -10
-32 12 -16 12 -16 -6 0 -18 17 -18 18 -1 37 10 11 15 25 11 30 -6 11 -11 33
-21 91 -7 42 -13 52 -24 45 -4 -3 -13 2 -20 10 -10 12 -16 13 -27 4 -11 -10
-12 -9 -7 5 3 9 10 16 14 16 4 0 6 11 5 23 -2 13 2 24 9 24 14 0 19 -34 5 -42
-14 -9 -1 -25 19 -24 9 0 12 3 6 5 -6 3 -9 16 -6 30 6 33 -25 69 -45 52 -12
-10 -12 -7 -2 16 12 26 13 27 21 7 9 -25 21 -28 15 -3 -3 9 -8 30 -11 45 -4
18 -11 25 -19 20 -8 -4 -7 -1 2 10 7 9 9 17 4 17 -5 0 -10 10 -11 23 -3 44
-14 87 -25 94 -6 3 -7 1 -3 -5 8 -13 -28 -12 -40 1 -11 11 -44 8 -44 -4z m-7
-46 c-4 -10 -2 -14 5 -9 6 3 14 2 17 -4 4 -6 1 -9 -7 -8 -7 2 -12 -3 -10 -10
1 -8 -2 -11 -8 -7 -6 3 -7 11 -4 17 5 8 1 9 -11 4 -18 -7 -18 -6 0 14 22 24
26 25 18 3z m-53 -343 c0 -5 -5 -10 -11 -10 -5 0 -7 5 -4 10 3 6 8 10 11 10 2
0 4 -4 4 -10z m-105 -69 c-3 -6 -11 -11 -17 -11 -6 0 -6 6 2 15 14 17 26 13
15 -4z m-55 -83 c0 -16 -3 -19 -11 -11 -6 6 -8 16 -5 22 11 17 16 13 16 -11z
m-32 -23 c-3 -3 -9 2 -12 12 -6 14 -5 15 5 6 7 -7 10 -15 7 -18z m446 -20 c-5
-11 -1 -14 12 -9 17 5 17 5 2 -6 -9 -6 -15 -17 -12 -25 4 -8 1 -15 -5 -15 -12
0 -15 52 -4 63 10 11 13 8 7 -8z m-557 -71 c-3 -3 -12 -4 -19 -1 -8 3 -5 6 6
6 11 1 17 -2 13 -5z m478 -4 c3 -5 1 -10 -4 -10 -6 0 -11 5 -11 10 0 6 2 10 4
10 3 0 8 -4 11 -10z m-170 -100 c-4 -6 -55 -9 -128 -8 l-122 2 125 6 c69 3
126 7 128 8 2 1 0 -2 -3 -8z"/>
<path d="M40361 17530 c-9 -5 -4 -7 13 -7 29 0 32 2 13 10 -8 3 -20 2 -26 -3z"/>
<path d="M39110 17500 c0 -5 5 -10 11 -10 5 0 7 5 4 10 -3 6 -8 10 -11 10 -2
0 -4 -4 -4 -10z"/>
<path d="M40800 17500 c-9 -6 -10 -10 -3 -10 6 0 15 5 18 10 8 12 4 12 -15 0z"/>
<path d="M40717 17488 c2 -5 10 -8 18 -8 8 0 16 3 18 8 3 4 -5 7 -18 7 -13 0
-21 -3 -18 -7z"/>
<path d="M37076 17464 c-10 -14 -16 -30 -14 -35 2 -6 11 6 21 25 20 42 16 47
-7 10z"/>
<path d="M40880 17480 c-8 -26 -7 -41 2 -32 6 6 8 16 5 24 -3 7 -6 11 -7 8z"/>
<path d="M40780 17465 c0 -2 10 -10 23 -16 20 -11 21 -11 8 4 -13 16 -31 23
-31 12z"/>
<path d="M40940 17466 c0 -2 7 -7 16 -10 8 -3 12 -2 9 4 -6 10 -25 14 -25 6z"/>
<path d="M41018 17453 c7 -3 16 -2 19 1 4 3 -2 6 -13 5 -11 0 -14 -3 -6 -6z"/>
<path d="M37086 17441 c-4 -7 -5 -15 -2 -18 9 -9 19 4 14 18 -4 11 -6 11 -12
0z"/>
<path d="M37491 17434 c0 -11 3 -14 6 -6 3 7 2 16 -1 19 -3 4 -6 -2 -5 -13z"/>
<path d="M41045 17441 c-3 -5 -2 -12 3 -15 5 -3 9 1 9 9 0 17 -3 19 -12 6z"/>
<path d="M37111 17404 c0 -11 3 -14 6 -6 3 7 2 16 -1 19 -3 4 -6 -2 -5 -13z"/>
<path d="M41076 17412 c-3 -5 1 -9 9 -9 8 0 12 4 9 9 -3 4 -7 8 -9 8 -2 0 -6
-4 -9 -8z"/>
<path d="M37084 17375 c8 -8 18 -15 22 -15 3 0 1 7 -6 15 -7 8 -17 15 -22 15
-5 0 -3 -7 6 -15z"/>
<path d="M37032 17300 c0 -14 2 -19 5 -12 2 6 2 18 0 25 -3 6 -5 1 -5 -13z"/>
<path d="M37922 17303 c2 -9 10 -19 18 -21 12 -4 13 -3 3 10 -7 8 -10 18 -6
21 3 4 1 7 -6 7 -7 0 -11 -8 -9 -17z"/>
<path d="M37981 17311 c-10 -6 -10 -10 -1 -16 13 -8 24 -1 19 14 -3 6 -10 7
-18 2z"/>
<path d="M39405 17298 c4 -25 15 -70 20 -90 2 -5 3 -13 4 -19 0 -6 8 -9 16 -5
9 3 15 0 15 -9 0 -9 -6 -12 -17 -9 -12 4 -10 -1 7 -17 14 -13 21 -21 15 -17
-17 11 -27 -3 -14 -19 6 -7 9 -13 6 -13 -12 0 15 -59 29 -64 10 -4 14 2 14 20
0 14 4 23 10 19 6 -4 8 -11 5 -16 -4 -5 -1 -9 4 -9 16 0 13 16 -4 30 -8 6 -14
15 -14 18 2 15 -14 52 -22 52 -5 0 -9 8 -9 18 0 9 -16 49 -35 87 -20 39 -33
58 -30 43z m45 -98 c0 -5 -2 -10 -4 -10 -3 0 -8 5 -11 10 -3 6 -1 10 4 10 6 0
11 -4 11 -10z m40 -111 c0 -5 -4 -9 -8 -9 -5 0 -9 7 -9 15 0 8 4 12 9 9 4 -3
8 -9 8 -15z"/>
<path d="M38022 17285 c4 -4 1 -20 -7 -36 -8 -15 -15 -36 -15 -45 0 -16 1 -16
14 1 8 11 12 25 9 32 -3 7 0 13 6 13 15 0 14 27 -1 36 -7 4 -10 4 -6 -1z"/>
<path d="M37803 17258 c-32 -15 -29 -28 7 -28 23 0 30 4 30 20 0 22 -5 23 -37
8z"/>
<path d="M41116 17257 c3 -10 9 -15 12 -12 3 3 0 11 -7 18 -10 9 -11 8 -5 -6z"/>
<path d="M37745 17230 c3 -5 8 -10 11 -10 2 0 4 5 4 10 0 6 -5 10 -11 10 -5 0
-7 -4 -4 -10z"/>
<path d="M37280 17210 c0 -5 7 -10 16 -10 8 0 12 5 9 10 -3 6 -10 10 -16 10
-5 0 -9 -4 -9 -10z"/>
<path d="M37320 17210 c0 -5 5 -10 10 -10 6 0 10 5 10 10 0 6 -4 10 -10 10 -5
0 -10 -4 -10 -10z"/>
<path d="M37686 17212 c-2 -4 14 -8 37 -8 30 -1 36 1 22 7 -26 10 -53 11 -59
1z"/>
<path d="M37398 17203 c7 -3 16 -2 19 1 4 3 -2 6 -13 5 -11 0 -14 -3 -6 -6z"/>
<path d="M37020 17196 c0 -5 8 -16 18 -25 10 -9 29 -31 42 -50 21 -31 24 -32
31 -15 10 26 11 42 0 26 -6 -10 -18 -3 -49 30 -23 24 -42 39 -42 34z"/>
<path d="M37100 17185 c7 -9 15 -13 17 -11 7 7 -7 26 -19 26 -6 0 -6 -6 2 -15z"/>
<path d="M38025 17190 c3 -5 8 -10 11 -10 2 0 4 5 4 10 0 6 -5 10 -11 10 -5 0
-7 -4 -4 -10z"/>
<path d="M37075 17170 c10 -11 20 -20 23 -20 3 0 -3 9 -13 20 -10 11 -20 20
-23 20 -3 0 3 -9 13 -20z"/>
<path d="M37609 17163 c-10 -11 -10 -14 -1 -9 8 5 12 1 12 -12 0 -10 6 -19 14
-19 12 0 12 4 0 23 -12 18 -12 23 -2 27 8 3 8 6 2 6 -6 1 -18 -7 -25 -16z"/>
<path d="M38009 17173 c0 -5 -2 -16 -4 -25 -4 -21 21 -31 46 -18 19 11 26 21
12 19 -20 -3 -57 3 -45 8 6 2 12 9 12 14 0 11 -20 12 -21 2z"/>
<path d="M38040 17170 c0 -5 5 -10 11 -10 5 0 7 5 4 10 -3 6 -8 10 -11 10 -2
0 -4 -4 -4 -10z"/>
<path d="M37640 17152 c0 -4 10 -13 23 -21 22 -14 22 -14 3 8 -20 22 -26 25
-26 13z"/>
<path d="M37595 17121 c-4 -13 -11 -18 -22 -14 -11 4 -14 2 -11 -8 3 -8 11
-13 17 -11 7 1 10 -2 6 -7 -3 -6 -12 -8 -20 -4 -10 3 -15 -1 -15 -13 0 -16 -2
-17 -10 -4 -6 9 -10 10 -10 3 0 -19 20 -26 26 -9 3 9 10 13 15 10 5 -3 7 -10
4 -15 -3 -5 1 -6 10 -2 13 5 14 7 3 14 -11 7 -11 9 0 9 8 0 12 6 9 13 -2 6 0
20 5 30 5 10 7 21 5 24 -3 2 -8 -5 -12 -16z"/>
<path d="M37849 17113 c-7 -53 -5 -61 10 -56 27 10 32 14 25 24 -4 6 -11 5
-20 -2 -12 -10 -15 -10 -12 2 2 8 7 17 12 20 4 4 3 10 -3 13 -6 4 -11 4 -12
-1z"/>
<path d="M37937 17099 c3 -11 11 -15 21 -11 10 4 12 7 4 10 -7 2 -10 7 -8 11
3 4 -1 8 -8 8 -8 0 -11 -8 -9 -18z"/>
<path d="M37976 17108 c3 -4 9 -8 15 -8 5 0 9 4 9 8 0 5 -7 9 -15 9 -8 0 -12
-4 -9 -9z"/>
<path d="M40330 17070 c-11 -7 -5 -8 20 -4 43 8 51 14 19 14 -13 0 -31 -5 -39
-10z"/>
<path d="M38070 17061 c0 -6 4 -12 8 -15 5 -3 9 1 9 9 0 8 -4 15 -9 15 -4 0
-8 -4 -8 -9z"/>
<path d="M37376 17028 c3 -5 10 -5 16 -2 7 5 9 1 5 -9 -3 -9 -1 -19 5 -23 6
-4 8 -3 4 4 -3 6 3 13 14 17 11 4 17 11 14 17 -4 6 -10 5 -15 -3 -6 -9 -9 -10
-9 -2 0 6 -9 11 -19 10 -11 0 -17 -5 -15 -9z"/>
<path d="M37646 17025 c-15 -11 -14 -13 8 -17 17 -4 26 0 29 12 5 20 -13 22
-37 5z"/>
<path d="M37696 17023 c-4 -9 -1 -20 6 -24 17 -11 31 0 19 15 -6 7 -8 16 -4
19 3 4 2 7 -4 7 -6 0 -14 -8 -17 -17z"/>
<path d="M37800 17029 c0 -5 5 -7 10 -4 6 3 10 8 10 11 0 2 -4 4 -10 4 -5 0
-10 -5 -10 -11z"/>
<path d="M37985 17031 c3 -5 1 -12 -4 -15 -5 -4 -12 -2 -16 3 -3 6 -12 8 -20
5 -8 -4 -12 -10 -9 -16 3 -5 13 -7 21 -4 8 3 11 2 8 -3 -3 -5 0 -11 7 -14 7
-2 3 -2 -10 0 -19 3 -21 1 -11 -9 26 -29 56 -13 36 19 -4 6 -3 14 3 18 13 8
13 25 -1 25 -5 0 -8 -4 -4 -9z"/>
<path d="M39647 17020 c3 -10 11 -24 19 -31 10 -8 10 -3 -2 20 -18 35 -24 40
-17 11z"/>
<path d="M40005 17030 c-8 -13 5 -13 25 0 13 8 13 10 -2 10 -9 0 -20 -4 -23
-10z"/>
<path d="M40035 17019 c-22 -10 -34 -19 -27 -19 7 0 23 5 34 11 14 8 23 8 31
0 6 -6 16 -11 22 -11 5 0 2 5 -8 11 -9 6 -15 14 -12 20 8 11 9 11 -40 -12z"/>
<path d="M40138 17033 c7 -3 16 -2 19 1 4 3 -2 6 -13 5 -11 0 -14 -3 -6 -6z"/>
<path d="M37740 17020 c0 -5 5 -10 10 -10 6 0 10 5 10 10 0 6 -4 10 -10 10 -5
0 -10 -4 -10 -10z"/>
<path d="M37606 16990 c5 -28 -2 -35 -28 -31 -5 0 -8 -6 -8 -15 0 -14 3 -14
15 -4 8 7 15 9 15 4 0 -5 5 -1 11 9 6 9 13 15 17 13 4 -3 8 4 8 14 0 11 -5 16
-15 12 -9 -3 -12 -1 -7 6 3 6 2 13 -3 16 -5 4 -7 -7 -5 -24z"/>
<path d="M39539 17010 c-1 -5 -2 -15 -3 -20 -1 -13 -27 -30 -36 -25 -4 2 -7
-2 -7 -9 0 -10 6 -10 27 2 18 10 28 24 28 39 0 23 -7 32 -9 13z"/>
<path d="M37170 17001 c0 -17 12 -41 20 -41 10 0 1 38 -11 46 -5 3 -9 1 -9 -5z"/>
<path d="M37360 16999 c0 -5 5 -7 10 -4 6 3 10 8 10 11 0 2 -4 4 -10 4 -5 0
-10 -5 -10 -11z"/>
<path d="M37486 17002 c-3 -4 4 -9 15 -9 23 -2 25 3 4 10 -8 4 -16 3 -19 -1z"/>
<path d="M37893 16999 c-28 -10 -31 -23 -4 -16 14 3 18 1 14 -9 -3 -8 1 -14 8
-14 7 0 9 3 6 7 -4 3 -2 12 4 19 14 17 -1 24 -28 13z"/>
<path d="M37144 16970 c3 -14 6 -31 6 -37 0 -7 5 -13 10 -13 15 0 12 34 -6 56
-15 18 -15 18 -10 -6z"/>
<path d="M38082 16978 c2 -6 11 -13 19 -16 12 -3 12 -2 0 6 -11 8 -11 10 0 15
10 4 8 6 -4 6 -10 1 -17 -4 -15 -11z"/>
<path d="M38252 16976 c7 -8 17 -12 22 -9 4 3 2 9 -5 14 -22 13 -31 11 -17 -5z"/>
<path d="M37460 16958 c-11 -12 -20 -24 -21 -27 0 -3 -2 -14 -4 -23 -2 -9 3
-19 11 -22 17 -7 44 3 44 16 0 5 4 7 9 3 5 -3 12 -1 16 5 4 6 11 7 17 4 6 -4
8 -2 5 3 -4 6 0 13 8 17 8 3 15 11 15 18 0 10 -2 10 -9 -1 -5 -8 -14 -10 -21
-6 -8 5 -11 4 -7 -2 4 -6 0 -16 -8 -23 -11 -9 -15 -9 -16 -1 -2 11 -5 25 -9
39 -1 4 -2 10 -1 15 2 12 -8 8 -29 -15z m27 -29 c2 -16 -1 -20 -12 -15 -9 3
-13 2 -10 -3 3 -5 0 -13 -6 -17 -7 -4 -9 -3 -5 4 3 5 2 12 -4 14 -6 2 -4 13 6
26 18 25 26 23 31 -9z"/>
<path d="M37820 16953 c0 -14 -2 -15 -9 -4 -5 7 -14 10 -20 7 -8 -5 -7 -11 2
-21 7 -8 16 -10 23 -4 6 5 13 6 17 3 3 -3 3 3 0 15 -7 26 -13 27 -13 4z"/>
<path d="M39653 16954 c9 -11 15 -23 13 -25 -2 -2 80 -173 183 -379 179 -361
219 -425 219 -356 0 48 32 82 172 179 86 60 110 102 94 165 l-9 37 -211 3
-212 2 -6 26 c-4 15 -6 27 -4 29 2 1 73 29 158 61 l155 59 319 5 c223 3 320 8
323 16 5 15 -35 25 -44 12 -3 -6 -2 -8 3 -5 6 3 16 2 24 -3 8 -5 -11 -6 -46
-3 -70 6 -84 13 -26 13 22 0 42 4 44 8 2 5 28 12 58 15 34 3 47 2 35 -3 -12
-5 61 -9 178 -9 123 0 203 -4 211 -10 9 -7 16 -7 24 1 8 8 12 9 12 1 0 -15
-25 -24 -36 -13 -10 10 -412 15 -422 6 -3 -3 0 -6 7 -6 7 0 9 -5 6 -10 -4 -7
69 -10 225 -10 169 1 232 4 235 13 12 42 14 67 5 67 -6 0 -8 -6 -4 -12 6 -10
4 -10 -7 0 -18 16 -32 15 -26 -3 4 -8 1 -17 -5 -21 -7 -4 -8 -3 -4 4 4 7 2 12
-4 12 -6 0 -9 4 -6 9 11 17 -92 24 -530 37 -226 6 -452 25 -523 44 -24 6 -51
8 -58 6 -8 -3 -11 -1 -8 4 4 6 -85 11 -242 12 -214 3 -248 5 -245 18 2 8 0 12
-4 8 -4 -4 -14 -2 -23 4 -12 10 -12 7 2 -8z m557 -54 c0 -5 -4 -10 -10 -10 -5
0 -10 5 -10 10 0 6 5 10 10 10 6 0 10 -4 10 -10z m27 -62 c-3 -8 -6 -5 -6 6
-1 11 2 17 5 13 3 -3 4 -12 1 -19z m402 -4 c8 -7 -73 -2 -104 6 -19 5 -6 6 35
3 36 -3 67 -7 69 -9z m314 9 c-7 -2 -21 -2 -30 0 -10 3 -4 5 12 5 17 0 24 -2
18 -5z m-208 -23 c-16 -4 -39 -8 -50 -8 -16 0 -15 2 5 8 14 4 36 8 50 8 22 0
22 -1 -5 -8z m278 3 c-13 -2 -33 -2 -45 0 -13 2 -3 4 22 4 25 0 35 -2 23 -4z
m124 1 c-3 -3 -12 -4 -19 -1 -8 3 -5 6 6 6 11 1 17 -2 13 -5z m-594 -11 c-7
-2 -19 -2 -25 0 -7 3 -2 5 12 5 14 0 19 -2 13 -5z"/>
<path d="M37285 16941 c-3 -5 -2 -12 3 -15 5 -3 9 1 9 9 0 17 -3 19 -12 6z"/>
<path d="M38086 16935 c-9 -26 -7 -32 5 -12 6 10 9 21 6 23 -2 3 -7 -2 -11
-11z"/>
<path d="M39523 16932 c-13 -2 -23 -8 -23 -13 0 -13 180 -708 191 -736 8 -22
13 -23 144 -23 83 0 135 4 135 10 0 5 -84 178 -187 384 -200 401 -191 388
-260 378z"/>
<path d="M37112 16878 c-7 -23 -27 -59 -44 -80 -17 -22 -28 -42 -24 -45 3 -4
6 -1 6 6 0 9 4 9 14 -1 17 -16 11 -29 -11 -21 -11 4 -14 3 -9 -5 5 -8 0 -12
-13 -12 -11 0 -23 -5 -26 -11 -4 -6 -13 -8 -19 -6 -7 3 -13 -1 -13 -9 0 -12 4
-12 23 1 13 8 32 15 43 15 11 0 26 7 34 15 8 8 17 12 20 9 3 -3 8 0 13 7 4 7
3 10 -4 5 -6 -3 -13 -2 -16 3 -3 5 1 11 9 15 8 3 17 1 20 -4 11 -18 43 -11 48
10 3 11 1 18 -4 14 -5 -3 -9 0 -9 6 0 14 -41 3 -52 -14 -5 -6 -8 -7 -8 -1 0 6
-5 3 -10 -5 -11 -17 -14 -1 -4 24 3 8 12 12 21 9 10 -4 14 -2 9 5 -3 6 1 29
10 51 9 22 14 45 12 51 -2 6 -9 -9 -16 -32z m23 -107 c-3 -6 -11 -8 -17 -5 -6
4 -5 9 3 15 16 10 23 4 14 -10z"/>
<path d="M38088 16883 c0 -10 0 -28 1 -40 1 -15 -3 -21 -12 -17 -7 2 -24 -4
-36 -15 -13 -12 -28 -18 -32 -15 -5 3 -9 -3 -9 -13 -1 -17 -2 -16 -16 2 -15
20 -16 19 -12 -5 2 -16 -2 -24 -9 -22 -7 1 -13 -2 -13 -8 0 -5 -7 -10 -15 -10
-8 0 -15 -7 -15 -15 0 -9 -9 -15 -24 -15 -14 0 -28 -5 -31 -11 -4 -6 -14 -8
-22 -5 -8 3 -28 0 -46 -8 -18 -7 -49 -16 -70 -20 -21 -4 -35 -11 -32 -17 4 -5
1 -9 -6 -9 -28 0 2 -10 76 -25 78 -16 140 -44 202 -91 17 -13 34 -24 36 -24
12 0 108 -108 161 -180 32 -44 62 -80 66 -80 4 0 13 -13 20 -30 7 -16 17 -30
22 -30 6 0 8 -9 5 -19 -6 -26 9 -49 23 -35 14 14 -4 64 -22 64 -10 0 -10 2 0
9 11 6 6 38 -23 157 -19 82 -38 156 -41 164 -4 8 -8 31 -10 50 -2 19 -8 36
-14 38 -5 2 -8 7 -5 12 7 12 -37 200 -46 195 -4 -3 -5 3 -2 13 2 9 -3 31 -12
47 -13 23 -16 25 -12 7 3 -14 1 -20 -5 -16 -6 4 -8 1 -6 -7 3 -8 11 -13 17
-11 7 1 10 -2 6 -8 -12 -20 -35 10 -29 36 3 13 3 24 0 24 -3 0 -7 -8 -8 -17z
m212 -743 c0 -5 -2 -10 -4 -10 -3 0 -8 5 -11 10 -3 6 -1 10 4 10 6 0 11 -4 11
-10z"/>
<path d="M37299 16873 c-13 -16 -12 -17 4 -4 9 7 17 15 17 17 0 8 -8 3 -21
-13z"/>
<path d="M38004 16865 c-8 -19 2 -45 16 -45 14 0 13 27 -2 36 -8 5 -6 10 8 15
17 7 17 8 1 8 -10 1 -20 -6 -23 -14z"/>
<path d="M37570 16859 c0 -5 5 -7 10 -4 6 3 10 8 10 11 0 2 -4 4 -10 4 -5 0
-10 -5 -10 -11z"/>
<path d="M37538 16849 c-10 -5 -22 -18 -27 -27 -7 -14 -5 -18 9 -18 11 0 16 6
13 14 -3 7 0 12 7 10 7 -2 14 5 15 15 2 9 3 17 2 17 -1 0 -10 -5 -19 -11z"/>
<path d="M37480 16825 c-11 -13 -10 -14 4 -9 9 3 16 10 16 15 0 13 -6 11 -20
-6z"/>
<path d="M37562 16815 c-9 -19 -9 -24 1 -22 6 1 11 -4 9 -11 -1 -8 2 -11 7 -8
5 4 12 0 15 -6 3 -7 4 -4 3 7 -1 11 -8 25 -16 31 -11 9 -12 12 -1 19 9 6 11 4
5 -5 -5 -9 -4 -11 3 -6 16 10 15 26 -1 26 -8 0 -19 -11 -25 -25z"/>
<path d="M37409 16753 c-13 -16 -12 -17 4 -4 9 7 17 15 17 17 0 8 -8 3 -21
-13z"/>
<path d="M37781 16734 c0 -11 3 -14 6 -6 3 7 2 16 -1 19 -3 4 -6 -2 -5 -13z"/>
<path d="M37831 16734 c0 -11 3 -14 6 -6 3 7 2 16 -1 19 -3 4 -6 -2 -5 -13z"/>
<path d="M41270 16493 c0 -3 23 -30 50 -59 28 -29 50 -60 50 -69 0 -24 -43
-35 -146 -35 -63 0 -107 -5 -131 -15 -39 -17 -73 -43 -73 -56 0 -5 140 -8 312
-8 344 0 362 3 397 60 11 18 18 36 15 40 -2 4 0 10 6 14 5 3 10 35 10 71 l0
64 -245 0 c-135 0 -245 -3 -245 -7z"/>
<path d="M38946 16231 c-4 -7 -5 -15 -2 -18 9 -9 19 4 14 18 -4 11 -6 11 -12
0z"/>
<path d="M38940 16170 c-13 -8 -12 -10 3 -10 9 0 17 5 17 10 0 12 -1 12 -20 0z"/>
<path d="M38983 16163 c-7 -2 -13 -16 -13 -29 0 -14 4 -23 9 -19 5 3 12 -5 14
-17 3 -13 4 -2 3 24 0 27 -1 48 -1 47 0 0 -6 -3 -12 -6z"/>
<path d="M38871 16144 c0 -11 3 -14 6 -6 3 7 2 16 -1 19 -3 4 -6 -2 -5 -13z"/>
<path d="M38242 16108 c1 -13 8 -25 15 -25 9 0 9 5 1 21 -16 31 -18 32 -16 4z"/>
<path d="M38785 16110 c-3 -5 -1 -10 4 -10 6 0 11 5 11 10 0 6 -2 10 -4 10 -3
0 -8 -4 -11 -10z"/>
<path d="M38275 16100 c3 -5 8 -10 11 -10 2 0 4 5 4 10 0 6 -5 10 -11 10 -5 0
-7 -4 -4 -10z"/>
<path d="M38303 16095 c0 -8 4 -12 9 -9 5 3 6 10 3 15 -9 13 -12 11 -12 -6z"/>
<path d="M38523 16083 c9 -2 23 -2 30 0 6 3 -1 5 -18 5 -16 0 -22 -2 -12 -5z"/>
<path d="M38080 16030 c0 -5 7 -7 15 -4 8 4 15 8 15 10 0 2 -7 4 -15 4 -8 0
-15 -4 -15 -10z"/>
<path d="M38320 16025 c0 -5 5 -17 10 -25 5 -8 10 -10 10 -5 0 6 -5 17 -10 25
-5 8 -10 11 -10 5z"/>
<path d="M38900 15996 c0 -2 9 -6 20 -9 11 -3 18 -1 14 4 -5 9 -34 13 -34 5z"/>
<path d="M38431 15983 c0 -6 -4 -20 -7 -30 -5 -14 -4 -15 5 -7 7 7 11 20 8 30
-3 11 -5 14 -6 7z"/>
<path d="M38883 15966 c1 -11 9 -21 17 -23 10 -3 11 -2 4 4 -6 4 -14 15 -17
23 -5 11 -6 9 -4 -4z"/>
<path d="M38325 15950 c-3 -5 -1 -10 4 -10 6 0 11 5 11 10 0 6 -2 10 -4 10 -3
0 -8 -4 -11 -10z"/>
<path d="M38424 15918 c-3 -5 7 -6 21 -4 37 7 42 14 10 14 -14 0 -28 -5 -31
-10z"/>
<path d="M38321 15915 c0 -5 6 -19 14 -29 8 -11 15 -14 15 -7 0 7 5 9 10 6 6
-3 10 -2 10 4 0 5 -4 13 -10 16 -5 3 -10 1 -10 -6 0 -7 -7 -4 -15 7 -8 10 -14
15 -14 9z"/>
<path d="M38860 15911 c0 -3 5 -13 10 -21 7 -11 10 -11 10 -2 0 7 10 17 23 21
19 8 18 9 -10 9 -18 -1 -33 -4 -33 -7z"/>
<path d="M38820 15891 c0 -5 7 -12 16 -15 24 -9 27 -7 10 9 -17 17 -26 19 -26
6z"/>
<path d="M38356 15845 c-3 -8 -1 -15 4 -15 6 0 10 7 10 15 0 8 -2 15 -4 15 -2
0 -6 -7 -10 -15z"/>
<path d="M38640 15826 c0 -9 5 -16 10 -16 6 0 10 4 10 9 0 6 -4 13 -10 16 -5
3 -10 -1 -10 -9z"/>
<path d="M38635 15765 c-40 -19 -16 -19 26 0 19 8 27 14 19 14 -8 0 -28 -7
-45 -14z"/>
<path d="M38460 15759 c0 -5 5 -7 10 -4 6 3 10 8 10 11 0 2 -4 4 -10 4 -5 0
-10 -5 -10 -11z"/>
<path d="M38150 15747 c0 -9 -4 -17 -10 -17 -5 0 -10 -4 -10 -10 0 -5 4 -10 9
-10 12 0 25 39 17 47 -3 4 -6 -1 -6 -10z"/>
<path d="M38400 15690 c0 -5 5 -10 11 -10 5 0 7 5 4 10 -3 6 -8 10 -11 10 -2
0 -4 -4 -4 -10z"/>
<path d="M38406 15645 c4 -8 10 -15 15 -15 4 0 6 7 3 15 -4 8 -10 15 -15 15
-4 0 -6 -7 -3 -15z"/>
<path d="M38490 15640 c0 -5 5 -10 10 -10 6 0 10 5 10 10 0 6 -4 10 -10 10 -5
0 -10 -4 -10 -10z"/>
<path d="M38538 15625 c-3 -14 -2 -25 2 -25 4 0 10 11 12 25 3 14 2 25 -2 25
-4 0 -10 -11 -12 -25z"/>
<path d="M38410 15606 c0 -2 7 -7 16 -10 8 -3 12 -2 9 4 -6 10 -25 14 -25 6z"/>
<path d="M38061 15573 c0 -25 1 -26 9 -8 12 27 12 35 0 35 -5 0 -10 -12 -9
-27z"/>
<path d="M38403 15568 c1 -15 6 -23 11 -18 4 4 4 16 -2 26 -9 16 -10 14 -9 -8z"/>
<path d="M38512 15581 c4 -13 18 -16 19 -4 0 4 -5 9 -11 12 -7 2 -11 -2 -8 -8z"/>
<path d="M38512 15528 c5 -18 10 -39 11 -45 0 -7 5 -13 10 -13 5 0 7 -11 3
-23 -3 -14 1 -32 9 -43 8 -10 15 -14 15 -7 0 6 -4 14 -8 17 -4 2 -7 23 -5 46
1 24 -2 38 -8 35 -5 -4 -12 8 -15 25 -4 17 -10 33 -15 35 -4 3 -3 -9 3 -27z"/>
<path d="M38542 15540 c0 -14 2 -19 5 -12 2 6 2 18 0 25 -3 6 -5 1 -5 -13z"/>
<path d="M38425 15495 c0 -18 3 -36 6 -39 3 -3 5 4 5 17 -1 12 4 21 12 20 6
-2 12 5 12 14 0 9 -3 13 -7 10 -3 -4 -11 -3 -17 2 -8 6 -11 -1 -11 -24z"/>
<path d="M38073 15440 c0 -47 2 -66 4 -42 2 23 2 61 0 85 -2 23 -4 4 -4 -43z"/>
<path d="M39155 15510 c-16 -7 -17 -9 -3 -9 9 -1 20 4 23 9 7 11 7 11 -20 0z"/>
<path d="M38938 15483 c7 -3 16 -2 19 1 4 3 -2 6 -13 5 -11 0 -14 -3 -6 -6z"/>
<path d="M39048 15483 c7 -3 16 -2 19 1 4 3 -2 6 -13 5 -11 0 -14 -3 -6 -6z"/>
<path d="M38850 15380 c0 -5 5 -10 10 -10 6 0 10 5 10 10 0 6 -4 10 -10 10 -5
0 -10 -4 -10 -10z"/>
<path d="M38955 15351 c-3 -5 0 -13 6 -17 7 -4 9 -3 5 4 -3 5 0 13 6 15 9 4
10 6 1 6 -6 1 -14 -3 -18 -8z"/>
<path d="M38486 15337 c3 -10 9 -15 12 -12 3 3 0 11 -7 18 -10 9 -11 8 -5 -6z"/>
<path d="M38566 15311 c-4 -5 -2 -12 4 -16 6 -4 8 -10 5 -15 -3 -5 -1 -19 5
-30 10 -18 14 -19 28 -8 12 10 14 10 8 1 -11 -19 5 -15 20 5 16 21 17 32 3 32
-5 0 -7 -4 -4 -10 3 -5 -1 -10 -9 -10 -16 0 -30 18 -31 39 0 17 -21 26 -29 12z
m24 -11 c0 -5 -2 -10 -4 -10 -3 0 -8 5 -11 10 -3 6 -1 10 4 10 6 0 11 -4 11
-10z m10 -41 c0 -6 -4 -7 -10 -4 -5 3 -10 11 -10 16 0 6 5 7 10 4 6 -3 10 -11
10 -16z"/>
<path d="M38800 15309 c0 -5 5 -7 10 -4 6 3 10 8 10 11 0 2 -4 4 -10 4 -5 0
-10 -5 -10 -11z"/>
<path d="M38858 15303 c7 -3 16 -2 19 1 4 3 -2 6 -13 5 -11 0 -14 -3 -6 -6z"/>
<path d="M38046 15272 c6 -4 14 -14 17 -22 4 -10 6 -8 6 8 1 15 -5 22 -16 22
-11 0 -14 -3 -7 -8z"/>
<path d="M38480 15270 c0 -11 36 -50 47 -50 3 0 -3 10 -15 23 -12 13 -19 27
-15 30 3 4 1 7 -5 7 -7 0 -12 -4 -12 -10z"/>
<path d="M38660 15256 c0 -2 7 -6 15 -10 8 -3 15 -1 15 4 0 6 -7 10 -15 10 -8
0 -15 -2 -15 -4z"/>
<path d="M38486 15227 c3 -10 9 -15 12 -12 3 3 0 11 -7 18 -10 9 -11 8 -5 -6z"/>
<path d="M38511 15172 c-6 -11 -6 -33 -1 -56 11 -50 21 -58 13 -12 -3 20 -1
36 4 36 5 0 9 -10 10 -21 1 -12 7 -27 13 -33 8 -8 9 -4 1 15 -5 15 -8 29 -5
32 2 2 -2 10 -11 17 -17 15 -21 35 -3 24 7 -4 8 -3 4 4 -10 16 -14 15 -25 -6z"/>
<path d="M38495 15050 c-3 -5 -1 -10 4 -10 6 0 11 5 11 10 0 6 -2 10 -4 10 -3
0 -8 -4 -11 -10z"/>
<path d="M38120 15000 c0 -5 7 -10 16 -10 8 0 12 5 9 10 -3 6 -10 10 -16 10
-5 0 -9 -4 -9 -10z"/>
<path d="M38358 14993 c7 -3 16 -2 19 1 4 3 -2 6 -13 5 -11 0 -14 -3 -6 -6z"/>
<path d="M38571 14974 c0 -11 3 -14 6 -6 3 7 2 16 -1 19 -3 4 -6 -2 -5 -13z"/>
<path d="M40890 14945 c-18 -13 -72 -36 -120 -52 l-88 -27 105 -210 104 -209
242 7 c133 4 264 12 291 17 72 13 148 51 201 100 56 52 47 62 -46 53 -80 -8
-164 9 -202 40 -16 12 -43 51 -60 86 -40 81 -89 117 -183 136 -38 8 -101 30
-141 48 l-71 34 -32 -23z"/>
<path d="M38973 14858 c40 -153 45 -209 22 -228 -8 -7 -15 -19 -15 -26 0 -8
-4 -14 -10 -14 -5 0 -10 -6 -10 -13 0 -14 -77 -67 -97 -67 -8 0 -32 -9 -54
-19 -21 -11 -36 -14 -33 -8 5 9 4 9 -5 1 -9 -8 -8 -27 5 -80 9 -38 20 -73 24
-77 4 -5 55 -15 113 -22 160 -21 158 -21 153 -63 -2 -20 -9 -38 -15 -40 -6 -2
-11 -13 -11 -25 0 -14 -13 -31 -34 -45 -30 -21 -41 -22 -96 -16 l-62 7 6 -39
c18 -103 63 -258 76 -262 13 -3 13 -2 0 7 -9 7 -10 11 -3 11 20 0 24 -18 7
-34 -8 -9 -12 -21 -8 -28 4 -7 9 -26 11 -42 2 -17 7 -32 11 -35 4 -4 8 -15 9
-26 3 -33 12 -88 21 -120 l8 -30 242 -3 242 -2 0 44 c0 40 2 45 28 50 81 17
372 53 580 72 61 5 72 9 68 23 -3 9 -8 33 -12 54 -4 27 -17 45 -44 67 -37 29
-40 30 -154 30 l-115 0 -45 45 c-25 24 -56 47 -70 51 -14 3 -26 10 -26 15 0 5
-5 9 -10 9 -24 0 -106 46 -136 77 -36 36 -43 67 -20 98 8 11 11 25 9 33 -7 16
26 42 44 35 7 -3 10 -9 7 -14 -3 -5 2 -9 11 -9 9 0 13 4 10 10 -3 5 0 7 8 4 8
-3 18 -1 22 5 3 6 12 11 18 11 7 0 6 -4 -3 -10 -8 -5 -11 -10 -7 -10 10 0 69
41 79 55 11 14 10 25 -3 25 -5 0 -7 -5 -3 -12 4 -7 3 -8 -4 -4 -6 4 -9 13 -6
20 9 24 -55 35 -186 34 -105 -2 -132 1 -167 17 -42 19 -43 21 -43 66 0 139 46
219 126 219 41 0 43 1 59 48 9 26 24 62 32 80 9 17 13 35 10 39 -4 3 -3 11 2
17 4 6 11 23 15 39 l6 27 -291 0 -291 0 5 -22z m67 -748 c0 -5 -4 -10 -10 -10
-5 0 -10 5 -10 10 0 6 5 10 10 10 6 0 10 -4 10 -10z m-130 -107 c0 -5 -5 -15
-10 -23 -8 -12 -10 -11 -10 8 0 12 5 22 10 22 6 0 10 -3 10 -7z m23 -63 c-3
-12 -8 -19 -11 -16 -5 6 5 36 12 36 2 0 2 -9 -1 -20z m22 -41 c2 -19 1 -28 -2
-20 -5 11 -7 11 -15 0 -7 -10 -8 -8 -3 6 4 11 7 28 7 39 -1 31 9 10 13 -25z
m749 2 c3 -5 0 -11 -7 -14 -8 -3 -14 1 -14 9 0 16 13 19 21 5z m64 -38 c-6 -7
-18 -12 -27 -12 -12 1 -11 2 3 6 15 4 16 7 5 14 -10 6 -8 8 8 6 17 -1 19 -4
11 -14z m-63 -13 c3 -6 -1 -7 -9 -4 -18 7 -21 14 -7 14 6 0 13 -4 16 -10z
m-321 -16 c9 -3 13 -10 10 -15 -3 -5 -11 -6 -17 -2 -7 5 -86 10 -177 13 l-165
6 167 2 c91 1 173 -1 182 -4z m149 -1 c-7 -2 -19 -2 -25 0 -7 3 -2 5 12 5 14
0 19 -2 13 -5z m97 -9 c0 -2 -7 -4 -15 -4 -8 0 -15 4 -15 10 0 5 7 7 15 4 8
-4 15 -8 15 -10z m-475 -14 c-72 -12 -115 -11 -115 0 0 6 33 9 83 9 77 -2 79
-2 32 -9z m368 -7 c3 -5 -17 -8 -43 -8 -26 0 -46 3 -43 8 2 4 22 7 43 7 21 0
41 -3 43 -7z m42 -3 c3 -5 2 -10 -4 -10 -5 0 -13 5 -16 10 -3 6 -2 10 4 10 5
0 13 -4 16 -10z m-302 -7 c-13 -2 -33 -2 -45 0 -13 2 -3 4 22 4 25 0 35 -2 23
-4z"/>
<path d="M38696 14827 c3 -10 9 -15 12 -12 3 3 0 11 -7 18 -10 9 -11 8 -5 -6z"/>
<path d="M40577 14813 c-39 -31 -71 -88 -81 -145 -6 -35 -5 -38 16 -38 62 0
148 -46 148 -80 0 -7 -89 -10 -270 -10 -209 0 -270 -3 -270 -12 1 -37 14 -59
44 -67 41 -12 659 -14 654 -3 -26 69 -185 382 -194 382 -6 0 -27 -12 -47 -27z"/>
<path d="M38445 14820 c-8 -13 5 -13 25 0 13 8 13 10 -2 10 -9 0 -20 -4 -23
-10z"/>
<path d="M38590 14812 c0 -4 9 -8 19 -8 11 0 17 4 15 8 -3 4 -12 8 -20 8 -8 0
-14 -4 -14 -8z"/>
<path d="M38387 14803 c-10 -3 -16 -10 -14 -16 6 -20 24 -18 30 3 3 11 4 19 4
19 -1 -1 -10 -3 -20 -6z"/>
<path d="M38697 14783 c3 -7 6 -13 8 -13 2 0 5 6 8 13 3 8 -1 14 -8 14 -7 0
-11 -6 -8 -14z"/>
<path d="M38606 14777 c3 -10 9 -15 12 -12 3 3 0 11 -7 18 -10 9 -11 8 -5 -6z"/>
<path d="M38193 14759 c-30 -9 -46 -29 -23 -29 6 0 10 5 10 10 0 6 14 10 31
10 16 0 28 -3 26 -7 -3 -5 16 -6 41 -3 l47 5 -42 3 c-24 2 -43 7 -43 13 0 11
-4 10 -47 -2z"/>
<path d="M38627 14741 c-4 -17 -3 -21 5 -13 5 5 8 16 6 23 -3 8 -7 3 -11 -10z"/>
<path d="M38972 14740 c0 -14 2 -19 5 -12 2 6 2 18 0 25 -3 6 -5 1 -5 -13z"/>
<path d="M38108 14743 c6 -2 18 -2 25 0 6 3 1 5 -13 5 -14 0 -19 -2 -12 -5z"/>
<path d="M37898 14713 c7 -3 16 -2 19 1 4 3 -2 6 -13 5 -11 0 -14 -3 -6 -6z"/>
<path d="M38993 14680 c0 -25 2 -35 4 -22 2 12 2 32 0 45 -2 12 -4 2 -4 -23z"/>
<path d="M37798 14703 c6 -2 18 -2 25 0 6 3 1 5 -13 5 -14 0 -19 -2 -12 -5z"/>
<path d="M38651 14631 c-8 -5 -9 -11 -3 -15 5 -3 12 1 16 9 6 17 6 18 -13 6z"/>
<path d="M38740 14611 c0 -6 4 -13 10 -16 6 -3 7 1 4 9 -7 18 -14 21 -14 7z"/>
<path d="M38655 14589 c-4 -6 -5 -12 -2 -15 2 -3 7 2 10 11 7 17 1 20 -8 4z"/>
<path d="M38737 14571 c7 -26 29 -34 29 -10 0 10 -2 16 -5 14 -2 -3 -10 0 -17
6 -9 8 -11 5 -7 -10z"/>
<path d="M38770 14524 c-13 -13 -19 -24 -12 -24 6 0 12 6 12 13 0 9 3 8 9 -2
7 -11 10 -9 16 8 10 31 4 32 -25 5z"/>
<path d="M37727 14506 c-4 -11 -5 -21 -2 -24 3 -3 5 1 5 9 0 11 2 12 9 1 7
-11 9 -10 14 3 4 9 3 14 -2 10 -5 -3 -11 0 -13 7 -3 7 -7 5 -11 -6z"/>
<path d="M38500 14468 c0 -5 -9 -8 -20 -8 -19 0 -41 -14 -84 -56 -12 -12 -28
-23 -36 -26 -7 -2 69 -14 170 -26 101 -12 187 -27 191 -33 4 -8 8 -7 11 2 6
16 -19 130 -31 142 -10 10 -201 15 -201 5z"/>
<path d="M37791 14371 c20 -31 35 -37 43 -16 3 10 2 14 -5 10 -6 -4 -20 1 -32
12 -21 18 -21 18 -6 -6z"/>
<path d="M39540 14205 c-8 -9 -8 -15 -2 -15 12 0 26 19 19 26 -2 2 -10 -2 -17
-11z"/>
<path d="M38075 14144 c-71 -82 -195 -134 -319 -134 -29 0 -47 -6 -59 -20 -30
-36 -21 -65 41 -131 31 -33 64 -74 72 -91 14 -28 13 -31 -8 -48 -20 -17 -70
-27 -156 -33 l-28 -2 33 -28 c47 -39 172 -98 180 -85 4 7 8 6 11 -2 2 -7 33
-19 68 -28 52 -12 159 -16 543 -19 274 -3 477 -1 477 4 0 5 -6 32 -14 59 -8
27 -24 93 -36 147 -12 53 -25 95 -30 92 -4 -3 -14 3 -21 12 -12 14 -12 16 1
11 11 -4 16 1 17 13 1 11 -3 17 -8 13 -6 -3 -7 4 -4 19 4 14 2 28 -4 32 -6 3
-9 10 -6 15 5 9 -18 115 -32 150 -3 8 -6 17 -5 20 0 3 -99 5 -221 5 -237 1
-294 9 -399 59 l-47 22 -46 -52z"/>
<path d="M40194 13747 c3 -16 6 -36 6 -43 0 -10 13 -14 39 -14 l39 0 -10 39
c-9 35 -14 39 -45 43 -34 4 -35 3 -29 -25z"/>
<path d="M40374 13771 l-60 -6 8 -31 8 -31 173 -9 c95 -5 188 -7 207 -4 l33 5
-40 28 c-77 53 -154 64 -329 48z"/>
<path d="M38400 12819 c0 -5 5 -7 10 -4 6 3 10 8 10 11 0 2 -4 4 -10 4 -5 0
-10 -5 -10 -11z"/>
<path d="M39060 12769 c0 -5 5 -7 10 -4 6 3 10 8 10 11 0 2 -4 4 -10 4 -5 0
-10 -5 -10 -11z"/>
<path d="M39525 12770 c-3 -5 -1 -10 4 -10 6 0 11 5 11 10 0 6 -2 10 -4 10 -3
0 -8 -4 -11 -10z"/>
<path d="M39595 12771 c-3 -5 -2 -12 3 -15 5 -3 9 1 9 9 0 17 -3 19 -12 6z"/>
<path d="M39638 12758 c5 -5 16 -8 23 -6 8 3 3 7 -10 11 -17 4 -21 3 -13 -5z"/>
<path d="M37496 12751 c-3 -5 1 -11 9 -14 9 -4 12 -1 8 9 -6 16 -10 17 -17 5z"/>
<path d="M38750 12750 c-13 -8 -12 -10 3 -10 9 0 17 5 17 10 0 12 -1 12 -20 0z"/>
<path d="M39080 12749 c0 -5 5 -7 10 -4 6 3 10 8 10 11 0 2 -4 4 -10 4 -5 0
-10 -5 -10 -11z"/>
<path d="M38653 12726 c20 -29 37 -32 36 -4 0 22 -1 22 -9 3 -6 -14 -9 -16
-10 -5 -2 8 -2 18 -2 21 1 3 -6 6 -14 6 -12 0 -12 -3 -1 -21z"/>
<path d="M38698 12711 c-2 -22 0 -37 4 -35 5 3 8 19 8 35 0 20 4 28 12 23 7
-4 8 -3 4 4 -14 22 -24 12 -28 -27z"/>
<path d="M38930 12740 c0 -6 7 -10 15 -10 8 0 15 2 15 4 0 2 -7 6 -15 10 -8 3
-15 1 -15 -4z"/>
<path d="M39178 12728 c2 -10 7 -18 11 -18 4 0 7 8 7 18 0 10 -5 19 -12 19 -6
0 -9 -9 -6 -19z"/>
<path d="M38780 12729 c0 -5 5 -7 10 -4 6 3 10 8 10 11 0 2 -4 4 -10 4 -5 0
-10 -5 -10 -11z"/>
<path d="M39545 12730 c27 -12 43 -12 25 0 -8 5 -22 9 -30 9 -10 0 -8 -3 5 -9z"/>
<path d="M39785 12730 c-4 -6 -11 -7 -17 -4 -6 4 -8 2 -4 -4 3 -5 0 -13 -6
-15 -8 -3 -8 -6 -2 -6 6 -1 19 8 29 19 10 11 15 20 12 20 -3 0 -9 -5 -12 -10z"/>
<path d="M37664 12712 c3 -6 -2 -13 -11 -15 -14 -4 -13 -5 5 -6 23 -1 30 13
10 25 -6 4 -8 3 -4 -4z"/>
<path d="M39455 12712 c3 -3 -1 -12 -7 -21 -8 -10 -4 -9 10 3 26 23 26 23 7
23 -8 0 -13 -3 -10 -5z"/>
<path d="M39605 12711 c-3 -5 0 -13 6 -17 8 -4 9 -3 5 4 -9 16 7 15 22 0 8 -8
12 -8 12 -1 0 6 -7 14 -16 17 -20 8 -22 8 -29 -3z"/>
<path d="M39693 12705 c0 -8 4 -12 9 -9 5 3 6 10 3 15 -9 13 -12 11 -12 -6z"/>
<path d="M37790 12703 c0 -7 5 -15 11 -19 8 -5 8 -9 -1 -14 -8 -5 -7 -9 4 -13
9 -4 16 -1 16 6 -1 15 -30 55 -30 40z"/>
<path d="M37700 12696 c0 -2 7 -7 16 -10 8 -3 12 -2 9 4 -6 10 -25 14 -25 6z"/>
<path d="M38053 12681 c-1 -14 3 -18 13 -14 11 4 12 9 3 19 -15 18 -14 18 -16
-5z"/>
<path d="M38111 12696 c46 -31 57 -35 55 -19 -2 9 -14 17 -30 19 -16 2 -27 2
-25 0z"/>
<path d="M38188 12693 c7 -3 16 -2 19 1 4 3 -2 6 -13 5 -11 0 -14 -3 -6 -6z"/>
<path d="M37746 12682 c-3 -5 1 -9 9 -9 8 0 12 4 9 9 -3 4 -7 8 -9 8 -2 0 -6
-4 -9 -8z"/>
<path d="M38758 12683 c7 -3 16 -2 19 1 4 3 -2 6 -13 5 -11 0 -14 -3 -6 -6z"/>
<path d="M38915 12680 c-3 -6 1 -7 9 -4 18 7 21 14 7 14 -6 0 -13 -4 -16 -10z"/>
<path d="M39660 12679 c0 -5 5 -7 10 -4 6 3 10 8 10 11 0 2 -4 4 -10 4 -5 0
-10 -5 -10 -11z"/>
<path d="M38210 12670 c-8 -5 -10 -10 -5 -10 6 0 17 5 25 10 8 5 11 10 5 10
-5 0 -17 -5 -25 -10z"/>
<path d="M39618 12673 c7 -3 16 -2 19 1 4 3 -2 6 -13 5 -11 0 -14 -3 -6 -6z"/>
<path d="M37468 12663 c7 -3 16 -2 19 1 4 3 -2 6 -13 5 -11 0 -14 -3 -6 -6z"/>
<path d="M37580 12641 c0 -6 4 -13 10 -16 6 -3 7 1 4 9 -7 18 -14 21 -14 7z"/>
</g>
</svg>
